<svg version="1.1" xmlns="http://www.w3.org/2000/svg" viewBox="0 0 1159.2243489677112 666.2820892242603" width="1159.2243489677112" height="666.2820892242603">
  <!-- svg-source:excalidraw -->
  
  <defs>
    <style>
      @font-face {
        font-family: "Virgil";
        src: url("https://excalidraw.com/Virgil.woff2");
      }
      @font-face {
        font-family: "Cascadia";
        src: url("https://excalidraw.com/Cascadia.woff2");
      }
    </style>
  </defs>
  <rect x="0" y="0" width="1159.2243489677112" height="666.2820892242603" fill="#ffffff"></rect><g stroke-linecap="round" transform="translate(725.7825848510082 512.44876097719) rotate(0 104.99996948242188 71.91666412353516)"><path d="M0 0 C0 0, 0 0, 0 0 M0 0 C0 0, 0 0, 0 0 M0.3 6.76 C0.54 4.13, 1.95 2.46, 5.62 0.26 M-0.42 6.58 C1.24 4.84, 2.3 3.68, 5.35 0.03 M0.83 10.78 C3.55 5.83, 8.59 3.14, 10.2 -0.25 M0.61 12.4 C3.27 9.44, 5.87 6.12, 10.38 -0.62 M0.97 17.76 C2.25 12.86, 7.23 7.92, 14.95 -0.41 M0.07 18.29 C5.15 12.19, 11.58 4.62, 15.39 -0.12 M-0.88 25.12 C7.07 17.69, 12.02 10.55, 19.27 -0.55 M0.37 23.26 C5.12 17.75, 11.53 11.85, 21.53 0.65 M0.67 29 C10.4 20.16, 17.99 10.91, 27.51 -1.65 M-0.18 31.46 C9.46 20.08, 18.12 7.78, 25.81 -0.67 M0.76 36.99 C9.12 27.02, 18.18 16.22, 33.77 0.59 M0.33 37.75 C8.4 25.86, 17.31 15.21, 31.09 -0.67 M0.56 41.95 C9.04 31.07, 15.48 23.84, 38.73 1.66 M-0.49 43.18 C8.58 33.18, 15.23 25.86, 36.76 0.78 M-0.55 48.13 C14.95 29.67, 33.99 10.33, 40.99 -1.99 M0.63 48.23 C16.43 30.79, 32 13.62, 41.89 -0.4 M1.76 53.76 C13.61 40.68, 23.26 27.8, 45.92 1.01 M1.16 54.68 C11.27 41.73, 19.8 31.72, 47.93 0.53 M1.59 61.01 C12 45.81, 21.16 32.58, 53.11 -1.23 M-0.55 60.63 C16.04 42.25, 31.91 24.91, 53.9 0.22 M1.57 66.5 C19.19 42.34, 41.98 21.94, 57.17 2.05 M-0.76 68.34 C20.16 45.45, 39.67 21.71, 59.1 0.29 M1.01 71.53 C21.88 47.82, 44.93 19.04, 63.15 -1.88 M-0.32 73.52 C12.67 57.03, 27.92 40.04, 64.23 0.36 M0.06 80.16 C18.17 60.14, 35.25 36.94, 67.39 0.64 M-0.75 78.69 C26.68 50.71, 52.49 20.04, 68.15 -0.84 M-1.61 85.82 C20.85 61.34, 42.15 38.65, 72.93 -0.48 M0.33 84.9 C13.93 66.78, 29.42 50.36, 75.03 -0.43 M0.14 93.2 C24.78 61.97, 52.78 29.29, 78.32 -1.19 M-0.15 90.92 C25.85 62.18, 50.84 32.23, 79.05 -0.32 M0.55 96.9 C30 62.55, 63.75 25.31, 85.08 -1.41 M-0.15 96.92 C23.42 69.88, 45.12 42.8, 85.58 -0.15 M-1.8 103.49 C35.81 64.03, 66.57 25.81, 90.49 0.8 M-0.57 103.88 C22.05 77.8, 46.14 50.98, 89.87 -0.23 M-0.91 109.74 C33.89 71.58, 63.88 36.68, 95.05 -0.85 M0.73 110.87 C37.06 66.85, 73.72 23.61, 96.24 -0.45 M-0.57 117.11 C32.87 80.09, 66.64 44.04, 99.26 1 M-0.53 114.83 C26.34 85.16, 54.19 53.91, 100.77 0.76 M-1.54 121.76 C41.84 76.89, 81.32 32.61, 107.09 1.21 M-0.39 121.7 C26.17 93.89, 51.4 62.98, 106.48 -0.52 M1.19 129.07 C42.44 82.64, 84.27 32.39, 110.79 0.03 M-0.1 128.18 C34.28 88.19, 69.16 47.06, 112 -0.61 M-1.43 135.81 C44.55 81.65, 92.46 31.27, 117.63 1.72 M-0.14 133.04 C31.73 97.8, 64.49 62.1, 116.17 -0.43 M-0.39 140.29 C35.23 94.94, 72.6 50.61, 122.06 0.67 M-0.29 140.49 C47.72 85.86, 92.56 32.2, 121.92 -0.2 M2.8 144.18 C26.31 115.61, 54.89 83.99, 125.86 -0.44 M1.61 145.15 C36.67 107.33, 69.21 68.06, 126.28 -0.09 M8.23 146.63 C50.31 92.4, 94.96 42.06, 132.86 -0.1 M7.58 145.44 C41.99 102.96, 77.29 62.45, 132.95 -0.46 M9.89 143.51 C57.84 89.2, 108.07 34.49, 137.82 0.03 M11.62 145.89 C56.13 94.55, 98.93 45.15, 136.9 1.27 M16.87 145.91 C56.46 98.2, 94.93 53.93, 141.79 0.88 M16.73 144.92 C54.96 103, 89.71 60.03, 143.63 -0.42 M22.34 146.56 C64.15 99.03, 106.34 51.54, 149.01 -0.09 M21.69 144.41 C67.28 92.05, 113.44 39.79, 147.84 0.05 M26.86 145.68 C75.31 88.9, 126.06 29.98, 154.27 0.96 M28.2 144.76 C66.81 99, 107.62 54.13, 154.6 0.28 M31.31 144.92 C60.67 111.07, 85.95 80.88, 159.76 0.14 M33.59 145.96 C74.27 97.66, 115.56 51.39, 158.05 1.07 M40.25 145.13 C67.82 106.31, 99.63 72.17, 162.52 -0.32 M38.02 144.64 C77.02 102.52, 114.75 59.29, 164.58 -0.6 M42.79 144.37 C80.81 103.05, 120.96 58.16, 171.21 1.85 M43.16 145.17 C89.81 91.24, 137.33 36, 169.53 -0.45 M47.95 143.64 C87.46 100.34, 127.37 55.32, 173.58 -1.23 M49.35 144.66 C77.42 109.81, 105.31 75.88, 174.37 0.13 M53.56 144.89 C100.42 93.81, 144.05 45.24, 181.3 -1.65 M54.34 144.1 C104.12 87.61, 152.66 31.23, 179.4 1.13 M61.64 144.78 C90 113.79, 117.72 79.64, 185.31 -1.87 M60.43 145.33 C102.64 93.44, 145.62 44.71, 184.9 -0.96 M63.24 144.65 C97.34 109.95, 129.67 73.89, 188.78 -0.84 M65.17 144.2 C91.45 114.12, 119.01 82.77, 189.87 -0.16 M69.83 144.31 C101.43 104.91, 136.11 66.53, 194.38 -0.13 M70.58 145.56 C109.18 100.69, 146.39 57.34, 197.16 0.12 M74.22 143.99 C123.6 87.3, 172.61 29.28, 201.23 1.97 M75.78 144.35 C124.87 88.2, 172.95 34.16, 202.23 0.12 M81.85 146.16 C119.32 101.94, 152.34 62.01, 208.25 0.28 M80.22 144.66 C107.03 112.61, 134.33 82.3, 206.26 -1.22 M87.74 145.46 C120.18 106.58, 154.26 64.76, 210.38 1.41 M86.38 144.8 C115.05 112.32, 142.85 81.56, 212.22 1.58 M91.83 146.48 C135.08 93.39, 179.99 42.78, 210.66 5.37 M90.89 144.36 C118.46 112.34, 147.01 79.01, 210.81 7.35 M95.85 145.77 C130.62 106.63, 160.59 68.9, 212.24 14.12 M97.29 145.24 C139.47 95.24, 182.26 46.24, 212.16 12.02 M102.71 145.59 C125.15 118.1, 148.66 91.36, 209.34 20.8 M103.19 144.78 C139.85 102.3, 177.2 58.2, 210.74 19.03 M105.38 143.85 C143.94 98.98, 182.84 55.96, 209.99 23.8 M106.93 144.75 C131.1 120.25, 153.41 95.06, 211.8 26.56 M113.6 144.73 C141.34 109.71, 170.92 79.43, 212.14 32.89 M112.17 145.22 C153.3 101.31, 192.33 54.35, 211.35 30.9 M118.02 144.79 C149.64 109.54, 182.52 69.98, 211.79 39.37 M117.8 145.82 C142.85 113.12, 168.84 83.47, 210.12 37.74 M122.38 147.11 C153.57 110.31, 183.4 74.94, 209.78 42.66 M121.94 145.11 C143.15 118.66, 165.99 93.19, 212.12 43.98 M130.22 143.88 C157.61 114.67, 183.82 82.34, 212.6 48.22 M128.49 144.33 C146.81 121.98, 167.29 100.42, 211.26 48.8 M133.78 146.35 C154.13 121.96, 171.92 102.74, 211.14 58.12 M133.75 144.55 C151.29 126.24, 166.73 107.61, 209.95 55.46 M137.3 146.6 C152.66 125.93, 169.32 112.1, 212.86 61.18 M139.69 145.6 C161.33 121.83, 181.97 97.54, 211.05 62.61 M145.99 143.52 C167.77 117.5, 192.21 88.21, 209.9 67.15 M144.58 145.29 C160.79 125.92, 176.03 106.28, 211.83 67.65 M149.34 144.61 C168.75 124.3, 186.69 102.18, 209.85 73.25 M150.19 144.34 C174.36 116.57, 199.95 88.78, 210.48 74.46 M154.02 143.88 C165.22 134.29, 177.04 119.11, 212.57 82.11 M154.51 145.51 C175.18 122.77, 194.66 99.68, 210.84 80.55 M159.26 143.75 C175.44 129.6, 186.71 114.32, 208.96 88.37 M160.87 144.64 C173.22 130.64, 185.38 116.66, 210.92 86.79 M165.7 144.89 C178.92 127.04, 193 110.47, 213.11 92.8 M164.71 145.75 C181.47 127.63, 196.95 109.02, 210.84 92.8 M170.8 144.08 C184.2 129.58, 195.43 115.56, 210.41 100.43 M170.7 144.04 C180.04 133.02, 189.87 121.02, 210.83 98.2 M177.66 144.15 C186.72 135.73, 196.14 123.24, 212.32 103.18 M175.47 145.01 C188 132.82, 197.05 120.17, 211.76 104.46 M182.48 143.81 C192.5 132.24, 202.39 122.2, 209.23 109.74 M180.75 145.47 C193.16 132.19, 205.74 117.54, 211.8 109.95 M187.35 143.51 C191.21 139.64, 199.05 132.81, 209.15 116.17 M186.13 144.65 C194.39 134.78, 204.98 124.88, 210.98 117.74 M191.67 143.35 C196.57 140.77, 201.03 131.46, 209.92 124.06 M192.17 145.24 C199.91 136.14, 207.87 126.42, 211.15 122.94 M197.02 144.96 C202.6 138.2, 205.61 136.01, 211.32 130.62 M197.15 144.46 C200.08 141.17, 204.29 137.82, 211.95 129.99 M202.66 145.06 C205.14 142.1, 208.08 140.5, 210.39 135.14 M202.46 144.93 C205.11 142.12, 208.28 138.95, 211.36 134.59 M208.36 145.39 C209.45 143.94, 210.76 141.68, 211.24 141.34 M207.95 144.87 C209.47 143.27, 210.65 142.01, 210.94 140.94" stroke="#fab005" stroke-width="0.5" fill="none"></path><path d="M-0.14 -0.97 C60.92 0.19, 119.39 0.89, 208.37 -1.15 M0.07 -0.48 C73.81 -0.65, 148.62 -0.46, 209.51 -0.87 M210.36 -0.44 C210 43.74, 210.49 84.94, 208.85 144.12 M209.25 -0.36 C210.23 50.89, 210.23 101.02, 210.05 143.01 M208.72 143.33 C131.62 146.99, 54.34 145.19, 0.79 145.36 M210.06 143.69 C149.61 145.83, 88.43 144.74, -0.5 144.49 M-1.95 142.34 C1.37 108.56, -1.07 74.5, 0.38 0.39 M0.2 144.22 C0.03 101.04, 1.02 60.98, -0.53 0.41" stroke="#000000" stroke-width="1" fill="none"></path></g><g transform="translate(784.449271862727 578.2821044830494) rotate(0 50.5 11.5)"><text x="50.5" y="18" font-family="Helvetica, Segoe UI Emoji" font-size="20px" fill="#000000" text-anchor="middle" style="white-space: pre;" direction="ltr">meilisearch</text></g><g stroke-linecap="round" transform="translate(342.4492108275707 83.44886778871341) rotate(0 85.66665649414062 46.33332824707031)"><path d="M0 0 C0 0, 0 0, 0 0 M0 0 C0 0, 0 0, 0 0 M-0.5 5.62 C0.17 5.83, 1.67 3.8, 4.19 0.68 M-0.05 6.1 C1.27 4.57, 3.07 2.41, 4.72 -0.04 M1.53 12.36 C3 7.36, 6.51 6.43, 12.17 0.65 M0.51 12.23 C3.73 7.02, 7.65 3.36, 10.69 0 M-0.63 19.69 C1.85 15.73, 5.36 10.99, 16.63 2.2 M0.72 17.96 C6.04 11.4, 11.03 6.56, 15.22 0.14 M-0.82 24.98 C7.09 15.28, 12.85 8.7, 23.23 -0.57 M-0.51 24.13 C7.14 16.61, 14.3 8.01, 20.36 0.3 M-1.8 30.45 C7.41 20.05, 12.98 12.19, 25.48 0.02 M-0.27 31.13 C8.14 22.4, 13.73 14.14, 25.58 -0.21 M0.09 37.31 C9.69 27.55, 20.48 13.26, 31.84 0.02 M-0.63 37.25 C9.46 23.85, 21.11 12.07, 31.17 -0.89 M-1.85 41.33 C9.05 31.56, 18.76 22.56, 37.66 -0.89 M0.02 41.53 C11.39 29.18, 23.03 15.74, 37.55 0.44 M-1.72 48.17 C14.39 33.38, 25.18 22.6, 43.35 -0.26 M-0.4 48.4 C13.84 33.07, 27.68 17.3, 43.12 0.01 M0.42 53.24 C12.73 41.96, 25.25 29.41, 45.97 -1.72 M-0.54 54.87 C14.62 37.3, 29.81 21.16, 47.49 0.6 M-1.85 60.87 C16.3 40.36, 37.39 20.87, 53.39 0.08 M-0.27 60.96 C21.16 36.85, 41.86 12.5, 53.38 -0.09 M0.23 68.14 C22.98 41.95, 40.88 18.92, 59.88 -1.34 M0.43 66.92 C14.33 48.6, 29.94 30.77, 57.87 1.09 M1.43 72.29 C12.6 56.27, 28.79 39.57, 64.28 -1.19 M0.12 73.88 C15.66 54.22, 30.78 38.08, 64.25 -0.92 M1.49 78.07 C23.64 52.28, 45.2 26.86, 69.57 -0.31 M0.44 78.57 C20.89 54.29, 42.86 29.33, 69.32 1.11 M-1.46 85.62 C21.84 57.5, 44.09 34.58, 73.05 -1.98 M-0.71 84.47 C29.4 52.14, 59.42 19.04, 75.21 -0.89 M0.79 89.62 C26.23 59.8, 53.57 31.65, 77.9 -0.87 M0.15 92.29 C24.56 59.76, 52.12 29.78, 78.66 0.16 M2.56 96.11 C34.1 57.74, 60.96 22.02, 83.39 0.12 M1.87 94.11 C34.95 57.67, 67.86 18.98, 84.88 -1.06 M9.97 95.9 C31.27 65.45, 55.47 38.61, 88.42 1.02 M7.96 94.1 C33.33 66.78, 57.93 37.86, 90.83 0.13 M11.84 96 C45.32 59.88, 74.9 22.91, 93.7 -0.16 M13.26 95.24 C33.18 70.89, 56.29 45.24, 95.05 -1.13 M17.76 94.16 C47.66 59.79, 80.96 23.13, 101.35 -0.24 M17.61 95.2 C50.05 57.89, 82.84 22.26, 100.95 -0.79 M22.34 93.25 C57.13 57.38, 88.56 21.06, 105.05 0.2 M23.9 94.03 C40.46 73.14, 57.46 53.19, 106.65 0.52 M28.17 96.7 C45.17 73.1, 65.16 51.63, 109.62 0.02 M28.61 94.87 C48.29 70.92, 69.28 47.65, 112.27 -0.04 M35.23 96.29 C64.9 61.63, 94.52 23.51, 116.54 1.31 M34.95 95.13 C60.48 65.01, 85.17 36.25, 117.11 -0.37 M40.56 95.36 C74.43 57.7, 105.67 18.38, 122.83 0.81 M38.26 94.95 C62.62 65.89, 88.15 38.37, 122.23 -0.71 M44.36 95.86 C63.45 75.07, 80.7 53.36, 127.96 1.31 M45.7 95.58 C65.3 68.01, 87.06 43.8, 127.01 1.01 M49.63 93.55 C80.98 62.7, 106.92 29.26, 131.29 -0.55 M49.69 95.89 C73.07 69.26, 95.6 43.76, 132.39 0.42 M56.29 93.05 C84.45 63.11, 111.36 30.97, 135.77 0.92 M55.61 94.74 C72.05 76.3, 90.05 56.34, 138.09 1.08 M60.78 95 C86.16 65.64, 110.52 39.07, 141.98 -0.45 M61.19 95.48 C81.5 71.79, 102.22 48.63, 142.5 -1.04 M66.24 95.21 C86.61 71.2, 107.53 45.85, 147.8 0.44 M66.28 94.33 C91.13 67.62, 114.29 39.51, 147.92 0.85 M70.08 95.74 C96.21 66.32, 121.78 36.35, 154.56 -0.94 M70.18 94.85 C90.27 72.53, 108.68 51.34, 154.44 0.82 M78.14 96.04 C92.72 76.76, 111.02 57.99, 158.58 0.44 M77.47 94.39 C104.79 61.68, 132.8 30.46, 159.22 0.65 M80.3 96.1 C102.49 70.69, 125.9 47.36, 165.39 -1.77 M81.28 94.48 C112.63 58.15, 142.7 24.08, 164.27 0.28 M88.6 95.54 C113.75 64.43, 142.89 32.53, 169.3 1.85 M87.12 95.32 C118.42 57.64, 149.98 22.64, 169.85 0.2 M92.88 96.75 C108.44 76.38, 127.49 56, 173.56 1.88 M92.22 94.19 C120.79 63.41, 148.7 29.21, 172.22 2.22 M98.91 96.02 C124.42 66.5, 148.08 36.45, 173.29 9.43 M97.3 93.88 C118.29 70.55, 138.68 46.12, 174.3 8.07 M103.97 94.66 C123 69.63, 142.05 45.58, 174.23 14.44 M103.91 95.14 C129.44 65.56, 154.87 34, 174.09 13.14 M107.05 94.12 C131.7 69.45, 154.67 41.29, 171.75 21.68 M108.24 95.13 C131.35 68.07, 152.44 42.02, 173.37 19.64 M112.4 95.11 C124.39 80.63, 139.87 65.51, 174.36 25.29 M114.42 93.84 C138.34 68.26, 160.97 40.06, 172.92 26.55 M119.7 92.76 C134.55 74.2, 151.62 55.29, 173.23 32.69 M118.34 94.52 C135.66 74.92, 154.14 54.72, 173.69 32.84 M123.67 95.69 C138.53 76.97, 152.91 62.57, 173.05 39.93 M124.97 94.14 C137.76 77.94, 154.09 61.63, 173.38 38.09 M128.21 93.2 C140.86 83.12, 147.46 72.22, 174.99 43.1 M130.15 93.81 C145.14 76.63, 162.62 56.95, 173.06 45.25 M134 94.32 C147.59 81.32, 158.83 66.72, 174.1 50.16 M133.93 95.24 C146.61 82.49, 156.81 68.81, 174.31 49.75 M139.98 95.75 C146.57 86.19, 155.36 76.48, 175.01 56.13 M139.7 95.88 C150.23 81.77, 160.44 70.25, 172.51 56.02 M146.27 93.2 C154.69 83.95, 168.25 72.18, 173.34 62.88 M144.83 95.66 C155.41 85.31, 163.57 73.55, 174.03 62.62 M149.05 96.79 C159.54 85.11, 166.83 74.88, 174.63 70.57 M151.18 95.67 C154.38 90.52, 160.91 84.08, 172.82 68.93 M158.05 94.88 C162.71 87.28, 168.64 82.16, 173.25 77 M156.36 95.31 C162.02 88.4, 166.7 83.56, 173 75.87 M160.23 93.34 C164.26 87.87, 170.86 84.28, 173.84 81.47 M160.96 94.77 C165.83 91.47, 169.09 87.12, 173.97 81.04 M166.22 94.43 C169.9 91.35, 170.15 89.64, 174.2 87.58 M166.59 95.03 C168.51 92.79, 169.44 90.9, 173.61 87.2" stroke="#868e96" stroke-width="0.5" fill="none"></path><path d="M-1.37 1.28 C43.95 -2.69, 88.55 0.34, 171.54 1.94 M-0.03 0.33 C48.06 -0.91, 97.92 -1.56, 170.54 0.64 M169.71 1.41 C171.99 19.19, 169.28 40.34, 172.01 91.17 M171.8 0.72 C169.69 36.91, 171.31 72.74, 170.6 91.76 M169.58 91.73 C126.7 95.59, 84.12 92.14, 1.27 91.12 M171.83 93.46 C124.53 93.41, 77.55 93.45, -0.77 92.05 M-1.93 90.76 C0.85 62.08, -0.11 28.21, -1.19 -1.7 M-0.8 93.56 C-1.15 64.09, 0.28 34.3, 0.51 -0.75" stroke="#000000" stroke-width="1" fill="none"></path></g><g transform="translate(400.61586732171133 118.28219603578373) rotate(0 27.5 11.5)"><text x="27.5" y="18" font-family="Helvetica, Segoe UI Emoji" font-size="20px" fill="#000000" text-anchor="middle" style="white-space: pre;" direction="ltr">github</text></g><g stroke-linecap="round"><g transform="translate(58.75220044049706 126.36170414249841) rotate(0 135.5012285886162 -0.10860822602296594)"><path d="M-0.67 0.77 C44.79 0.95, 226.22 0.98, 271.68 0.75 M1.17 0.13 C46.57 -0.02, 225.67 -1.16, 270.72 -1.13" stroke="#000000" stroke-width="1" fill="none"></path></g><g transform="translate(58.75220044049706 126.36170414249841) rotate(0 135.5012285886162 -0.10860822602296594)"><path d="M243.85 9.19 C249.21 7.82, 252.88 6.07, 268.86 -1.22 M242.81 9.34 C248.79 7.7, 255.44 5.26, 270.44 -1.13" stroke="#000000" stroke-width="1" fill="none"></path></g><g transform="translate(58.75220044049706 126.36170414249841) rotate(0 135.5012285886162 -0.10860822602296594)"><path d="M243.78 -11.33 C249.1 -8.43, 252.78 -5.89, 268.86 -1.22 M242.74 -11.18 C248.72 -8.38, 255.38 -6.38, 270.44 -1.13" stroke="#000000" stroke-width="1" fill="none"></path></g></g><g transform="translate(147.78252381585196 92.44886778871341) rotate(0 44.5 13.5)"><text x="0" y="22" font-family="Helvetica, Segoe UI Emoji" font-size="20px" fill="#000000" text-anchor="start" style="white-space: pre;" direction="ltr">push 文章</text></g><g stroke-linecap="round" transform="translate(717.1158368041332 77.44883727113529) rotate(0 105 49.333343505859375)"><path d="M0 0 C0 0, 0 0, 0 0 M0 0 C0 0, 0 0, 0 0 M-0.93 6.14 C0.96 5.22, 2.65 3.82, 5.41 -0.07 M-0.16 6.49 C1.65 4.16, 3 2.47, 4.97 -0.02 M0.07 12.17 C4.11 10.12, 4.62 6.46, 9.85 1.05 M0.59 12.83 C3.98 7.55, 8.3 2.58, 10.87 0.51 M-0.53 19 C5.2 14.27, 7.83 6.6, 16.51 -1.15 M0.67 18.81 C6.08 11.13, 11.96 6.39, 16.46 -0.17 M0.78 25.37 C5.05 18.94, 11.52 12.38, 20.35 1.11 M0.28 24.91 C7.7 16.29, 15.88 6.29, 21.96 -0.37 M0.09 30.1 C10.96 19.26, 18.3 6.75, 24.69 0.77 M0.09 30.51 C10.79 18.45, 21.37 6.4, 26.04 0.11 M-1.16 35.1 C5.39 28.43, 15.04 18.57, 33.21 0.75 M-0.07 36.39 C11.48 23.71, 23.43 9.59, 31.1 -0.85 M-0.98 40.6 C10.48 33.42, 17.45 24, 37.6 1.19 M-0.67 41.68 C11.31 30.68, 22.22 18.47, 36.59 1.14 M-1.72 48.25 C15.47 30.54, 28.74 15.82, 43.92 -1.77 M-0.01 48.75 C10.96 35.69, 24.38 21.77, 42.66 -0.57 M-0.33 52.73 C16.51 34.71, 32.52 14.83, 48.53 -1.05 M0.83 54.44 C16.1 36.95, 31.42 20.34, 47.36 0.98 M-0.49 60.66 C9.24 49.1, 21.09 35.15, 52.42 0.22 M-0.83 60.69 C12.12 48.1, 23.73 35.24, 52.32 -1.14 M1.11 66.18 C19.31 47.34, 36.04 27.33, 57.11 -0.44 M-0.27 67.8 C19.63 45.47, 39.97 22.3, 57.94 0.86 M1.91 74.1 C15.36 55.66, 29.12 40.61, 63.01 -1.93 M-0.83 73.29 C15.74 54.71, 30.89 38.68, 63.08 0 M0.67 79.04 C16.72 61.14, 33.61 42.23, 69.3 -0.77 M0.48 78.68 C18.66 57.38, 37.49 36.04, 68.25 -0.84 M-0.83 85.02 C26.85 54.02, 49.88 23.58, 76.28 -0.18 M0.06 84.81 C26.28 56.42, 50.27 29.08, 75.29 -0.45 M-1.94 92.36 C28.37 56.36, 61.55 24.05, 81.32 0.83 M0.89 92.41 C18.46 70.3, 36.44 49.33, 78.57 -0.61 M-1.38 97.3 C34.68 57.64, 67.71 21.13, 85.14 -1.77 M-0.42 97.4 C32.78 61.14, 64.12 22.44, 84.65 0.36 M4.54 100.1 C33.58 64.3, 66.76 27.98, 91.76 1.95 M3.42 100.7 C29.28 70.75, 56.3 38.05, 89.51 0.26 M7.78 102.22 C38.49 66.27, 72.62 27.13, 94.81 -1.31 M7.64 101.08 C27.34 80.71, 45.68 58.92, 96.19 -0.54 M13.68 102.66 C36.18 73.89, 59.81 47.31, 101.48 -1.15 M11.8 101.17 C36.93 74.35, 59.67 46.67, 100.03 -0.4 M17.35 99.08 C51.55 63.79, 85.31 27.64, 106.82 -0.67 M17.44 100.33 C48.88 66.77, 77.33 33.78, 106.3 0.02 M24.21 101.94 C41.87 77.9, 60.94 53.86, 109.67 -1.51 M24 100.41 C48.12 73.6, 72.71 44.22, 111.44 0.41 M27.67 102.1 C54.43 69.99, 79.59 42.48, 114.36 -0.3 M29.78 101.07 C62.98 60.85, 98.59 23.49, 116.05 0.11 M33.05 101.74 C68.06 62.39, 100.87 25.88, 121.84 -1.5 M33.2 100.38 C62.09 70.07, 87.78 39.71, 121.38 0.86 M39.96 101.17 C63.38 70.55, 87.88 42.08, 128.89 1.76 M40.43 101.33 C69.37 66.51, 99.66 31.92, 127.81 -0.29 M46.13 101.79 C70.05 69.89, 96.28 41.54, 133.8 -0.78 M44.6 100.44 C71.89 69.14, 101.24 35.59, 131.86 0.26 M49.81 100.87 C76.93 69.79, 106.94 37.03, 136.24 -1.56 M49.5 100.28 C73.15 74.09, 96.44 49.91, 137.36 1.23 M53.65 102.51 C76.07 79.81, 94.5 57.74, 143.67 -0.35 M54.75 100.09 C86.01 63.22, 117.28 28.79, 143.19 -0.94 M59.08 100.46 C78.25 77.73, 98.71 55.92, 147.18 -1.39 M61.47 100.28 C89.71 68.35, 118.47 35.87, 148.43 0.45 M66.16 101.01 C98.49 63.34, 132.07 25.68, 151.89 1.5 M65.51 101.03 C84.68 78.56, 104.58 57.7, 154.06 -1.09 M71.97 101.89 C107.31 59.63, 138.57 22.95, 156.81 -0.2 M71.12 100.83 C94.17 76.43, 115.74 50.23, 158.14 -0.66 M78.49 99.1 C101.6 72.84, 124.12 45.18, 165.21 1.15 M76.12 101.07 C106.23 67.5, 135.08 33.56, 163.5 0.58 M82.97 101.81 C116.72 64.04, 148.95 26.49, 168.53 0.25 M81.62 100.57 C104.66 75.98, 127.23 49.15, 168.93 0 M85.8 99.24 C106.13 79.08, 125.55 56.06, 176.71 1.7 M87.15 100.2 C118.09 64.12, 151.84 25.66, 174.87 0.01 M92.9 99.54 C111.83 79.99, 129.72 59.74, 178.07 -1.11 M92.44 101.34 C116.51 74.96, 139.3 48.68, 180.59 0.69 M99.57 100.62 C133.43 63.57, 167.37 23.65, 185.74 0.89 M98.52 100.56 C132.21 61.86, 165.99 23.63, 185.89 0.29 M104.89 101.09 C129.37 71.35, 159.25 39.2, 189.46 -0.68 M103.44 100.09 C133.09 66.01, 163.48 32.9, 190.25 -0.16 M107.57 99.09 C140.29 65.54, 168.27 34.21, 198.01 -0.82 M107.47 100.44 C132.3 73.19, 157.21 45.77, 196.6 -0.32 M112.36 99.17 C130.67 79.49, 151.01 55.77, 203.04 1.83 M114.77 100.94 C132.99 77.83, 154.65 53.51, 200.39 0.04 M117.9 99.2 C150.43 68.33, 175.62 35.91, 205.51 -0.28 M118.61 100.31 C148.64 68.21, 175.29 34.98, 207.4 -0.42 M123.08 101.17 C158.51 61.94, 191.2 24.96, 210.82 0.16 M124.98 101.19 C143.64 77.78, 164.43 54.32, 212.17 0.76 M130.97 102.17 C161.55 65.7, 191.71 29.08, 211.99 7.87 M129.88 100.77 C148.56 78.08, 169.06 55.17, 210.47 8.1 M134.46 101.92 C166.39 66.67, 196.04 33.26, 212.57 14.56 M134.27 102.03 C160.15 72.09, 185.38 42.81, 211.57 13.46 M139.49 101.94 C154.97 82.74, 170.59 65.08, 212.71 21.14 M140.58 100.59 C165.5 69.79, 192.65 40.8, 211.54 19.94 M144.17 100.68 C158.18 85.63, 173.8 67.51, 210.77 24.81 M145.16 101.53 C160.44 82.52, 176.67 62.86, 210.27 26.63 M152.5 101.11 C175.58 74.77, 195.29 50.5, 210.53 30.19 M151.33 100.69 C166.27 82.17, 182.37 64.34, 211.95 31.45 M154.25 101.64 C172.34 80.84, 188.96 62.25, 212.32 36.45 M156.55 101.21 C167.3 86.92, 178.88 73.87, 211.46 37.96 M163.34 98.97 C180.02 78.21, 199.09 57.39, 210.72 44.91 M162.12 100.14 C173.65 85.14, 188.08 71.03, 211.48 42.66 M165.71 102.96 C175.78 90.16, 189.08 74.16, 210.48 49.97 M166.34 100.97 C183.47 83.16, 199.34 64.68, 211.65 49.57 M173.68 99.51 C182.28 89.73, 189.88 79.37, 212.18 54.65 M172.25 100.19 C184.63 84.45, 198.28 70.04, 211.6 55.51 M177.85 101.45 C184.51 90.89, 191.96 84.89, 211.46 61.78 M176.77 101.88 C190.03 86.44, 202.36 72.14, 211.4 60.96 M181.47 99.4 C194.19 87.34, 204.53 74.38, 210.1 69.14 M182.41 100.23 C191.8 90.95, 200.49 78.84, 210.08 68.85 M188.31 100.64 C195.57 95.19, 199.05 85.5, 209.79 73.01 M188.43 100.15 C196.79 90.58, 206.48 80.25, 210.59 73.82 M193.01 100 C197.34 92.99, 203.74 87.6, 212 79.1 M192.58 99.79 C200.06 93.82, 207.05 84.31, 211.05 80.91 M197.08 102.64 C202.61 96.02, 206.31 90.59, 211.63 86.21 M198.25 101.14 C201.37 96.97, 205.71 92.58, 211.73 86.73 M203.43 99.89 C206.32 97.99, 208.09 95.06, 211.9 92.76 M204.11 100.58 C206.94 97.61, 209.04 94.68, 211.51 92.32" stroke="#868e96" stroke-width="0.5" fill="none"></path><path d="M1.02 -0.06 C60.87 0.35, 119.25 0.41, 210.02 -0.47 M-0.41 0.11 C75.91 -0.66, 150.59 -0.37, 210.64 0.71 M208.64 -0.22 C209.59 39.82, 210.27 75.17, 208.08 98.41 M209.6 -0.51 C210.24 22.02, 210.57 44.06, 210.59 98.47 M211.06 99.68 C128.9 100.24, 49.1 98.06, 0.33 99.34 M209.55 99.13 C163 99.78, 116.71 99.2, -0.64 98.74 M1.51 97.82 C1.64 69.68, 0.44 38.07, -1.76 0.27 M0.65 98.49 C-1.3 68.9, -1.25 38.51, 0.62 0.67" stroke="#000000" stroke-width="1" fill="none"></path></g><g transform="translate(784.6158368041332 115.28218077699466) rotate(0 37.5 11.5)"><text x="37.5" y="18" font-family="Helvetica, Segoe UI Emoji" font-size="20px" fill="#000000" text-anchor="middle" style="white-space: pre;" direction="ltr">github.io</text></g><g stroke-linecap="round"><g transform="translate(525.782523815852 132.11552428285404) rotate(0 86.66299544498327 0.11109055161932702)"><path d="M-0.36 -1.1 C28.39 -1, 144.81 -0.3, 173.69 -0.14 M1.65 0.94 C30.12 1.29, 143.64 1.29, 172.57 1.32" stroke="#000000" stroke-width="1" fill="none"></path></g><g transform="translate(525.782523815852 132.11552428285404) rotate(0 86.66299544498327 0.11109055161932702)"><path d="M142.55 11.04 C155.38 5.77, 166.58 4.54, 171.31 1.6 M144.25 12.06 C149.76 10.26, 156.05 7.02, 173.33 0.33" stroke="#000000" stroke-width="1" fill="none"></path></g><g transform="translate(525.782523815852 132.11552428285404) rotate(0 86.66299544498327 0.11109055161932702)"><path d="M142.56 -9.48 C155.27 -6.61, 166.46 0.3, 171.31 1.6 M144.27 -8.46 C149.82 -6, 156.11 -5, 173.33 0.33" stroke="#000000" stroke-width="1" fill="none"></path></g></g><g transform="translate(587.1158368041332 99.11552428285404) rotate(0 20 13.5)"><text x="0" y="22" font-family="Helvetica, Segoe UI Emoji" font-size="20px" fill="#000000" text-anchor="start" style="white-space: pre;" direction="ltr">部署</text></g><g stroke-linecap="round" transform="translate(346.4492108275707 281.94892882386966) rotate(0 294.3333740234375 31.333328247070312)"><path d="M0 0 C0 0, 0 0, 0 0 M0 0 C0 0, 0 0, 0 0 M-0.29 6.44 C1.07 4.61, 3.38 2.48, 5.58 -0.43 M-0.59 6.25 C1.32 4.91, 2.34 3.36, 5.2 0.58 M0.74 13.47 C3.5 9.13, 8.85 5.07, 11.14 0 M-0.57 12.62 C3.48 7.8, 7.15 3.13, 11.23 0.12 M-1.15 19.89 C5.97 10.87, 12.92 6.9, 17.07 -0.9 M0.3 18.44 C3.47 13.44, 7.34 10.02, 15.37 -0.11 M-1.37 23.24 C4.08 19.24, 10.16 10.53, 23.19 1.61 M0.22 23.13 C5.62 17.35, 11.64 11.69, 21.32 0.2 M1.46 28.78 C6.68 20.05, 16.78 12.89, 25.03 2.02 M0.69 31.19 C10.83 17.94, 21.31 8.07, 25.6 -0.63 M-1.77 35.73 C7.45 28.26, 18.27 13.99, 32.11 -1.56 M0.04 36.44 C8.82 26.73, 18.99 14.13, 31 0.34 M0.37 40.91 C11.12 31.73, 19.7 19.98, 35.79 -0.22 M-0.12 42.81 C11.01 30.51, 19.9 20.27, 35.96 1.14 M-1.27 50.21 C13.33 34.55, 25.4 18.58, 43.32 0.82 M-0.34 49.12 C14.31 31.86, 28.52 16.15, 42.48 -0.69 M1.11 54.35 C18.85 34.66, 37.04 12.98, 49.5 1.37 M-0.17 54.17 C19.15 33.77, 36.32 12.64, 47.35 0.37 M-0.16 60.14 C20.74 37.64, 39.31 15, 54.81 1.37 M-0.82 61.23 C20.3 35.61, 40.56 11.98, 54.01 0.2 M3.9 63.21 C23.01 39.91, 44.98 18.02, 56.99 0.06 M2.61 64.21 C17.46 46.67, 31.89 29.93, 57.84 -0.44 M7.87 66.26 C29.7 41.06, 51.7 12.59, 65.23 -0.97 M7.78 65.09 C21.35 48.29, 35.05 32.73, 63.98 0.45 M14.2 62.63 C31.15 44.27, 46.98 24.38, 67.76 1.44 M13.05 64.93 C26.93 48.64, 39.45 33.21, 68.65 0.58 M16.64 66.44 C34.18 43.17, 53.1 22.27, 73.96 -0.95 M18.61 65.21 C39.05 39.18, 60.67 16.04, 74.94 -0.19 M23.12 63.42 C38.79 47.45, 51.63 34.74, 78.02 -0.57 M23.04 64.06 C40.5 44.96, 58.49 24.6, 80.15 0.61 M27.33 66.11 C43.81 47.05, 60.5 26.92, 85.03 1 M28.63 64.69 C40.55 48.79, 53.12 34.27, 85.58 0.42 M34.93 64.9 C48.52 49.03, 59.64 33.99, 90.65 0.24 M35.17 63.82 C51.46 45.48, 67.28 26.2, 89.87 0.19 M39.07 63.24 C49.72 50.52, 62.86 35.47, 95.19 -1.25 M39.26 64.17 C58.35 41.89, 79.17 18.9, 94.77 -1.27 M46.62 64.69 C65.29 42.2, 87.44 16.11, 99.25 -1.59 M44.16 64.81 C57.99 47.58, 73.09 31.61, 100.5 -0.8 M49.7 64.11 C66.18 43.59, 82.39 25.03, 105.85 0.48 M49.06 63.68 C62.32 48.32, 77.81 32.64, 105.53 -0.46 M55.21 63.49 C76.91 40.22, 96.64 15.08, 112.06 0.78 M54.25 64.71 C70.69 45.6, 86.7 27.95, 111.9 0.88 M59.71 63.32 C76.85 44.84, 94.84 24.49, 114.46 1.46 M59.74 64.56 C79.45 43.06, 98.69 19.95, 116.37 0.76 M64.36 66.03 C82.4 45.85, 98.95 25.01, 120.04 -1.5 M65.81 65.29 C81.5 45.68, 97.42 28.42, 121.04 -0.21 M72.33 63.77 C85.25 47.16, 98.62 32.28, 125.13 0.99 M70.19 63.51 C83.4 51.18, 95.01 35.71, 125.93 0.36 M76.47 65.64 C98.65 38.74, 117.26 14.49, 132.84 -0.95 M75.37 64.91 C89.08 50.05, 102.74 34.5, 132.1 -0.17 M81.43 64.69 C101.47 41.75, 120.08 22.06, 136.7 -1.05 M82.43 64.57 C101.61 41.78, 122.45 18.34, 137.04 0.95 M87.28 65.19 C100.17 50.26, 114.51 33.51, 142.78 -1.79 M86.31 65.53 C105.61 45.73, 121.72 24.45, 142.39 0.29 M91.6 65.61 C114.66 41.27, 137.45 15.4, 149.32 0.78 M91.65 65.12 C104.3 51.19, 117.23 36.68, 147.34 0.7 M97.19 65.86 C119.44 41.03, 138 16.89, 152.87 0.08 M98.12 65.46 C117.66 41.2, 138.14 18.74, 154.37 -0.26 M102.1 66.36 C118.22 49.95, 131.98 30.39, 159.87 2.22 M102.2 63.88 C122.29 43.11, 142.39 19.15, 158.63 0.13 M107.33 63.17 C122.37 50.43, 132.53 33.61, 164.81 1.06 M108.5 65.35 C120.13 49.54, 133.1 35.19, 163.68 0.14 M114.88 63.12 C136.14 39.27, 155.95 14.93, 169.88 1.35 M113.58 64.92 C127.74 47.75, 143.92 30.07, 168.86 0.1 M119.48 62.93 C136.25 44.9, 149.97 26.27, 175.01 -2.13 M119.26 64.19 C131.43 51.11, 142.71 37.71, 175.08 0.78 M122.59 64.34 C139.3 45.55, 159.56 26.87, 181.58 -1.46 M124.44 63.67 C146.26 39.78, 168.35 15.24, 180.14 -0.16 M128.12 65.25 C146.15 42.38, 167.34 23.38, 186.52 -0.46 M128.39 65.31 C144.47 47.71, 157.9 30.37, 186.53 0.28 M136.54 62.81 C148.69 49.8, 162.62 34.46, 189.91 0.47 M134.59 64.87 C153.24 44.18, 170.73 23.35, 190.75 0.88 M140.44 64.58 C159.48 39.43, 183.83 13.61, 197.12 -0.58 M140.03 64.39 C157.77 44.6, 176.23 23.49, 197.11 0.63 M146.75 63.63 C166.02 43.19, 185.4 17.89, 202.46 0.15 M145.02 64.63 C163.82 42.33, 183.78 21.34, 201.09 -0.86 M152.29 65.67 C166.71 48.41, 183.62 29.89, 207.27 -0.83 M150.49 65.47 C172.22 38.55, 194.5 13.67, 207.08 -0.86 M157.93 64.19 C173.34 42.53, 193.06 21.7, 211.54 0.89 M155.83 64.39 C172.47 45.42, 188.63 24.83, 211.76 0.86 M160.21 63.58 C178.52 44.45, 194.2 24.42, 216.09 0.75 M160.2 64.89 C179.66 44.79, 196.16 23.7, 217.84 0.48 M164.81 62.99 C186.62 44.17, 202.07 21.03, 222.12 0.32 M165.66 65.69 C187.98 41.12, 208.6 15.22, 223.47 0.6 M173.44 63.7 C188.07 47.47, 204.24 27.64, 229.41 -1.55 M171.79 65.38 C190.94 41.81, 211.15 18.44, 227.96 -1.35 M178.78 64.53 C193.3 44.43, 211.42 25.6, 231.89 -1.63 M176.26 65.16 C192.4 46.47, 208.49 29.04, 233.14 -0.68 M181.9 65.7 C201.23 43.14, 222.62 17.54, 239.11 -0.39 M182.02 63.99 C193.18 50.68, 204.64 37.21, 238.49 -0.23 M187.94 63.93 C200.83 53.23, 211.66 38.95, 243.18 1.31 M186.57 65.03 C201.87 47.8, 216.92 31.8, 243.79 0.28 M192.19 63.59 C216.87 40.14, 237.96 14.79, 249.68 1.64 M193.8 64.11 C205.36 50.79, 218.86 37.02, 249.64 1.01 M199.75 63.83 C212.35 47.08, 226.93 31.51, 255.07 1.68 M197.33 64.12 C214.16 47.46, 229.95 29.48, 254.64 -0.91 M203.62 65.68 C221.77 42.84, 238.62 22.91, 258.36 0.51 M204.23 63.49 C223.94 41.07, 243.4 17.67, 258.76 1.17 M208.35 63.2 C223.16 50.79, 233.88 36.92, 263.26 -1.64 M208.45 64.59 C222.58 47.68, 238.48 29.21, 265.05 -0.28 M216.17 62.6 C226.86 49.95, 241.78 34.19, 269.74 -0.25 M214.53 64.21 C227.31 49.77, 240.66 34.5, 271.05 -0.37 M218.57 65.34 C237.79 41.57, 259.81 20.27, 276.19 0.56 M219 63.95 C233.5 46.88, 249.05 30.6, 276.53 0.48 M226.5 63.28 C244.92 39.87, 266.9 15.16, 279.07 -0.79 M224.1 64.7 C239.7 46.91, 256.34 28.08, 280.86 1.12 M229.92 65.82 C245.53 50.47, 257.86 32.42, 286.97 -0.25 M229.19 65.05 C243.63 47.41, 257.84 32.4, 286.76 0 M235.97 62.98 C248.1 50.5, 260.65 33.75, 292.3 -0.96 M236.48 63.74 C256.04 40.46, 276.35 16.21, 291.68 -0.3 M240.6 64.57 C260.89 40.17, 282.35 16.87, 297.39 1.77 M240.4 64.09 C259.3 41.27, 279.23 19.35, 297.56 -0.72 M246.64 63.26 C256.28 52.09, 270.51 37.52, 302.09 -0.29 M245.38 64.44 C257.16 50.1, 270.27 36.05, 302.17 0.8 M251.5 65.79 C274.57 41.26, 293.57 14.02, 305.93 -1.27 M251.17 64.6 C261.96 51.71, 273.43 38.64, 306.91 -0.33 M257.24 64 C274.61 43.96, 292.18 24.15, 311.74 2.01 M256.66 64.26 C276.69 41.23, 295.96 19.92, 312.15 -0.84 M262.2 66.03 C283.78 40.79, 303.75 15.69, 319.77 1.08 M261.18 65.47 C272.51 51.6, 284.59 38.4, 318.97 -1.18 M267.17 63.39 C288.2 42.42, 306.64 19.75, 323.29 -0.98 M268.32 65.01 C286.97 40.01, 309.2 17.87, 322.58 0.9 M270.97 66.13 C285.21 49.67, 300.22 35.56, 330.76 1.56 M273.27 64.92 C286.37 47.32, 302.03 29.49, 328.02 -1.22 M276.57 65.92 C296.84 42.35, 314.01 23.58, 333.42 0.17 M278.55 64.83 C292.1 45.33, 308.72 27.8, 333.58 -0.55 M282.75 63.23 C296.75 46.66, 312.94 30.16, 339.45 -0.77 M283.44 64.52 C297.88 48.26, 311.35 31.07, 338.53 -0.1 M289.55 63.16 C305.61 43.31, 324.33 21.87, 345.54 -0.84 M289.02 64.98 C305.96 43.52, 323.29 24.8, 344.45 -0.4 M293.19 62.83 C304.94 49.09, 317.42 38.72, 350.41 0.24 M292.86 65.18 C312.19 44.14, 330.6 22.15, 350.44 -0.35 M296.93 66.74 C320.61 39.33, 341.37 15.51, 353.71 -1.97 M299.53 64.77 C319.1 41.1, 340.42 17.25, 355.62 -0.51 M304.61 62.68 C316.66 50.77, 327.38 39.44, 358.89 -1.25 M303.83 65.17 C318.87 48.62, 331.65 32.1, 359.83 -0.42 M308.21 64.84 C330.38 42.44, 349.17 18.1, 366.7 -0.87 M310.05 64.14 C327.65 44.07, 346.59 21.25, 366.68 0.58 M314.03 64.9 C325.84 51.64, 338.76 39.14, 370.82 1.53 M315.82 64.09 C329.54 48.25, 342.78 32.43, 370.96 -0.17 M318.25 63.22 C340.11 40.37, 360.75 17.71, 375.97 1.1 M319.39 64.61 C341.71 39.85, 364.31 14.28, 376.39 -0.29 M325.14 63.89 C345.66 39.27, 368.93 16.22, 381.52 0.89 M325.47 64.87 C345.23 43.49, 364.04 22.42, 380.93 0.16 M330.61 65.93 C348.06 42.55, 367.43 19.57, 387.65 -1.07 M330.5 64.06 C349.2 45.81, 366.24 24.54, 386.64 -0.96 M336.35 66.36 C354.45 45.49, 369.86 24.85, 390.96 -0.56 M336.54 63.81 C348.23 50.86, 360.89 37.45, 392.96 0.64 M341.5 63.36 C358.23 43.64, 378.81 20.65, 398.57 -0.11 M340.5 64.68 C358.3 45.48, 374.89 27.18, 398.51 0.06 M348.72 63.35 C360.06 50.54, 371.34 34.11, 403.8 2.14 M345.99 64.54 C367.83 42.14, 387.77 18.06, 402.44 -0.3 M351.86 64.19 C370.16 42.38, 389.26 21.44, 408.25 -0.42 M352.64 65.04 C363.52 49.81, 377.37 35.51, 408.21 -0.36 M358.03 66.21 C374.41 42.23, 394.09 21.62, 413.42 0.23 M357.89 64.04 C377.11 41.7, 397.62 17.88, 412.92 0.13 M363.29 63.43 C377.85 47.7, 392.84 28.15, 418.88 -2.1 M362.34 64.04 C382.34 40.42, 403.35 18.3, 419.12 -0.03 M366.72 62.59 C385.12 47.5, 399.99 27.65, 425.86 -0.72 M367.51 64.62 C387.54 42.88, 406.6 20.26, 424.11 1.02 M374.08 66.38 C392.23 42.01, 412.37 17.95, 431.37 -0.92 M373.2 64.9 C386.07 49.19, 400.1 33.28, 429.76 0.58 M379.93 64.46 C396.06 45.69, 411.45 27.39, 435.84 -0.84 M379.26 63.95 C399.19 40.27, 420.78 15.01, 433.86 -0.15 M383.23 64.68 C402.71 44.53, 419.78 26.26, 441.27 -0.36 M382.93 65.23 C395.49 51.32, 408.42 36.36, 439.84 0.36 M389.49 64.11 C403.41 47.62, 419.8 30.12, 446.8 2.05 M388.68 65.04 C403.9 46.79, 418.19 30.28, 444.19 0.42 M394.4 64.25 C417.5 40.09, 436.94 14.66, 450.87 0.43 M393.45 64.95 C409.76 47.7, 425.9 29.84, 450.19 -0.46 M401.26 66.87 C415.35 46.24, 430.53 31.25, 454.84 0.47 M399.85 64.99 C418.93 42.81, 437.32 22.17, 455.27 0.88 M403.94 65.37 C424.71 43.47, 444.26 20.09, 461.11 -1.38 M404.78 64.33 C418.51 49.43, 430.22 34.02, 460.81 -0.32 M409.75 64.16 C430.96 40.74, 454.48 13.92, 464.75 1.23 M409.96 63.99 C424.48 49.9, 436.74 34.49, 465.43 -0.28 M416.92 62.57 C430.47 47.1, 447.81 26.91, 470.97 0.42 M415.13 63.99 C437.21 41.66, 456.19 18.28, 472.2 0.46 M422.2 65.95 C438.59 43.77, 460.59 21.11, 478.02 1.44 M421.37 65.82 C443.97 38.11, 465.15 14.34, 477.16 -0.23 M427.05 64.75 C448.32 40.74, 470.08 14.7, 480.09 2.1 M426.87 64.88 C446.7 42.63, 465.79 20.03, 481.99 0.61 M433.19 65.76 C448.31 46.71, 464.76 25.75, 488.81 0.56 M430.29 64.89 C450.54 43.25, 468.95 21.96, 487.1 0.21 M436.76 63.09 C459.39 42.19, 479.47 16.94, 492.84 -1.48 M436.52 64.32 C455.87 43.43, 473.82 23.12, 492.99 0.5 M439.97 65.44 C463.53 43.23, 483.15 20.03, 500 0.32 M442.04 64.9 C459.51 43.36, 477.13 23.18, 498.04 0.57 M449.16 63.1 C461.74 46.07, 477.13 29.41, 504.91 0.08 M446.73 63.95 C461.64 47.69, 475.09 31.4, 503.83 1.07 M454.5 63.15 C469.13 47.34, 485.68 27.47, 507.12 0.8 M453.14 64.93 C473.18 42.41, 491.7 17.98, 508.94 0.71 M460.05 64.58 C470.84 49.59, 482.09 37.06, 514.7 1.51 M458.35 63.77 C476.3 44.21, 493.77 23.87, 514.29 0.62 M463.42 65.37 C480.52 43.77, 498.25 25.28, 518.41 0.37 M463.24 65.39 C484.98 39.36, 507.11 14.59, 518.91 -1.16 M469.9 65.65 C486.15 45.83, 502.66 28.13, 523.28 1.83 M468.35 64.1 C487.57 39.59, 508.12 17.77, 525.3 0.76 M472.06 62.86 C492.55 43.35, 509.82 22.77, 530.78 -0.29 M473.15 64.05 C489.92 46.74, 506.63 28.08, 529.21 -0.48 M479.9 62.77 C494.22 49.21, 504.37 32.44, 534.42 0.38 M479.88 63.63 C492.07 49.05, 506.21 31.76, 534.96 0.49 M484.44 62.73 C498.05 50.05, 510.89 32.34, 541.85 -2.16 M484.84 63.99 C500.02 47.76, 514.47 31.48, 541.27 -0.35 M491.89 62.68 C510.91 39.54, 528.82 18.13, 546.56 0.84 M490.23 63.39 C505.08 46.54, 519.97 30.36, 546.53 0.11 M495.24 64.38 C505.86 51.01, 521.45 36.62, 549.92 0.05 M495.44 63.68 C507.65 48.51, 521.16 32.97, 550.66 0.46 M500.42 62.45 C514.3 48.29, 531.66 26.88, 556.85 -0.84 M500.86 64.73 C521.16 40.08, 541.26 18.62, 556.4 -0.71 M505.87 63.54 C525.47 45.91, 541.73 24.69, 561.95 -2.01 M505.23 64.88 C523.44 44.16, 540.1 24.06, 561.12 -0.45 M512.73 65.44 C528.19 45.73, 544.19 27.27, 565.12 -0.37 M511.38 63.36 C526.78 45.1, 543.59 26.63, 566.15 -0.96 M516.4 64.23 C536.45 37.14, 561.63 14.36, 573.64 1.58 M515.64 64.75 C533.17 44.75, 547.83 27.38, 572.55 -1.16 M520.08 66.11 C537.45 48.83, 549.92 31.49, 577.87 -1.15 M520.9 64.11 C536.41 47.47, 551.86 29.84, 578.48 -0.28 M525.6 62.8 C544.79 45.14, 560.17 22.67, 584.67 -0.17 M527.28 63.74 C543.96 45.51, 559.92 26.28, 582.32 1.35 M532.39 62.94 C548.99 43.73, 569.52 23.16, 588.32 1.71 M532.66 65.85 C551.2 44.31, 568.93 23.14, 589.28 -1 M538.91 63.91 C557.72 42.22, 574.9 21.72, 591.45 4.07 M537.88 63.69 C550.15 50.6, 563.3 35.08, 592 2.47 M542.3 63.01 C562.24 44.9, 576.2 24.91, 593.13 9.75 M542.06 64.08 C558.19 46.99, 575.39 27.56, 592.36 8.25 M548.48 64.53 C556.04 53.81, 569.46 41.26, 592.48 15.46 M548.37 63.76 C560.95 48.82, 574.91 33.26, 590.72 15.45 M551.8 62.93 C564.45 50.28, 579.43 36.92, 590.17 20.72 M553.36 63.89 C567.51 47.71, 583.25 30.26, 591.19 20.06 M557.14 65.93 C568.67 55.82, 577.64 46.09, 590.71 27.39 M558.8 64.45 C568.66 54.37, 576.49 42.82, 591.53 25.79 M563.56 65.65 C573.84 52.07, 582.79 41.6, 593.28 31.18 M562.94 64.7 C570.5 57.01, 577.42 49.06, 591.71 32.87 M570.4 65.72 C579.67 54.94, 585.87 45.96, 593.26 37.36 M570.38 63.61 C578.9 54.79, 586.11 43.08, 591.09 39.13 M572.92 64.42 C579.89 59.53, 584.34 52.91, 589.78 44.04 M575.35 64.3 C580.04 58.89, 583.38 53.23, 591.75 44.52 M580.39 65.58 C583.02 60.72, 585.13 55.25, 591.25 50.17 M579.59 64.43 C584.28 60, 586.18 55.76, 591.54 52.12 M584.51 63.76 C588.15 63.03, 588.99 59.61, 590.95 57.47 M585.17 64.75 C586.72 62.45, 588.3 60.31, 591.3 57.28" stroke="#fab005" stroke-width="0.5" fill="none"></path><path d="M-0.63 0.11 C187.38 -1.13, 374.62 -0.92, 588.69 -0.77 M0.3 -0.15 C224.29 0.62, 448.53 1.03, 588.98 0.1 M588.83 0.43 C590.52 14.22, 587.73 23.97, 589.87 60.68 M587.94 -0.42 C588.59 18.41, 589.07 35.24, 588.67 62.02 M588.58 63.45 C464.11 61.21, 340.8 60.62, -0.29 62.98 M588.36 62.51 C373.49 64.29, 158.16 64.03, -0.08 62.29 M0.16 63.47 C0.8 40.79, 0.15 17.39, 0.08 -0.89 M-0.72 62.11 C0.28 43.93, 0.63 25.31, -0.9 -0.49" stroke="#000000" stroke-width="1" fill="none"></path></g><g transform="translate(573.4493023803051 302.28220366517826) rotate(0 60.5 11.5)"><text x="0" y="18" font-family="Helvetica, Segoe UI Emoji" font-size="20px" fill="#000000" text-anchor="start" style="white-space: pre;" direction="ltr">search server</text></g><g stroke-linecap="round"><g transform="translate(433.11589783928946 185.44889830629154) rotate(0 0.3706883196439321 42.67256454528308)"><path d="M-0.4 -0.04 C-0.43 14.35, -0.04 70.86, 0.06 85.23 M1.6 -1.1 C1.39 13.53, -0.51 72.26, -0.85 86.45" stroke="#000000" stroke-width="1" fill="none"></path></g><g transform="translate(433.11589783928946 185.44889830629154) rotate(0 0.3706883196439321 42.67256454528308)"><path d="M-10.37 58.08 C-8.54 67.44, -3.94 76.05, 0.62 84.47 M-11.13 57.62 C-7.38 64.5, -5.69 70.93, -0.32 86.99" stroke="#000000" stroke-width="1" fill="none"></path></g><g transform="translate(433.11589783928946 185.44889830629154) rotate(0 0.3706883196439321 42.67256454528308)"><path d="M10.15 58.67 C5.41 67.77, 3.45 76.2, 0.62 84.47 M9.38 58.21 C8.29 64.76, 5.14 71.05, -0.32 86.99" stroke="#000000" stroke-width="1" fill="none"></path></g></g><g transform="translate(458.61594361565665 199.44879912416263) rotate(0 45 24.5)"><text x="0" y="20.5" font-family="Helvetica, Segoe UI Emoji" font-size="20px" fill="#000000" text-anchor="start" style="white-space: pre;" direction="ltr">触发</text><text x="0" y="45" font-family="Helvetica, Segoe UI Emoji" font-size="20px" fill="#000000" text-anchor="start" style="white-space: pre;" direction="ltr">webhooks</text></g><g stroke-linecap="round" transform="translate(408.6158520629223 502.6156158355884) rotate(0 70.7499771118164 41.33331298828125)"><path d="M0 0 C0 0, 0 0, 0 0 M0 0 C0 0, 0 0, 0 0 M-0.78 6.99 C0.8 4.92, 2.58 2.51, 4.98 0.87 M-0.26 6.42 C0.7 4.69, 1.83 3.37, 5.2 0.64 M0.66 12.57 C3.08 9.3, 3.87 6.6, 11.13 0.09 M0.86 11.71 C3.89 8.79, 6.31 5.16, 10.5 0.05 M-0.31 17.08 C1.91 14.66, 6.16 9.84, 15.14 -0.62 M-0.12 18.02 C4.91 12.03, 11.56 5.33, 14.72 -0.64 M1.99 24.57 C7.73 17, 17.12 5.58, 19.85 -1.71 M-0.47 24.7 C4.67 17.75, 10.76 12.16, 21.11 -0.92 M-0.18 30.03 C7.27 19.85, 14.41 11.73, 25.79 1.12 M-0.82 29.6 C5.36 22.87, 13.48 15.67, 25.48 0.17 M0.08 35.44 C13.06 22.52, 23.83 7.69, 32.66 0.66 M-0.87 36.67 C8.85 25.45, 18.09 15.58, 32.5 0.76 M-0.66 41.32 C10.49 29.73, 22.55 16.21, 35.06 1.35 M-0.63 42.56 C12.62 28.5, 25.29 12.96, 36.97 0.64 M-1.26 50.06 C12.57 34.7, 24.84 18.78, 40.65 -1.62 M0.19 49.32 C12.1 34.26, 24.13 21.47, 41.65 -0.33 M1.46 53.85 C12.17 39.66, 23.4 27.24, 45.74 0.87 M-0.68 53.58 C10.65 43.39, 20.39 30.07, 46.53 0.25 M0.36 61.74 C21.27 36.28, 38.67 13.43, 53.44 -1.07 M-0.74 61.01 C12.2 47.02, 25.11 32.32, 52.71 -0.28 M-0.59 67.59 C20.3 43.64, 39.79 22.95, 57.3 -1.17 M0.41 67.47 C20.57 43.58, 42.37 19.04, 57.64 0.83 M0.66 73.37 C15.29 56.39, 31.45 37.55, 63.38 -1.9 M-0.31 73.71 C21.3 51.37, 39.65 27.51, 62.99 0.17 M-0.91 80.58 C27.33 50.45, 55.14 18.79, 69.93 0.66 M-0.87 80.09 C14.74 62.9, 30.54 45.08, 67.94 0.58 M1.39 84.61 C29.67 53.15, 54.14 22.22, 73.47 -0.04 M2.32 84.21 C27.83 53.19, 54.16 24.01, 74.98 -0.38 M5.65 85.87 C26.14 64.54, 44.22 40.03, 80.47 2.1 M5.75 83.38 C31.95 55.83, 58.01 25.01, 79.23 0.01 M11.53 81.92 C30.46 64.87, 44.34 43.78, 85.42 0.94 M12.7 84.1 C27.98 64.07, 44.67 45.44, 84.28 0.02 M18.43 82.62 C46.32 51.01, 72.95 18.83, 90.48 1.23 M17.12 84.43 C35.8 62.08, 56.44 39.26, 89.46 -0.02 M23.68 81.67 C45.22 57.99, 63.77 33.79, 95.61 -2.25 M23.46 82.94 C39.15 65.88, 53.99 48.37, 95.69 0.66 M26.13 83.84 C48.01 59.04, 73.4 34.46, 102.19 -1.58 M27.98 83.17 C56.5 51.73, 85.28 19.5, 100.75 -0.28 M31.67 84.75 C55.1 55.56, 81.83 30.19, 107.12 -0.58 M31.94 84.81 C52.44 62.2, 70.31 39.77, 107.13 0.16 M40.08 82.31 C56.5 64.51, 74.68 44.27, 110.51 0.35 M38.14 84.37 C62.27 57.59, 85.13 30.58, 111.35 0.77 M43.99 84.08 C69.28 51.67, 100.03 18.49, 117.07 0.06 M43.58 83.9 C66.57 58.06, 90.25 30.96, 117.06 1.26 M50.3 83.13 C75.4 55.85, 100.79 23.64, 123.07 0.03 M48.56 84.13 C73.2 55.36, 98.9 27.77, 121.69 -0.97 M55.84 85.17 C74.74 62.66, 96.29 38.8, 127.21 -0.2 M54.03 84.97 C82.02 50.54, 110.73 18.28, 127.03 -0.23 M61.48 83.7 C82.42 55.53, 107.82 28.17, 132.14 0.77 M59.38 83.89 C81.12 58.97, 102.37 32.54, 132.36 0.74 M63.76 83.09 C87.05 58.14, 107.8 32.27, 136.03 1.38 M63.75 84.39 C88.4 58.42, 110.04 31.41, 137.79 1.11 M69.01 81.74 C96.03 56.93, 116.7 27.8, 142.07 0.96 M69.86 84.44 C98.04 53.07, 124.58 20.36, 143.42 1.24 M76.99 83.2 C94.62 63.57, 113.83 40.24, 143.46 5.87 M75.33 84.88 C98.19 57.15, 122.09 29.53, 142 6.08 M82.98 83.28 C99.11 61.32, 118.82 40.66, 141.34 11.09 M80.46 83.91 C98.02 63.51, 115.58 44.4, 142.59 12.03 M85.44 85.2 C105 62.37, 126.63 36.5, 143.31 18.36 M85.56 83.49 C96.86 70.02, 108.45 56.4, 142.7 18.51 M92.14 82.68 C103.77 73.37, 113.34 60.54, 141.48 26.85 M90.77 83.78 C104.54 68.32, 118.09 54.05, 142.09 25.82 M95.74 83.09 C116.56 64.07, 133.88 43.06, 143.38 32.47 M97.35 83.61 C106.6 72.76, 117.9 61.51, 143.34 31.83 M103.95 82.58 C112.27 70.57, 122.67 59.8, 142.86 39.29 M101.53 82.87 C113.92 71.29, 125.16 58.54, 142.44 36.71 M107.17 85.18 C119.03 69.93, 129.43 57.42, 141.57 43.41 M107.78 82.99 C120.3 69.24, 132.37 54.34, 141.96 44.07 M112.56 81.95 C121.09 76.29, 125.76 69.38, 140.56 48.06 M112.65 83.34 C119.84 74.82, 128.67 64.5, 142.35 49.42 M119.71 82.1 C122.28 78.43, 129.31 71.74, 141.79 55.48 M118.08 83.71 C123.51 77.77, 129.44 71.02, 143.1 55.36 M122.77 84.09 C129.09 74.84, 138.31 68.28, 143 62.32 M123.2 82.7 C127.9 77.04, 133.75 71.9, 143.34 62.25 M130.04 82.78 C132.73 78.12, 138.65 71.89, 140.62 67.01 M127.65 84.21 C131.7 79.56, 136.6 74.22, 142.41 68.92 M134.13 84.19 C137.35 81.73, 138.61 77.77, 143.06 73.62 M133.65 83.69 C135.8 80.47, 138.07 78.74, 142.93 73.78 M139.22 83.5 C139.77 83.27, 140.46 81.9, 142.64 79.78 M139.35 83.69 C140.3 82.48, 141.44 80.94, 142.49 79.94" stroke="#fab005" stroke-width="0.5" fill="none"></path><path d="M1.52 -1.13 C51.63 -1.65, 105.15 0.08, 140.35 -0.13 M0.24 -0.13 C36.86 -1.78, 73.37 -2, 141.21 -0.63 M142.01 1.56 C142.46 34.64, 142.05 64.81, 142.95 81.91 M141.92 0.4 C141.14 19.33, 141.04 39.84, 141.7 83.32 M142.7 80.99 C97.48 84.14, 51.18 84.46, -1.01 83.96 M141.55 83.3 C108 81.42, 73.66 81.23, -0.12 83.09 M-1.34 84.44 C-2.36 55.7, -1.86 29.01, -0.45 -0.7 M0.62 83.22 C-0.23 50.48, 0.02 20.61, 0.53 0.05" stroke="#000000" stroke-width="1" fill="none"></path></g><g transform="translate(419.1159283568676 529.615524282854) rotate(0 59.5 11.5)"><text x="59.5" y="18" font-family="Helvetica, Segoe UI Emoji" font-size="20px" fill="#000000" text-anchor="middle" style="white-space: pre;" direction="ltr">data collector</text></g><g stroke-linecap="round"><g transform="translate(561.8285989964073 548.0665246231611) rotate(0 75.48075311292678 0.17416971349359756)"><path d="M-0.98 -0.81 C24.39 -0.92, 126.3 -0.94, 151.94 -1.04 M0.7 1.39 C25.9 1.48, 125.5 0.66, 150.78 0.35" stroke="#000000" stroke-width="1" fill="none"></path></g><g transform="translate(561.8285989964073 548.0665246231611) rotate(0 75.48075311292678 0.17416971349359756)"><path d="M121.35 10.2 C130.06 9.02, 137.2 6.96, 151.76 -1.29 M123.6 10.96 C127.96 8.56, 135.38 7.31, 150.89 0.52" stroke="#000000" stroke-width="1" fill="none"></path></g><g transform="translate(561.8285989964073 548.0665246231611) rotate(0 75.48075311292678 0.17416971349359756)"><path d="M121.15 -10.32 C129.86 -5.8, 137.05 -2.17, 151.76 -1.29 M123.4 -9.56 C127.64 -7.6, 135.1 -4.5, 150.89 0.52" stroke="#000000" stroke-width="1" fill="none"></path></g></g><g transform="translate(579.7825848510082 503.7822112945728) rotate(0 40 13.5)"><text x="0" y="22" font-family="Helvetica, Segoe UI Emoji" font-size="20px" fill="#000000" text-anchor="start" style="white-space: pre;" direction="ltr">更新索引</text></g><g stroke-linecap="round"><g transform="translate(825.7825848510082 187.44889830629154) rotate(0 0.07261267765420598 42.55325006009082)"><path d="M-0.3 0.71 C-0.27 14.8, -0.34 69.87, -0.43 83.63 M1.75 0.04 C1.63 14.4, -1.58 71.02, -1.6 85.06" stroke="#000000" stroke-width="1" fill="none"></path></g><g transform="translate(825.7825848510082 187.44889830629154) rotate(0 0.07261267765420598 42.55325006009082)"><path d="M-9.75 55.84 C-9.15 62.32, -7.42 70.65, -3.37 85.72 M-11.89 55.58 C-8.96 63.51, -7.53 68.37, -2.58 85.09" stroke="#000000" stroke-width="1" fill="none"></path></g><g transform="translate(825.7825848510082 187.44889830629154) rotate(0 0.07261267765420598 42.55325006009082)"><path d="M10.76 56.51 C6.23 62.77, 2.82 70.94, -3.37 85.72 M8.62 56.24 C7.06 64, 3.98 68.71, -2.58 85.09" stroke="#000000" stroke-width="1" fill="none"></path></g></g><g stroke-linecap="round"><g transform="translate(826.8617211652598 349.3007238487478) rotate(0 0.4039834255107735 76.0836416755426)"><path d="M0.18 -0.54 C0.28 24.86, -0.29 126.16, -0.26 151.42 M-1.19 1.8 C-0.63 27.44, 1.89 127.7, 2 152.7" stroke="#000000" stroke-width="1" fill="none"></path></g><g transform="translate(826.8617211652598 349.3007238487478) rotate(0 0.4039834255107735 76.0836416755426)"><path d="M9.46 26.26 C7.47 20.91, 4.46 15.01, -0.26 -0.65 M10.24 28 C7.31 18.04, 3.2 7.8, 0.9 -1.16" stroke="#000000" stroke-width="1" fill="none"></path></g><g transform="translate(826.8617211652598 349.3007238487478) rotate(0 0.4039834255107735 76.0836416755426)"><path d="M-11.06 26.2 C-8.4 20.83, -6.75 14.94, -0.26 -0.65 M-10.28 27.94 C-5.96 18.09, -2.81 7.87, 0.9 -1.16" stroke="#000000" stroke-width="1" fill="none"></path></g><g transform="translate(826.8617211652598 349.3007238487478) rotate(0 0.4039834255107735 76.0836416755426)"><path d="M-9.61 123.26 C-7.32 130.64, -5.59 137.49, 1.57 152.58 M-8.83 125 C-4.8 135.02, -1.52 144.67, 2.72 152.08" stroke="#000000" stroke-width="1" fill="none"></path></g><g transform="translate(826.8617211652598 349.3007238487478) rotate(0 0.4039834255107735 76.0836416755426)"><path d="M10.9 122.93 C8.54 130.41, 5.61 137.34, 1.57 152.58 M11.69 124.66 C8.46 134.71, 4.48 144.48, 2.72 152.08" stroke="#000000" stroke-width="1" fill="none"></path></g></g><g transform="translate(848.4492108275707 211.7822112945728) rotate(0 20 13.5)"><text x="0" y="22" font-family="Helvetica, Segoe UI Emoji" font-size="20px" fill="#000000" text-anchor="start" style="white-space: pre;" direction="ltr">搜索</text></g><g stroke-linecap="round"><g transform="translate(325.11589783928946 179.44889830629154) rotate(0 -20.273278492054715 178.13017992834216)"><path d="M0.7 1.17 C-17.44 33.22, -121.54 133.13, -109.96 192.07 C-98.37 251, 40.04 327.35, 70.21 354.77 M-0.39 0.73 C-18.53 32.96, -122.12 134.15, -110.53 193.29 C-98.95 252.42, 38.79 328.67, 69.12 355.53" stroke="#000000" stroke-width="1" fill="none"></path></g><g transform="translate(325.11589783928946 179.44889830629154) rotate(0 -20.273278492054715 178.13017992834216)"><path d="M42.15 348.67 C45.22 347.95, 50.48 351.06, 70.37 356.59 M39.72 347.95 C51.29 350.73, 60.65 352.98, 68.79 355.69" stroke="#000000" stroke-width="1" fill="none"></path></g><g transform="translate(325.11589783928946 179.44889830629154) rotate(0 -20.273278492054715 178.13017992834216)"><path d="M54.08 331.97 C54.62 334.81, 57.4 341.39, 70.37 356.59 M51.65 331.25 C58.91 339.92, 64.04 348.1, 68.79 355.69" stroke="#000000" stroke-width="1" fill="none"></path></g></g><g transform="translate(143.11586732171133 347.44889830629154) rotate(0 29 11.5)"><text x="0" y="18" font-family="Helvetica, Segoe UI Emoji" font-size="20px" fill="#000000" text-anchor="start" style="white-space: pre;" direction="ltr">git pull</text></g><g stroke-linecap="round"><g transform="translate(474.9345492683666 350.6156158355884) rotate(0 0.8674282478182249 68.24954909623602)"><path d="M1.02 -0.29 C1.41 22.45, 1.74 113.79, 1.62 136.52 M0.09 -1.49 C0.47 21.44, 1.25 114.88, 1.13 137.99" stroke="#000000" stroke-width="1" fill="none"></path></g><g transform="translate(474.9345492683666 350.6156158355884) rotate(0 0.8674282478182249 68.24954909623602)"><path d="M-9.69 111.25 C-6.97 115.71, -5.17 124.36, 2.06 137.34 M-9.59 110.18 C-6.83 115.08, -3.81 122.82, 0.65 138.82" stroke="#000000" stroke-width="1" fill="none"></path></g><g transform="translate(474.9345492683666 350.6156158355884) rotate(0 0.8674282478182249 68.24954909623602)"><path d="M10.83 111.2 C8.66 115.84, 5.58 124.5, 2.06 137.34 M10.93 110.13 C9.24 114.91, 7.82 122.67, 0.65 138.82" stroke="#000000" stroke-width="1" fill="none"></path></g></g><g transform="translate(490.4492108275707 401.1155853180103) rotate(0 60 13.5)"><text x="0" y="22" font-family="Helvetica, Segoe UI Emoji" font-size="20px" fill="#000000" text-anchor="start" style="white-space: pre;" direction="ltr">触发索引更新</text></g><g transform="translate(1106.120558382393 127.07593353810944) rotate(0 20 13.5)"><text x="20" y="22" font-family="Helvetica, Segoe UI Emoji" font-size="20px" fill="#000000" text-anchor="middle" style="white-space: pre;" direction="ltr">访客</text></g><g stroke-linecap="round" transform="translate(1109.6139002787522 10) rotate(0 19.805224344479598 18.228818249076653)"><path d="M15.97 -0.01 C19.74 -1.11, 24.96 0.53, 28.69 2.27 C32.41 4.02, 36.83 6.77, 38.33 10.45 C39.83 14.12, 38.92 20.34, 37.71 24.34 C36.49 28.34, 34.59 32.61, 31.05 34.44 C27.51 36.26, 20.9 35.97, 16.47 35.31 C12.03 34.65, 7.31 33.08, 4.42 30.46 C1.54 27.83, -0.84 23.31, -0.85 19.54 C-0.86 15.77, 0.67 11.1, 4.35 7.84 C8.02 4.57, 17.68 1.11, 21.21 -0.04 C24.75 -1.2, 25.63 0.72, 25.56 0.9 M17.99 -1.14 C22 -1.85, 27.91 0.41, 31.57 2.8 C35.23 5.2, 38.66 9.59, 39.94 13.22 C41.21 16.86, 41.15 21.32, 39.23 24.63 C37.31 27.95, 32.27 31.13, 28.42 33.11 C24.56 35.09, 20.08 37.39, 16.1 36.52 C12.12 35.66, 7.27 31.12, 4.55 27.93 C1.83 24.74, -0.15 20.9, -0.23 17.4 C-0.32 13.9, 1.31 9.77, 4.04 6.93 C6.77 4.09, 13.92 1.22, 16.15 0.34 C18.38 -0.54, 17.27 1.54, 17.44 1.65" stroke="#000000" stroke-width="2" fill="none"></path></g><g stroke-linecap="round"><g transform="translate(1127.5222358471715 47.01463067187342) rotate(0 -0.7274121460433207 21.600829735111688)"><path d="M0.76 -0.51 C0.41 6.9, -1.11 37.65, -1.5 45.02 M-0.3 -1.82 C-0.82 5.21, -1.91 35.57, -2.21 43.33" stroke="#000000" stroke-width="2" fill="none"></path></g></g><g stroke-linecap="round"><g transform="translate(1125.554680717999 91.92801178530772) rotate(0 8.905546462926509 13.489074681431362)"><path d="M-0.51 0.45 C2.45 4.88, 15.4 23, 18.32 27.34 M1.43 -0.37 C4.25 3.63, 15.38 20.77, 17.8 25.43" stroke="#000000" stroke-width="2" fill="none"></path></g></g><g stroke-linecap="round"><g transform="translate(1123.11115380114 89.87854195770115) rotate(0 -7.439523649845228 13.010998367597608)"><path d="M0.45 0.82 C-2.11 5, -11.94 20.47, -14.58 24.54 M-0.78 0.21 C-3.53 4.59, -12.72 21.41, -15.32 25.81" stroke="#000000" stroke-width="2" fill="none"></path></g></g><g stroke-linecap="round"><g transform="translate(1103.2222545730187 71.53814538511597) rotate(0 11.212819874049273 -7.443722247945743)"><path d="M0.82 0.39 C4.68 -2.23, 18.88 -12.78, 22.63 -15.28 M-0.21 -0.45 C3.49 -2.95, 17.61 -11.86, 21.42 -13.98" stroke="#000000" stroke-width="2" fill="none"></path></g></g><g stroke-linecap="round"><g transform="translate(1125.7135952143135 55.665136929425444) rotate(0 7.611020747426892 9.864413958713499)"><path d="M0.39 -0.5 C3 2.68, 13.36 16.72, 16.09 19.9 M-0.87 -1.81 C1.5 1.52, 12.07 18.01, 14.9 21.54" stroke="#000000" stroke-width="2" fill="none"></path></g></g><g stroke-linecap="round" transform="translate(17.240058802520707 21.261917081229285) rotate(0 19.80522434447954 18.228818249076653)"><path d="M16.53 0.79 C20.48 0.02, 26.24 1.16, 29.78 2.97 C33.31 4.78, 36.47 8, 37.75 11.63 C39.03 15.26, 38.74 21.03, 37.45 24.75 C36.16 28.47, 33.71 32.14, 30 33.96 C26.29 35.79, 19.49 36.45, 15.19 35.68 C10.9 34.92, 6.85 32.27, 4.22 29.37 C1.58 26.47, -0.63 22.12, -0.6 18.27 C-0.58 14.41, 0.88 9.4, 4.37 6.25 C7.85 3.1, 17.51 0.38, 20.28 -0.63 C23.06 -1.64, 21.1 -0.22, 21.02 0.19 M18.09 1.36 C21.74 1.03, 25.57 2.25, 28.96 4.02 C32.36 5.8, 36.94 8.42, 38.46 12 C39.98 15.59, 39.84 21.87, 38.1 25.52 C36.36 29.17, 31.47 31.92, 28 33.89 C24.53 35.87, 21.18 38.15, 17.27 37.34 C13.36 36.53, 7.5 32.34, 4.53 29.04 C1.56 25.75, -0.74 21.49, -0.54 17.58 C-0.35 13.67, 2.7 8.49, 5.69 5.58 C8.68 2.67, 15.58 1.03, 17.38 0.14 C19.18 -0.75, 16.46 -0.14, 16.48 0.26" stroke="#000000" stroke-width="2" fill="none"></path></g><g stroke-linecap="round"><g transform="translate(35.14839437094031 58.276547753102705) rotate(0 -0.9680286419645086 21.521833983019405)"><path d="M0.62 -0.33 C0.3 7.27, -2.02 37.05, -2.55 44.6 M-0.52 -1.56 C-0.37 5.78, 0.37 35.27, -0.16 42.69" stroke="#000000" stroke-width="2" fill="none"></path></g></g><g stroke-linecap="round"><g transform="translate(33.180839241767444 103.18992886653677) rotate(0 8.781177021953681 13.460507714685377)"><path d="M-0.33 -0.61 C2.82 3.68, 14.8 21.84, 17.9 26.32 M1.69 1.69 C4.82 6.07, 14.47 23.26, 17.16 27.53" stroke="#000000" stroke-width="2" fill="none"></path></g></g><g stroke-linecap="round"><g transform="translate(30.737312324908885 101.14045903892998) rotate(0 -7.164133843310083 12.669359046481873)"><path d="M-0.61 0.4 C-3.31 4.75, -13.1 21.63, -15.6 25.77 M1.27 -0.43 C-1.09 3.6, -10.23 19.51, -13.22 24.04" stroke="#000000" stroke-width="2" fill="none"></path></g></g><g stroke-linecap="round"><g transform="translate(10.848413096787453 82.8000624663448) rotate(0 11.508346475963663 -6.899773301588084)"><path d="M0.4 -0.63 C4.43 -3.11, 20.04 -12.91, 23.87 -15.45 M-0.85 1.65 C3.12 -0.62, 19.37 -11.45, 23.3 -14.25" stroke="#000000" stroke-width="2" fill="none"></path></g></g><g stroke-linecap="round"><g transform="translate(33.33975373808232 66.92705401065473) rotate(0 8.830278185218617 10.01211258288015)"><path d="M-0.63 0.73 C2.12 3.99, 13.23 16.98, 15.91 19.95 M1.24 0.07 C4.44 2.91, 15.53 14.75, 18.29 17.95" stroke="#000000" stroke-width="2" fill="none"></path></g></g><g transform="translate(13.425253745739838 138.57946398523677) rotate(0 20 13.5)"><text x="20" y="22" font-family="Helvetica, Segoe UI Emoji" font-size="20px" fill="#000000" text-anchor="middle" style="white-space: pre;" direction="ltr">作者</text></g><g stroke-linecap="round"><g transform="translate(1103.7243160655871 116.72667556373881) rotate(0 -81.23607153234082 -0.3155701034648928)"><path d="M-1.19 0.55 C-28.38 0.48, -135.29 0.71, -162.17 0.58 M0.39 -0.21 C-27 -0.11, -135.61 -1.44, -162.86 -1.23" stroke="#000000" stroke-width="1" fill="none"></path></g><g transform="translate(1103.7243160655871 116.72667556373881) rotate(0 -81.23607153234082 -0.3155701034648928)"><path d="M-133.72 -10.57 C-144.27 -7.48, -156.27 -5.74, -164.2 -1.07 M-135.41 -11.23 C-144.39 -7.08, -153.9 -3.77, -161.88 -0.76" stroke="#000000" stroke-width="1" fill="none"></path></g><g transform="translate(1103.7243160655871 116.72667556373881) rotate(0 -81.23607153234082 -0.3155701034648928)"><path d="M-133.79 9.96 C-144.49 5.26, -156.46 -0.77, -164.2 -1.07 M-135.48 9.29 C-144.48 6.46, -153.97 2.78, -161.88 -0.76" stroke="#000000" stroke-width="1" fill="none"></path></g></g></svg>