<svg version="1.1" xmlns="http://www.w3.org/2000/svg" viewBox="0 0 2114.4152950930966 451.428745814733" width="2114.4152950930966" height="451.428745814733">
  <!-- svg-source:excalidraw -->
  
  <defs>
    <style>
      @font-face {
        font-family: "Virgil";
        src: url("https://excalidraw.com/Virgil.woff2");
      }
      @font-face {
        font-family: "Cascadia";
        src: url("https://excalidraw.com/Cascadia.woff2");
      }
    </style>
  </defs>
  <rect x="0" y="0" width="2114.4152950930966" height="451.428745814733" fill="#ffffff"></rect><g stroke-linecap="round" transform="translate(10 10) rotate(0 63.33332606724343 41.90475463867193)"><path d="M-1.79 -0.34 L127.98 1.24 L126.54 81.94 L1.82 83.77" stroke="none" stroke-width="0" fill="#ced4da"></path><path d="M-1.89 -1 C33.57 -0.35, 67.85 -0.54, 127.25 -1.09 M0.37 0.7 C45.54 0.88, 92.92 1.89, 126.45 -0.65 M124.71 0.23 C124.53 27.11, 125.81 53.07, 127.61 84.52 M127.42 0.47 C128.33 30.77, 127.32 61.75, 125.74 83.56 M128.52 84.3 C78.8 85.19, 28.15 85.56, 1.36 83.58 M125.89 83.8 C81.47 83.86, 35.79 84.66, 0.38 84.7 M-0.29 82.01 C-0.03 55.05, 1.18 25.2, -1.69 -1 M0.15 83.84 C0.08 52.85, 0.46 21.25, 0.44 0.5" stroke="#000000" stroke-width="1" fill="none"></path></g><g stroke-linecap="round" transform="translate(313.80955287388406 200.4762050083707) rotate(0 61.904754638671875 30.00002179827004)"><path d="M-0.34 1.31 L125.05 -0.13 L121.94 61.82 L-0.04 61.87" stroke="none" stroke-width="0" fill="#ced4da"></path><path d="M-1 -1.06 C31.02 -0.24, 61.74 1.75, 122.72 1.3 M0.7 -0.69 C29.13 0, 59.39 -0.67, 123.16 0.25 M124.04 -1.82 C123.74 15.15, 122.48 32.31, 124.52 61.36 M124.28 0.9 C124.21 23.35, 124.36 46, 123.56 60.89 M124.3 61.45 C88.93 61.26, 53.22 62.51, -0.23 61.23 M123.8 60.62 C77.28 59.79, 31.93 59.42, 0.89 60.43 M-1.8 60.04 C-0.17 42.73, -1.27 21.26, -1 1.45 M0.03 59.28 C0.64 47.38, 0.25 35.9, 0.5 -0.89" stroke="#000000" stroke-width="1" fill="none"></path></g><g stroke-linecap="round" transform="translate(235.97376043146642 19.328749267224794) rotate(0 134.7618756975446 37.14285714285717)"><path d="M1.31 1.24 L269.39 -1.87 L271.34 74.24 L1.87 72.3" stroke="none" stroke-width="0" fill="#228be6"></path><path d="M-0.83 0.08 C89.55 0.99, 181.77 0.2, 270.54 -1 M-0.54 -0.09 C60.05 -0.77, 119.21 -1.98, 269.72 -0.3 M267.71 -0.12 C268.26 21.61, 269.74 46.71, 270.88 76.11 M270.42 -0.06 C269.97 28.15, 269.16 55.89, 270.42 74.2 M270.66 75.23 C185.13 76.05, 101.62 74.62, 0.97 75.43 M270.01 73.99 C180.26 74.59, 90.11 74.95, 0.34 74.35 M0.04 74.29 C1.37 48.71, -1.58 24.32, 1.45 -1.91 M-0.72 74.52 C-0.45 56.88, 0.34 40.29, -0.89 -0.17" stroke="#000000" stroke-width="1" fill="none"></path></g><g transform="translate(272.1642947506625 34.138258544569) rotate(0 100 24.5)"><text x="100" y="19.5" font-family="Helvetica, Segoe UI Emoji" font-size="20px" fill="#000000" text-anchor="middle" style="white-space: pre;" direction="ltr">pbkdf2 (hmac-sha256)</text><text x="100" y="44" font-family="Helvetica, Segoe UI Emoji" font-size="20px" fill="#000000" text-anchor="middle" style="white-space: pre;" direction="ltr">10000 次迭代，xbit</text></g><g transform="translate(34.11235462535842 40.71838343676632) rotate(0 40 13.5)"><text x="40" y="22" font-family="Helvetica, Segoe UI Emoji" font-size="20px" fill="#000000" text-anchor="middle" style="white-space: pre;" direction="ltr">密钥因子</text></g><g stroke-linecap="round" transform="translate(625.4976862127164 26.947811418452602) rotate(0 109.04758998325906 27.619062151227695)"><path d="M-1.87 1.82 L218.05 1.87 L216.11 55.34 L-0.29 53.76" stroke="none" stroke-width="0" fill="#fa5252"></path><path d="M-0.07 0.51 C52.91 2.47, 106.61 -0.03, 218.74 1.21 M0.78 -0.19 C49.91 -0.66, 100.61 -0.79, 217.25 0.1 M216.7 0.94 C218.77 12.91, 219.88 24.67, 219.6 56.17 M218.18 -0.92 C217.81 22.41, 217.97 43.17, 219.02 55.48 M219.47 56.42 C136.62 56.42, 56.82 55.92, -1.35 55.21 M218.46 55.57 C139.98 57.04, 60.39 56.92, -0.13 54.46 M-1.09 53.55 C-1 40.01, -1.91 20.53, 0.29 0.06 M-0.16 55.68 C0.37 41.73, -0.3 30.65, 0.62 -0.07" stroke="#000000" stroke-width="1" fill="none"></path></g><g transform="translate(704.5452761959755 42.01923998988127) rotate(0 30 13.5)"><text x="30" y="22" font-family="Helvetica, Segoe UI Emoji" font-size="20px" fill="#000000" text-anchor="middle" style="white-space: pre;" direction="ltr">根密钥</text></g><g stroke-linecap="round"><g transform="translate(515.0213979745877 56.61012530085941) rotate(0 51.441146403530944 0.1982119435633507)"><path d="M0.35 -0.65 C17.79 -0.85, 86.85 -1.31, 103.81 -1.2 M-0.93 1.62 C16.5 1.57, 85.7 0.55, 103.27 -0.07" stroke="#000000" stroke-width="1" fill="none"></path></g><g transform="translate(515.0213979745877 56.61012530085941) rotate(0 51.441146403530944 0.1982119435633507)"><path d="M74.24 12.15 C80.47 6.69, 88.89 7.15, 101.9 -0.29 M74.68 11.1 C84.51 7.23, 93.59 3.47, 102.36 -0.13" stroke="#000000" stroke-width="1" fill="none"></path></g><g transform="translate(515.0213979745877 56.61012530085941) rotate(0 51.441146403530944 0.1982119435633507)"><path d="M73.76 -8.37 C80.09 -9.12, 88.63 -3.96, 101.9 -0.29 M74.2 -9.42 C84.39 -6.19, 93.63 -2.85, 102.36 -0.13" stroke="#000000" stroke-width="1" fill="none"></path></g></g><g transform="translate(339.436926903667 214.27672591216333) rotate(0 40 13.5)"><text x="40" y="22" font-family="Helvetica, Segoe UI Emoji" font-size="20px" fill="#000000" text-anchor="middle" style="white-space: pre;" direction="ltr">初始向量</text></g><g stroke-linecap="round"><g transform="translate(379.4397343570904 189.25371259650387) rotate(0 -2.133978901388815 -42.07894317885686)"><path d="M0.78 -0.77 C-0.12 -14.61, -4.37 -69.68, -5.05 -83.72 M-0.27 1.45 C-0.83 -12.71, -2.28 -71.35, -2.83 -85.6" stroke="#000000" stroke-width="1" fill="none"></path></g><g transform="translate(379.4397343570904 189.25371259650387) rotate(0 -2.133978901388815 -42.07894317885686)"><path d="M7.02 -59.31 C5.53 -65.45, -0.25 -76.23, -1.91 -83.81 M7.91 -57.65 C4.4 -65.35, 1.37 -73.29, -3.1 -86.3" stroke="#000000" stroke-width="1" fill="none"></path></g><g transform="translate(379.4397343570904 189.25371259650387) rotate(0 -2.133978901388815 -42.07894317885686)"><path d="M-13.49 -58.68 C-8.23 -65.16, -7.26 -76.15, -1.91 -83.81 M-12.6 -57.01 C-10.39 -64.95, -7.71 -73.06, -3.1 -86.3" stroke="#000000" stroke-width="1" fill="none"></path></g></g><g stroke-linecap="round"><g transform="translate(150.7337579237319 53.17230832052633) rotate(0 35.01310948671451 -0.23363038814204629)"><path d="M-0.77 -0.94 C11.14 -1.07, 59.08 0.04, 70.79 0.04 M1.03 1.18 C12.88 0.65, 58.25 -1.5, 70.08 -1.64" stroke="#000000" stroke-width="1" fill="none"></path></g><g transform="translate(150.7337579237319 53.17230832052633) rotate(0 35.01310948671451 -0.23363038814204629)"><path d="M40.66 10.25 C50.38 5.58, 55.61 5.13, 71.87 -2.08 M42.33 8.54 C48.86 6.09, 55.22 4.11, 69.38 -1.17" stroke="#000000" stroke-width="1" fill="none"></path></g><g transform="translate(150.7337579237319 53.17230832052633) rotate(0 35.01310948671451 -0.23363038814204629)"><path d="M40 -10.26 C50.02 -9.89, 55.41 -5.3, 71.87 -2.08 M41.67 -11.97 C48.41 -9.6, 54.93 -6.76, 69.38 -1.17" stroke="#000000" stroke-width="1" fill="none"></path></g></g><g stroke-linecap="round" transform="translate(622.8135502802907 112.36770634286586) rotate(0 110.90909090909099 28.181832053444623)"><path d="M-0.29 -1.48 L222.83 -0.4 L222.66 55.22 L1.59 55.79" stroke="none" stroke-width="0" fill="#ced4da"></path><path d="M0.64 1.2 C79.77 1.31, 162.71 3.05, 221.44 -1.12 M-0.84 0.1 C71.29 -0.24, 143.92 -0.79, 222.22 0.31 M223.32 0.93 C224.12 20.61, 222.11 41.64, 219.97 55.87 M222.75 0.25 C222.5 22.55, 221.83 44.68, 222.5 56.25 M220.48 56.34 C142.65 56.36, 62.65 57.74, 0.66 57.9 M221.69 55.59 C145.71 56.93, 70.11 56.46, -0.73 55.93 M0.29 56.43 C-0.89 35.85, -0.15 14.08, 0.89 1 M0.62 56.3 C-0.84 45.4, 0.07 33.55, -0.99 0.05" stroke="#000000" stroke-width="1" fill="none"></path></g><g transform="translate(673.7226411893816 124.19239553916736) rotate(0 60 13.5)"><text x="60" y="22" font-family="Helvetica, Segoe UI Emoji" font-size="20px" fill="#000000" text-anchor="middle" style="white-space: pre;" direction="ltr">工作密钥密文</text></g><g stroke-linecap="round" transform="translate(998.6577616109521 79.90014613208064) rotate(0 80.90906316583789 80.90906316583789)"><path d="M1.01 -0.4 L162.66 -1.14 L163.41 161.25 L-0.52 162.44" stroke="none" stroke-width="0" fill="#228be6"></path><path d="M-1.37 -0.22 C36.76 0.67, 71.24 -2.43, 162.32 -0.77 M-0.91 -0.06 C49.84 -0.89, 100.68 0.17, 162.5 0.91 M163.61 -0.13 C162.81 61.31, 161.19 121.79, 163.6 161.65 M162.54 0.6 C163.37 51.51, 164 101.33, 162.44 162.55 M163.05 161.07 C109.37 162.64, 54.68 163.58, 0.86 161.99 M161.84 161.82 C109.11 159.82, 54.31 159.87, 0.72 160.86 M-1.43 162.29 C-0.92 123.93, 0.65 87.69, -1.79 -0.34 M-0.93 162.73 C-1.02 103.61, -2 43.59, -0.14 -0.74" stroke="#000000" stroke-width="1" fill="none"></path></g><g stroke-linecap="round" transform="translate(1581.0386558631835 129.90014613208064) rotate(0 80.90906316583789 80.90906316583789)"><path d="M-0.4 0.84 L160.67 1.59 L161.25 161.29 L0.62 162.84" stroke="none" stroke-width="0" fill="#228be6"></path><path d="M-0.22 0.92 C56.32 0.68, 107.76 1.61, 161.05 0.19 M-0.06 -0.27 C32.06 1.94, 65.86 2.15, 162.73 0.78 M161.69 -0.22 C162.74 58.84, 162.08 123.17, 161.65 162.09 M162.42 0.06 C163.01 64.23, 162.1 127.72, 162.55 162.15 M161.07 163.32 C126.63 163.58, 91.53 163.68, 0.17 162.41 M161.82 162.45 C115.1 161, 68.98 162.57, -0.95 161.14 M0.47 161.13 C-0.37 111.8, 0.95 58.22, -0.34 1.31 M0.91 161.8 C1.04 102.25, 0.16 44.53, -0.74 0.5" stroke="#000000" stroke-width="1" fill="none"></path></g><g transform="translate(1033.326572963174 141.69016696330004) rotate(0 46.5 24.5)"><text x="46.5" y="19.5" font-family="Helvetica, Segoe UI Emoji" font-size="20px" fill="#000000" text-anchor="middle" style="white-space: pre;" direction="ltr">aes-x-gcm</text><text x="46.5" y="44" font-family="Helvetica, Segoe UI Emoji" font-size="20px" fill="#000000" text-anchor="middle" style="white-space: pre;" direction="ltr">解密</text></g><g transform="translate(1615.7073800223252 192.6425333835009) rotate(0 46.5 24.5)"><text x="46.5" y="19.5" font-family="Helvetica, Segoe UI Emoji" font-size="20px" fill="#000000" text-anchor="middle" style="white-space: pre;" direction="ltr">aes-x-gcm</text><text x="46.5" y="44" font-family="Helvetica, Segoe UI Emoji" font-size="20px" fill="#000000" text-anchor="middle" style="white-space: pre;" direction="ltr">解密</text></g><g stroke-linecap="round"><g transform="translate(849.5668525200431 52.708883849097674) rotate(0 67.51908184989654 33.34401078628749)"><path d="M1.08 -0.26 C23.19 11, 110.59 56.76, 132.55 68.13 M0.18 -1.44 C22.69 9.39, 112.91 54.37, 134.85 66.16" stroke="#000000" stroke-width="1" fill="none"></path></g><g transform="translate(849.5668525200431 52.708883849097674) rotate(0 67.51908184989654 33.34401078628749)"><path d="M104.66 61.09 C114.21 62.44, 122.5 62.35, 135.09 64.35 M105.56 62.75 C114.51 64.62, 123.35 65.57, 135.32 67.06" stroke="#000000" stroke-width="1" fill="none"></path></g><g transform="translate(849.5668525200431 52.708883849097674) rotate(0 67.51908184989654 33.34401078628749)"><path d="M114.05 42.84 C120.97 49.55, 126.55 54.73, 135.09 64.35 M114.95 44.5 C121.09 51.67, 127.17 57.98, 135.32 67.06" stroke="#000000" stroke-width="1" fill="none"></path></g></g><g stroke-linecap="round"><g transform="translate(446.46445088889095 232.3094604192238) rotate(0 266.85235332286385 -3.49715957562492)"><path d="M-0.26 -0.78 C88.64 -2.36, 444.96 -7.03, 533.96 -8.42 M1.8 1.42 C90.53 0.52, 444.63 -5.48, 533.17 -7.12" stroke="#000000" stroke-width="1" fill="none"></path></g><g transform="translate(446.46445088889095 232.3094604192238) rotate(0 266.85235332286385 -3.49715957562492)"><path d="M503.87 4.13 C513.99 0.16, 522.5 -3.52, 531.36 -7.25 M505.52 4.31 C513.8 1.34, 521.29 -1.91, 534.07 -7.19" stroke="#000000" stroke-width="1" fill="none"></path></g><g transform="translate(446.46445088889095 232.3094604192238) rotate(0 266.85235332286385 -3.49715957562492)"><path d="M503.51 -16.39 C513.94 -13.26, 522.58 -9.83, 531.36 -7.25 M505.16 -16.21 C513.4 -13.58, 520.98 -11.22, 534.07 -7.19" stroke="#000000" stroke-width="1" fill="none"></path></g></g><g stroke-linecap="round"><g transform="translate(853.1165620878187 163.03876226546936) rotate(0 59.42134009165687 -1.111668450841762)"><path d="M-0.78 0.3 C18.98 -0.08, 99.67 -2.06, 119.62 -2.52 M1.01 -0.59 C20.48 -0.73, 98.4 -0.84, 118.43 -0.92" stroke="#000000" stroke-width="1" fill="none"></path></g><g transform="translate(853.1165620878187 163.03876226546936) rotate(0 59.42134009165687 -1.111668450841762)"><path d="M90.77 8.64 C101.46 3.62, 112.48 -0.28, 118.31 -1.46 M90.95 10.32 C97.49 7.68, 103.67 5.45, 118.37 -1.04" stroke="#000000" stroke-width="1" fill="none"></path></g><g transform="translate(853.1165620878187 163.03876226546936) rotate(0 59.42134009165687 -1.111668450841762)"><path d="M90.71 -11.88 C101.38 -8.91, 112.42 -4.8, 118.31 -1.46 M90.89 -10.2 C97.54 -8.11, 103.73 -5.62, 118.37 -1.04" stroke="#000000" stroke-width="1" fill="none"></path></g></g><g stroke-linecap="round" transform="translate(1279.0040608195577 128.12522397172143) rotate(0 91.51517001065349 27.878792502663373)"><path d="M0.62 1.03 L183.49 1.51 L183.3 57.11 L-0.75 56.38" stroke="none" stroke-width="0" fill="#fa5252"></path><path d="M-0.77 0.19 C49 -0.22, 100.08 -0.58, 182.49 -1.39 M0.91 0.78 C64.27 -0.78, 127.94 -1.31, 182.92 0.09 M182.86 0.27 C184.75 12.08, 184.34 24.38, 183.14 57.34 M183.76 0.33 C182.19 20.51, 183.58 40.68, 183.78 56.18 M183.21 56.35 C120.87 54.75, 59.34 56.55, 1.26 54.67 M182.08 55.08 C143.73 57.11, 103.41 57.31, -0.34 55.6 M-0.34 57.07 C0.96 36.42, -2.15 19.17, -0.04 1.87 M-0.74 56.26 C-0.23 44.99, -0.6 34.17, -0.29 -0.26" stroke="#000000" stroke-width="1" fill="none"></path></g><g stroke-linecap="round" transform="translate(1921.3849550717896 177.17285755152056) rotate(0 91.51517001065349 27.878792502663373)"><path d="M1.03 0.46 L184.54 0.27 L184.39 55.01 L0.62 54.76" stroke="none" stroke-width="0" fill="#fa5252"></path><path d="M0.19 -1.95 C43.23 -1.11, 85.88 0.17, 181.64 0.94 M0.78 0.75 C61.87 -0.77, 122.75 -1.78, 183.12 -0.92 M183.3 1.85 C184.02 16.79, 184.74 30.79, 184.61 57.12 M183.36 -0.77 C183.36 16.69, 183 32.9, 183.45 56.14 M183.62 55.46 C110.03 55.96, 40.62 57.18, -1.09 54.07 M182.35 55.9 C137.29 53.3, 91.73 53.67, -0.16 56.2 M1.31 57 C0.37 34.37, 2.31 16.67, 1.87 -1.99 M0.5 55.56 C0.5 38.17, 0.88 21.43, -0.26 0.31" stroke="#000000" stroke-width="1" fill="none"></path></g><g transform="translate(1310.5192308302112 143.45642649112574) rotate(0 60 13.5)"><text x="60" y="22" font-family="Helvetica, Segoe UI Emoji" font-size="20px" fill="#000000" text-anchor="middle" style="white-space: pre;" direction="ltr">工作密钥明文</text></g><g transform="translate(1972.900125082443 191.55160645764363) rotate(0 40 13.5)"><text x="40" y="22" font-family="Helvetica, Segoe UI Emoji" font-size="20px" fill="#000000" text-anchor="middle" style="white-space: pre;" direction="ltr">数据明文</text></g><g stroke-linecap="round"><g transform="translate(1169.999782017304 160.82721453775002) rotate(0 46.00735047576546 0.3977561683961994)"><path d="M0.14 -1.09 C15.66 -0.82, 77.87 0.04, 93.26 0.45 M-1.24 0.95 C14.1 1.5, 76.24 2.09, 92.27 1.82" stroke="#000000" stroke-width="1" fill="none"></path></g><g transform="translate(1169.999782017304 160.82721453775002) rotate(0 46.00735047576546 0.3977561683961994)"><path d="M62.28 12 C72.39 7.51, 82.59 6.42, 93.63 3.64 M64.99 12.06 C74.56 8.18, 84.39 3.95, 93.17 1.73" stroke="#000000" stroke-width="1" fill="none"></path></g><g transform="translate(1169.999782017304 160.82721453775002) rotate(0 46.00735047576546 0.3977561683961994)"><path d="M62.25 -8.52 C72.16 -6.66, 82.38 -1.4, 93.63 3.64 M64.96 -8.46 C74.69 -4.59, 84.54 -1.06, 93.17 1.73" stroke="#000000" stroke-width="1" fill="none"></path></g></g><g stroke-linecap="round"><g transform="translate(449.0471815615738 268.42502729427315) rotate(0 556.8807115989704 28.95594932411744)"><path d="M-1.09 -0.07 C80.84 11.14, 304.41 68.81, 490.4 67.41 C676.39 66.01, 1010.73 4.06, 1114.85 -8.48 M0.54 -1.16 C82.38 10.17, 303.64 70.08, 489.28 68.51 C674.92 66.93, 1009.97 2.46, 1114.38 -10.59" stroke="#000000" stroke-width="1" fill="none"></path></g><g transform="translate(449.0471815615738 268.42502729427315) rotate(0 556.8807115989704 28.95594932411744)"><path d="M1087.96 3.31 C1092 2.11, 1099.42 -0.4, 1116.2 -9.04 M1088.02 3.74 C1097.97 -2.73, 1107.49 -6.33, 1114.3 -10.46" stroke="#000000" stroke-width="1" fill="none"></path></g><g transform="translate(449.0471815615738 268.42502729427315) rotate(0 556.8807115989704 28.95594932411744)"><path d="M1084.83 -16.97 C1089.53 -14.04, 1097.58 -12.44, 1116.2 -9.04 M1084.89 -16.54 C1096.1 -15.43, 1106.81 -11.42, 1114.3 -10.46" stroke="#000000" stroke-width="1" fill="none"></path></g></g><g stroke-linecap="round"><g transform="translate(1471.9045148577052 154.18006659247044) rotate(0 44.21918946577762 8.687179681688264)"><path d="M-0.07 -0.32 C14.53 3.01, 72.89 15.66, 87.74 18.91 M-1.57 -1.54 C13.39 1.53, 75.01 13.96, 90.01 17.09" stroke="#000000" stroke-width="1" fill="none"></path></g><g transform="translate(1471.9045148577052 154.18006659247044) rotate(0 44.21918946577762 8.687179681688264)"><path d="M59.8 20.1 C70.57 20.84, 80.23 20.58, 91.57 18.59 M60.22 21.57 C69.66 19.73, 81.77 18.37, 90.14 18.01" stroke="#000000" stroke-width="1" fill="none"></path></g><g transform="translate(1471.9045148577052 154.18006659247044) rotate(0 44.21918946577762 8.687179681688264)"><path d="M63.91 -0.01 C73.21 7, 81.6 13.01, 91.57 18.59 M64.34 1.47 C72.53 6.59, 83.21 12.2, 90.14 18.01" stroke="#000000" stroke-width="1" fill="none"></path></g></g><g stroke-linecap="round" transform="translate(1273.8092476981064 335.71446010044724) rotate(0 95.23812430245516 52.85714285714289)"><path d="M0.62 -1 L189.88 -1.89 L190.76 106.43 L0.77 104.77" stroke="none" stroke-width="0" fill="#ced4da"></path><path d="M-1.39 0.94 C40.56 1.87, 81.53 2.07, 191.98 0.93 M0.09 -0.92 C73.95 1.11, 148.31 0.35, 191.4 0.25 M192.06 1.36 C190.88 40.63, 192.57 79.45, 188.93 105.69 M190.9 0.38 C190.97 38.67, 190.17 76.77, 190.33 104.82 M189.39 104.03 C131.97 108.36, 73.55 105.56, 0.29 105.78 M190.32 106.16 C147.46 104.16, 103.28 105.71, 0.62 105.65 M1.87 103.73 C-0.85 83.59, -2.44 63.06, -0.4 0.84 M-0.26 106.02 C-0.33 80.28, -0.09 54.52, 0.68 -0.37" stroke="#000000" stroke-width="1" fill="none"></path></g><g transform="translate(1329.047372000562 375.07160295759013) rotate(0 40 13.5)"><text x="40" y="22" font-family="Helvetica, Segoe UI Emoji" font-size="20px" fill="#000000" text-anchor="middle" style="white-space: pre;" direction="ltr">数据密文</text></g><g stroke-linecap="round"><g transform="translate(1473.8094220842686 401.4286586216522) rotate(0 41.0608028070734 -60.96746395940227)"><path d="M0.56 0.43 C14.41 -19.57, 69.01 -100.57, 82.72 -120.81 M-0.6 -0.4 C13.18 -20.63, 68.34 -101.95, 82.2 -122.36" stroke="#000000" stroke-width="1" fill="none"></path></g><g transform="translate(1473.8094220842686 401.4286586216522) rotate(0 41.0608028070734 -60.96746395940227)"><path d="M75.57 -91.92 C78.89 -99.69, 80.57 -108.26, 83.99 -122.49 M74.61 -92.38 C76.87 -101.47, 80 -109.76, 82.93 -121.76" stroke="#000000" stroke-width="1" fill="none"></path></g><g transform="translate(1473.8094220842686 401.4286586216522) rotate(0 41.0608028070734 -60.96746395940227)"><path d="M58.59 -103.44 C66.46 -108.15, 72.79 -113.57, 83.99 -122.49 M57.63 -103.9 C64.8 -109.51, 72.84 -114.47, 82.93 -121.76" stroke="#000000" stroke-width="1" fill="none"></path></g></g><g stroke-linecap="round"><g transform="translate(1758.5713849748936 210.00008719308062) rotate(0 76.33210546770135 -0.6948360567098888)"><path d="M0.43 0.81 C26.14 0.63, 128 -0.28, 153.47 -0.57 M-0.81 0.2 C24.92 -0.37, 127.47 -1.67, 153.1 -2.2" stroke="#000000" stroke-width="1" fill="none"></path></g><g transform="translate(1758.5713849748936 210.00008719308062) rotate(0 76.33210546770135 -0.6948360567098888)"><path d="M126.44 10.34 C133.04 7.45, 138.88 5.27, 152.97 -2.43 M125.97 8.43 C133.96 6.2, 142.72 2.7, 153.7 -2.15" stroke="#000000" stroke-width="1" fill="none"></path></g><g transform="translate(1758.5713849748936 210.00008719308062) rotate(0 76.33210546770135 -0.6948360567098888)"><path d="M126.1 -10.18 C132.88 -8.35, 138.79 -5.8, 152.97 -2.43 M125.64 -12.09 C133.54 -7.98, 142.4 -5.16, 153.7 -2.15" stroke="#000000" stroke-width="1" fill="none"></path></g></g></svg>