<svg version="1.1" xmlns="http://www.w3.org/2000/svg" viewBox="0 0 911.0895468947037 288.7437716323458" width="911.0895468947037" height="288.7437716323458">
  <!-- svg-source:excalidraw -->
  
  <defs>
    <style class="style-fonts">
      @font-face {
        font-family: "Virgil";
        src: url("https://excalidraw.com/Virgil.woff2");
      }
      @font-face {
        font-family: "Cascadia";
        src: url("https://excalidraw.com/Cascadia.woff2");
      }
    </style>
  </defs>
  <g stroke-linecap="round"><g transform="translate(10.569388352889291 268.238303740457) rotate(0 417.6388593617444 0.009675213004641137)"><path d="M0.1 0.55 C207.41 -2.69, 415.9 -2.18, 835.18 0.63 M0.22 0.37 C190.34 2.19, 380.77 2.17, 835.17 0.18" stroke="#000000" stroke-width="1" fill="none"></path></g><g transform="translate(10.569388352889291 268.238303740457) rotate(0 417.6388593617444 0.009675213004641137)"><path d="M836.84 -0.41 L823.42 6.88 L821.9 -5.73 L833.26 -0.44" stroke="none" stroke-width="0" fill="#000000" fill-rule="evenodd"></path><path d="M835.36 1.2 C830.96 0.98, 828.79 3.52, 821.89 7.75 M835.59 0.86 C832.28 1.04, 829.5 2.45, 821.88 6.89 M821.51 6.88 C821.83 4.99, 822.11 1.71, 822.58 -6.71 M821.11 6.86 C821.71 2.07, 820.92 -1.6, 821.2 -6.56 M821.97 -4.96 C825.19 -5.5, 825.95 -2.71, 834.7 -1.21 M822.1 -6.48 C824.67 -4.55, 827.23 -3.29, 834.64 0.44 M835.17 0.18 C835.17 0.18, 835.17 0.18, 835.17 0.18 M835.17 0.18 C835.17 0.18, 835.17 0.18, 835.17 0.18" stroke="#000000" stroke-width="1" fill="none"></path></g></g><mask></mask><g transform="translate(856.0895468947037 253.74377163234578) rotate(0 22.5 12.5)"><text x="0" y="18" font-family="Virgil, Segoe UI Emoji" font-size="20px" fill="#000000" text-anchor="start" style="white-space: pre;" direction="ltr">Time</text></g><g stroke-linecap="round" transform="translate(158.8606386043498 136.2834612907354) rotate(0 9.834289028899775 44.04812520941229)"><path d="M4.33 1.82 L17.22 0.66 L20.05 3.01 L19.05 82.22 L17.16 88.58 L14.86 86.61 L2.96 86.9 L1.14 85.01 L1.29 5.92 L3.01 -0.4 L6.08 -1.56" stroke="none" stroke-width="0" fill="#fa5252"></path><path d="M4.92 0 M4.92 0 C6.3 -0.76, 9.02 -0.41, 14.75 0 M4.92 0 C9.03 -0.22, 12.18 0.38, 14.75 0 M14.75 0 C19.78 -0.63, 19.09 3.59, 19.67 4.92 M14.75 0 C19.18 -1.06, 21.86 2.2, 19.67 4.92 M19.67 4.92 C18.04 22.32, 20.14 41.59, 19.67 83.18 M19.67 4.92 C19.97 30.32, 19.57 55.36, 19.67 83.18 M19.67 83.18 C19.97 88.32, 19.84 88.35, 14.75 88.1 M19.67 83.18 C19.96 87.37, 19.77 86.71, 14.75 88.1 M14.75 88.1 C12.04 87.86, 8.01 87.11, 4.92 88.1 M14.75 88.1 C12.12 88.46, 8.75 88.27, 4.92 88.1 M4.92 88.1 C-0.2 89.86, -0.86 87.07, 0 83.18 M4.92 88.1 C3.27 88.75, -1.2 85.22, 0 83.18 M0 83.18 C-0.55 56.79, 0.67 34.82, 0 4.92 M0 83.18 C1.63 52.59, 0.84 22.23, 0 4.92 M0 4.92 C-1.69 2.73, 1.99 -1.33, 4.92 0 M0 4.92 C1.42 1.44, 2.38 0.17, 4.92 0" stroke="#364fc7" stroke-width="1" fill="none"></path></g><g stroke-linecap="round" transform="translate(319.9503837223988 136.2834612907354) rotate(0 9.834289028899775 44.04812520941229)"><path d="M4.34 1.95 L17.9 -0.61 L21.57 5.4 L18.11 82.33 L16.91 85.57 L14.78 88.9 L4.71 88.28 L-1.56 84.76 L1.82 4.96 L2.25 0.57 L5.21 1.87" stroke="none" stroke-width="0" fill="#fa5252"></path><path d="M4.92 0 M4.92 0 C9.14 0.73, 12 0.61, 14.75 0 M4.92 0 C8.72 0.11, 12.26 -0.03, 14.75 0 M14.75 0 C18.14 -0.91, 21.42 3.3, 19.67 4.92 M14.75 0 C18.64 1.03, 17.55 3.66, 19.67 4.92 M19.67 4.92 C20.48 24, 18.83 45.56, 19.67 83.18 M19.67 4.92 C18.83 22.36, 20.34 40.6, 19.67 83.18 M19.67 83.18 C17.94 84.85, 19.95 87.24, 14.75 88.1 M19.67 83.18 C20.04 85, 16.08 89.35, 14.75 88.1 M14.75 88.1 C11.54 88.47, 8.58 89.05, 4.92 88.1 M14.75 88.1 C10.83 88.22, 7.12 88.39, 4.92 88.1 M4.92 88.1 C1.58 90.09, -1.74 88.05, 0 83.18 M4.92 88.1 C0.68 88.91, 0.24 84.85, 0 83.18 M0 83.18 C-0.67 61.2, -1.49 39.01, 0 4.92 M0 83.18 C-0.07 60.41, 0.61 37.84, 0 4.92 M0 4.92 C1.6 1.75, 2.48 -0.76, 4.92 0 M0 4.92 C-1.65 2.97, 0.11 0.99, 4.92 0" stroke="#364fc7" stroke-width="1" fill="none"></path></g><g stroke-linecap="round" transform="translate(485.95038372239924 136.2834612907354) rotate(0 9.834289028900002 44.04812520941229)"><path d="M6.15 0.09 L16.48 -0.17 L21.57 6.68 L18.52 82.68 L19.97 88.1 L14.8 86.64 L0.99 89.39 L0.12 81.59 L0.76 3.2 L1.92 0.39 L5.54 -0.98" stroke="none" stroke-width="0" fill="#fa5252"></path><path d="M4.92 0 M4.92 0 C7.82 0.63, 10.5 -0.17, 14.75 0 M4.92 0 C8.21 -0.04, 12.05 0.46, 14.75 0 M14.75 0 C18.85 -0.06, 19.85 2.41, 19.67 4.92 M14.75 0 C19.71 -0.25, 20.21 3.84, 19.67 4.92 M19.67 4.92 C21.13 31.95, 20.26 59, 19.67 83.18 M19.67 4.92 C19.95 32.76, 18.36 62.57, 19.67 83.18 M19.67 83.18 C19.61 87.82, 19.72 88.92, 14.75 88.1 M19.67 83.18 C17.59 84.32, 20.3 89.93, 14.75 88.1 M14.75 88.1 C12.49 87.21, 10.84 87.47, 4.92 88.1 M14.75 88.1 C12.31 87.72, 10.66 88.02, 4.92 88.1 M4.92 88.1 C0.6 87.98, 0.34 86.12, 0 83.18 M4.92 88.1 C3.22 87.61, 1.09 86.01, 0 83.18 M0 83.18 C1.79 62.96, -1.34 40.3, 0 4.92 M0 83.18 C-0.72 57.74, -0.74 31.61, 0 4.92 M0 4.92 C-0.28 1.2, 1.81 -1.31, 4.92 0 M0 4.92 C-1.01 0.47, 0.99 0.58, 4.92 0" stroke="#364fc7" stroke-width="1" fill="none"></path></g><g stroke-linecap="round" transform="translate(18.557476357270843 21.153904850016147) rotate(0 9.834289028899775 44.04812520941229)"><path d="M5.33 -0.5 L15.03 0.03 L21.41 6.41 L20.44 84.47 L20.34 85.46 L14.36 87.41 L1.56 86.88 L1.4 81.92 L1.03 4.51 L2.81 0.08 L4.79 1.01" stroke="none" stroke-width="0" fill="#12b886"></path><path d="M4.92 0 M4.92 0 C8.29 -0.89, 11.92 -1.04, 14.75 0 M4.92 0 C8.11 0.23, 10.43 0.11, 14.75 0 M14.75 0 C19.31 1.14, 18.64 3.08, 19.67 4.92 M14.75 0 C16.41 -0.18, 20.01 1.12, 19.67 4.92 M19.67 4.92 C21.38 32.69, 18.78 58.29, 19.67 83.18 M19.67 4.92 C18.57 21.92, 18 38.77, 19.67 83.18 M19.67 83.18 C19.51 86.06, 17.1 86.97, 14.75 88.1 M19.67 83.18 C17.56 86.08, 16.03 88.43, 14.75 88.1 M14.75 88.1 C9.93 87.64, 7.89 88.01, 4.92 88.1 M14.75 88.1 C11.68 87.77, 7.85 87.75, 4.92 88.1 M4.92 88.1 C1.16 88.39, -0.45 86.25, 0 83.18 M4.92 88.1 C1.89 88.23, 1.46 85.32, 0 83.18 M0 83.18 C0.93 57.67, -0.84 30.5, 0 4.92 M0 83.18 C-0.35 55.88, 0.24 28.79, 0 4.92 M0 4.92 C-0.18 1.08, 2.02 -0.44, 4.92 0 M0 4.92 C-1.09 1.39, 1.4 1.94, 4.92 0" stroke="#364fc7" stroke-width="1" fill="none"></path></g><g stroke-linecap="round" transform="translate(338.321643351484 21.153904850016147) rotate(0 9.834289028899775 44.04812520941229)"><path d="M6.91 -1.74 L18.5 -0.52 L20.38 5.13 L18.27 82.64 L18.63 85.03 L14.16 87.46 L1.35 86.32 L-0.2 81.34 L0.32 3.34 L1.13 1 L5.1 1.6" stroke="none" stroke-width="0" fill="#12b886"></path><path d="M4.92 0 M4.92 0 C7.22 0.61, 10.27 0.46, 14.75 0 M4.92 0 C6.81 0.32, 8.88 0.37, 14.75 0 M14.75 0 C18.98 1.14, 21.03 1.92, 19.67 4.92 M14.75 0 C20.03 -0.36, 18.9 1.77, 19.67 4.92 M19.67 4.92 C21.55 35.34, 18.68 67.17, 19.67 83.18 M19.67 4.92 C19.85 21.51, 19.52 38.95, 19.67 83.18 M19.67 83.18 C18.27 88.46, 18.03 89.63, 14.75 88.1 M19.67 83.18 C19.25 85.86, 16.56 87.56, 14.75 88.1 M14.75 88.1 C10.77 89.06, 6.19 88.08, 4.92 88.1 M14.75 88.1 C10.7 88.35, 7.58 87.83, 4.92 88.1 M4.92 88.1 C3.26 87.93, 0.71 85.56, 0 83.18 M4.92 88.1 C3.71 87.81, -1.78 84.23, 0 83.18 M0 83.18 C0.95 55.52, 0.88 30.61, 0 4.92 M0 83.18 C-0.63 63.37, -0.47 43.33, 0 4.92 M0 4.92 C1.55 2.5, 1.68 1.65, 4.92 0 M0 4.92 C2.2 3.34, 3.28 -1.32, 4.92 0" stroke="#364fc7" stroke-width="1" fill="none"></path></g><g stroke-linecap="round" transform="translate(258.3806016029307 21.153904850016147) rotate(0 9.834289028899775 44.04812520941229)"><path d="M4.35 0.23 L17.87 0.54 L21.3 4.85 L20.97 81.98 L19.96 86.33 L15.61 86.43 L1.01 88.03 L0.42 84.25 L1.25 3.27 L2.34 3.18 L3.2 0.61" stroke="none" stroke-width="0" fill="#12b886"></path><path d="M4.92 0 M4.92 0 C8.25 -0.06, 11.82 0.56, 14.75 0 M4.92 0 C7.39 0.01, 8.94 0.41, 14.75 0 M14.75 0 C17 0.67, 21.52 3.38, 19.67 4.92 M14.75 0 C17.52 -0.67, 21.91 1.43, 19.67 4.92 M19.67 4.92 C19.34 33.62, 17.82 60.55, 19.67 83.18 M19.67 4.92 C18.31 22.37, 19.32 39.68, 19.67 83.18 M19.67 83.18 C19.59 86.4, 19.6 88.79, 14.75 88.1 M19.67 83.18 C18.74 85.66, 16.44 89.1, 14.75 88.1 M14.75 88.1 C11.33 87.63, 7.25 88.62, 4.92 88.1 M14.75 88.1 C11.7 87.64, 8.58 88.55, 4.92 88.1 M4.92 88.1 C1.64 88.22, 0.75 84.72, 0 83.18 M4.92 88.1 C1.76 88.5, 0.29 86.54, 0 83.18 M0 83.18 C-1.15 60.75, 0.3 37.82, 0 4.92 M0 83.18 C1.33 52.09, 0.29 23.31, 0 4.92 M0 4.92 C-1.38 3.19, 1.45 1.24, 4.92 0 M0 4.92 C-0.16 3.55, 3.55 -1.48, 4.92 0" stroke="#364fc7" stroke-width="1" fill="none"></path></g><g stroke-linecap="round" transform="translate(578.1447685971434 21.153904850016147) rotate(0 9.834289028899548 44.04812520941229)"><path d="M3.18 1.6 L16.07 1.01 L19.88 3.52 L19.12 83.37 L16.6 86.27 L14.12 86.68 L1.3 87.59 L-1.84 83.5 L-1.58 4.82 L1 1.42 L6.52 0.11" stroke="none" stroke-width="0" fill="#12b886"></path><path d="M4.92 0 M4.92 0 C8.85 -0.58, 12.07 -0.69, 14.75 0 M4.92 0 C8.2 -0.36, 11.25 0.29, 14.75 0 M14.75 0 C19.17 1.36, 19.95 3.38, 19.67 4.92 M14.75 0 C17.67 -0.77, 19.8 3.68, 19.67 4.92 M19.67 4.92 C19.07 29.84, 20.48 55.51, 19.67 83.18 M19.67 4.92 C19.37 34.16, 20.26 64.32, 19.67 83.18 M19.67 83.18 C21.67 86.46, 19.56 87.73, 14.75 88.1 M19.67 83.18 C19.07 84.99, 17.5 90.39, 14.75 88.1 M14.75 88.1 C12.36 87.39, 8.08 88.76, 4.92 88.1 M14.75 88.1 C12.28 88.07, 8.98 88.41, 4.92 88.1 M4.92 88.1 C1.47 88.81, -0.9 88.26, 0 83.18 M4.92 88.1 C1.35 86.31, -2.23 87.43, 0 83.18 M0 83.18 C-0.55 65.8, 1.33 46.86, 0 4.92 M0 83.18 C-0.11 61.43, -0.48 41.88, 0 4.92 M0 4.92 C0.86 1.68, 3.29 1.91, 4.92 0 M0 4.92 C1.7 3.28, 0.32 -1.58, 4.92 0" stroke="#364fc7" stroke-width="1" fill="none"></path></g><g stroke-linecap="round" transform="translate(58.52799723154749 21.153904850016147) rotate(0 9.834289028899775 44.04812520941229)"><path d="M6.44 1.34 L17.01 -1.39 L18.84 3.77 L19.48 82.89 L20.12 88.08 L16.33 86.83 L2.88 85.83 L0.32 81.85 L-1.76 6.22 L2.86 0.36 L5.41 1.25" stroke="none" stroke-width="0" fill="#12b886"></path><path d="M4.92 0 M4.92 0 C7.99 -0.11, 13.35 -0.7, 14.75 0 M4.92 0 C7.46 -0.39, 10.27 0.27, 14.75 0 M14.75 0 C17.7 -1.96, 18.46 2.83, 19.67 4.92 M14.75 0 C19.48 0.31, 19.19 3.88, 19.67 4.92 M19.67 4.92 C21.38 29.96, 19.79 51.64, 19.67 83.18 M19.67 4.92 C18.84 32.48, 19.17 60.79, 19.67 83.18 M19.67 83.18 C20.96 87.01, 16.89 89.35, 14.75 88.1 M19.67 83.18 C20.82 88.72, 18.4 87.33, 14.75 88.1 M14.75 88.1 C12.55 87.69, 9.21 89.03, 4.92 88.1 M14.75 88.1 C11.93 87.59, 8.57 87.83, 4.92 88.1 M4.92 88.1 C-0.33 88.46, 1.25 87.72, 0 83.18 M4.92 88.1 C1.03 90.11, -1.13 87.39, 0 83.18 M0 83.18 C-0.84 54.55, -0.81 22.5, 0 4.92 M0 83.18 C-0.75 51.53, 0.3 20.47, 0 4.92 M0 4.92 C-0.79 1.97, 3.49 -0.92, 4.92 0 M0 4.92 C1.15 2.34, -0.3 -1.61, 4.92 0" stroke="#364fc7" stroke-width="1" fill="none"></path></g><g stroke-linecap="round" transform="translate(378.29216422576064 21.153904850016147) rotate(0 9.834289028899548 44.04812520941229)"><path d="M6.51 -0.83 L17.61 0.52 L18.27 4.37 L19.86 81.34 L17.85 86.23 L13.33 86.63 L2.57 85.95 L0.32 81.6 L-0.1 4.69 L1.42 2.83 L5.03 0.84" stroke="none" stroke-width="0" fill="#12b886"></path><path d="M4.92 0 M4.92 0 C6.84 0.37, 9.31 -0.01, 14.75 0 M4.92 0 C7.09 0.28, 10.34 0.23, 14.75 0 M14.75 0 C19.39 0.28, 21.41 1.33, 19.67 4.92 M14.75 0 C17.26 0.13, 21.71 2.43, 19.67 4.92 M19.67 4.92 C19.05 23.86, 18.53 41.66, 19.67 83.18 M19.67 4.92 C18.49 25.95, 18.6 46.14, 19.67 83.18 M19.67 83.18 C19.67 87.99, 17.66 87.57, 14.75 88.1 M19.67 83.18 C18.2 85.93, 20.32 88.91, 14.75 88.1 M14.75 88.1 C10.58 88.12, 8.47 88.02, 4.92 88.1 M14.75 88.1 C12.53 87.96, 10.58 88.12, 4.92 88.1 M4.92 88.1 C2.35 87.2, 1.8 86.21, 0 83.18 M4.92 88.1 C-0.14 85.87, 0.97 84.75, 0 83.18 M0 83.18 C0.15 63.82, -1.12 41.8, 0 4.92 M0 83.18 C-0.03 59.42, 1.46 37.1, 0 4.92 M0 4.92 C0.04 3.29, 3.55 1.48, 4.92 0 M0 4.92 C1.64 0.32, 0.06 1.54, 4.92 0" stroke="#364fc7" stroke-width="1" fill="none"></path></g><g stroke-linecap="round" transform="translate(298.35112247720735 21.153904850016147) rotate(0 9.834289028899775 44.04812520941229)"><path d="M5.15 0.97 L17.13 1.94 L19.6 6.22 L18.47 84.7 L17.9 87.72 L13.08 86.34 L3.01 88.21 L1.07 84.43 L-1.64 6.03 L3.18 -0.48 L5.52 0.33" stroke="none" stroke-width="0" fill="#12b886"></path><path d="M4.92 0 M4.92 0 C8.08 0.66, 11.96 -0.97, 14.75 0 M4.92 0 C8.73 -0.08, 12.87 -0.35, 14.75 0 M14.75 0 C18.7 1.85, 21.41 1.19, 19.67 4.92 M14.75 0 C17.36 2.24, 19.46 3.13, 19.67 4.92 M19.67 4.92 C19.68 24.6, 18.06 45.96, 19.67 83.18 M19.67 4.92 C20.08 22.35, 20.17 39.18, 19.67 83.18 M19.67 83.18 C19.62 88.03, 18.72 87.29, 14.75 88.1 M19.67 83.18 C18.87 84.86, 19.03 89.48, 14.75 88.1 M14.75 88.1 C10.51 87.69, 7.7 88.36, 4.92 88.1 M14.75 88.1 C12.1 88.36, 10.82 88.13, 4.92 88.1 M4.92 88.1 C1.77 88.85, -1.74 86.57, 0 83.18 M4.92 88.1 C2.05 88.39, 0.08 86.46, 0 83.18 M0 83.18 C1.77 62.6, 2.32 43.72, 0 4.92 M0 83.18 C-1.05 63.53, 0.38 43.4, 0 4.92 M0 4.92 C1.55 1.45, 2.87 -0.14, 4.92 0 M0 4.92 C1.91 3.55, 0.16 2.15, 4.92 0" stroke="#364fc7" stroke-width="1" fill="none"></path></g><g stroke-linecap="round" transform="translate(618.1152894714196 21.153904850016147) rotate(0 9.834289028899548 44.04812520941229)"><path d="M4.09 0.71 L17.11 -1.09 L19.12 5.11 L17.83 82.59 L17.81 85.45 L13.28 87.9 L0.93 88.11 L-1.58 83.08 L-0.23 5.1 L2.83 1.34 L5.75 -0.76" stroke="none" stroke-width="0" fill="#12b886"></path><path d="M4.92 0 M4.92 0 C7.59 -0.69, 9.46 -0.29, 14.75 0 M4.92 0 C7.59 0.32, 9.88 0.42, 14.75 0 M14.75 0 C18.31 1.74, 19.36 0.97, 19.67 4.92 M14.75 0 C18.16 2.04, 20.46 -0.11, 19.67 4.92 M19.67 4.92 C21.08 32.95, 21.35 63.66, 19.67 83.18 M19.67 4.92 C20.63 23.95, 20.7 44.38, 19.67 83.18 M19.67 83.18 C21.2 86.09, 17.51 86.82, 14.75 88.1 M19.67 83.18 C19.14 88.75, 18.84 89.32, 14.75 88.1 M14.75 88.1 C11.78 88.69, 8.78 87.36, 4.92 88.1 M14.75 88.1 C12.47 88.51, 10.56 88.28, 4.92 88.1 M4.92 88.1 C0.74 89.9, -0.25 84.91, 0 83.18 M4.92 88.1 C-0.59 89.07, -1.71 85.55, 0 83.18 M0 83.18 C1.36 57.28, -0.29 33.28, 0 4.92 M0 83.18 C-0.4 67.34, 0.53 49.97, 0 4.92 M0 4.92 C1.65 3.55, 3.11 1.43, 4.92 0 M0 4.92 C-1.32 0.06, 3.18 -1.52, 4.92 0" stroke="#364fc7" stroke-width="1" fill="none"></path></g><g stroke-linecap="round" transform="translate(98.49851810582413 21.153904850016147) rotate(0 9.834289028899775 44.04812520941229)"><path d="M2.99 1.29 L15.23 0.72 L18.99 2.94 L20.03 84.42 L19.7 86.34 L16.5 87.11 L3.58 89.53 L0.07 82.87 L-0.81 6.59 L0.44 1.16 L6.87 0.76" stroke="none" stroke-width="0" fill="#12b886"></path><path d="M4.92 0 M4.92 0 C9.13 -0.41, 11.78 0.22, 14.75 0 M4.92 0 C8.93 -0.46, 12.3 -0.08, 14.75 0 M14.75 0 C16.57 -1.17, 20.72 3.59, 19.67 4.92 M14.75 0 C19.48 0.38, 19.9 1.62, 19.67 4.92 M19.67 4.92 C21.32 28.04, 21.38 52.36, 19.67 83.18 M19.67 4.92 C19.42 29.66, 20.82 55.89, 19.67 83.18 M19.67 83.18 C19.55 88.11, 19.02 87.97, 14.75 88.1 M19.67 83.18 C21.79 88.08, 16.94 89.97, 14.75 88.1 M14.75 88.1 C11.11 87.71, 9.17 87.4, 4.92 88.1 M14.75 88.1 C11.62 87.73, 8.49 88.4, 4.92 88.1 M4.92 88.1 C3.1 89.03, -1.35 87.85, 0 83.18 M4.92 88.1 C0.46 88.31, -1.13 86.05, 0 83.18 M0 83.18 C0.39 64.43, -2.17 43.11, 0 4.92 M0 83.18 C-0.12 55.02, -0.43 28.07, 0 4.92 M0 4.92 C0.27 3.27, 0.25 1.31, 4.92 0 M0 4.92 C1.13 0.66, 1.99 -2.21, 4.92 0" stroke="#364fc7" stroke-width="1" fill="none"></path></g><g stroke-linecap="round" transform="translate(418.26268510003774 21.153904850016147) rotate(0 9.834289028900002 44.04812520941229)"><path d="M5.62 0.21 L15.5 -0.24 L19.86 3.08 L19.08 82.55 L17.02 85.4 L14.56 86.26 L3.09 86.21 L-0.1 82.95 L0.19 6.52 L1.34 2.07 L4.15 -1.43" stroke="none" stroke-width="0" fill="#12b886"></path><path d="M4.92 0 M4.92 0 C7.68 0.01, 11.61 -0.65, 14.75 0 M4.92 0 C8.66 0.21, 12.28 0, 14.75 0 M14.75 0 C19.77 -0.31, 19 1.75, 19.67 4.92 M14.75 0 C20.07 0.79, 17.92 3.5, 19.67 4.92 M19.67 4.92 C17.41 30.08, 18.32 50.92, 19.67 83.18 M19.67 4.92 C18.34 29.73, 19.04 53.31, 19.67 83.18 M19.67 83.18 C19.3 85.93, 16.75 87.63, 14.75 88.1 M19.67 83.18 C21.96 87.27, 19.26 87.99, 14.75 88.1 M14.75 88.1 C11.56 87.93, 6.37 87.22, 4.92 88.1 M14.75 88.1 C11.56 88.01, 7.75 87.84, 4.92 88.1 M4.92 88.1 C3.44 87.84, -1.55 84.52, 0 83.18 M4.92 88.1 C2.61 86.39, -0.91 86.88, 0 83.18 M0 83.18 C-1.09 62.45, -0.17 41.21, 0 4.92 M0 83.18 C1.34 61.19, 0.58 39.17, 0 4.92 M0 4.92 C1.91 3.11, 3.07 -1.15, 4.92 0 M0 4.92 C-1.58 3.18, 0.12 0.21, 4.92 0" stroke="#364fc7" stroke-width="1" fill="none"></path></g><g stroke-linecap="round" transform="translate(138.46903898010078 21.153904850016147) rotate(0 9.834289028899775 44.04812520941229)"><path d="M5.08 0.46 L17.01 1.78 L18.66 6.45 L18.85 83.74 L20.23 85.41 L12.85 86.21 L3.66 86.99 L-0.12 84.83 L0.99 4.79 L3.07 2.64 L3.97 1.63" stroke="none" stroke-width="0" fill="#12b886"></path><path d="M4.92 0 M4.92 0 C6.82 -0.42, 10.41 -0.73, 14.75 0 M4.92 0 C7.8 -0.42, 10.67 0.25, 14.75 0 M14.75 0 C19.49 0.93, 18.32 3.03, 19.67 4.92 M14.75 0 C16.85 0.22, 18.54 1.23, 19.67 4.92 M19.67 4.92 C21.13 24.41, 18.58 41.32, 19.67 83.18 M19.67 4.92 C18.7 31.24, 18.38 58.76, 19.67 83.18 M19.67 83.18 C19.93 88.09, 16.64 89.4, 14.75 88.1 M19.67 83.18 C20.8 85.48, 18.38 85.89, 14.75 88.1 M14.75 88.1 C11.92 87.67, 11.13 87.61, 4.92 88.1 M14.75 88.1 C11.32 87.57, 9.08 87.89, 4.92 88.1 M4.92 88.1 C1.61 87.94, 1.56 84.6, 0 83.18 M4.92 88.1 C3.57 89.41, 2.25 88.73, 0 83.18 M0 83.18 C2.06 51.6, -1.13 20.41, 0 4.92 M0 83.18 C-0.47 66.26, 0.15 49.39, 0 4.92 M0 4.92 C-1.9 3.28, 1.02 1.04, 4.92 0 M0 4.92 C-0.66 1.91, 2.76 0.26, 4.92 0" stroke="#364fc7" stroke-width="1" fill="none"></path></g><g stroke-linecap="round" transform="translate(458.23320597431484 21.153904850016147) rotate(0 9.834289028899548 44.04812520941229)"><path d="M5.13 -1.4 L16.36 0.5 L17.83 4.32 L19.04 81.76 L16.97 86.67 L12.91 88.42 L1.18 87.69 L-0.23 83.37 L1.6 5.03 L2.07 0.47 L3.48 1.16" stroke="none" stroke-width="0" fill="#12b886"></path><path d="M4.92 0 M4.92 0 C7.26 -0.28, 8.9 0.64, 14.75 0 M4.92 0 C7.3 0.29, 9.19 0.38, 14.75 0 M14.75 0 C17.72 -0.67, 19.78 3.41, 19.67 4.92 M14.75 0 C18.82 -1.75, 21.53 1.64, 19.67 4.92 M19.67 4.92 C21.9 22.62, 19.26 42.14, 19.67 83.18 M19.67 4.92 C21.39 22.07, 21.16 39.04, 19.67 83.18 M19.67 83.18 C19.14 85.18, 17.57 90.09, 14.75 88.1 M19.67 83.18 C20.48 87.69, 17.92 90.22, 14.75 88.1 M14.75 88.1 C12.34 87.5, 9.38 88.8, 4.92 88.1 M14.75 88.1 C11.64 88.35, 8.38 88.62, 4.92 88.1 M4.92 88.1 C1.39 86.55, -1.94 87.3, 0 83.18 M4.92 88.1 C-0.07 87.18, 0.42 85.47, 0 83.18 M0 83.18 C-1.02 58.48, -2.15 33.62, 0 4.92 M0 83.18 C0.82 65.32, 1.22 48.38, 0 4.92 M0 4.92 C1.48 3.07, 0.49 -1.37, 4.92 0 M0 4.92 C1.54 0.12, 1.85 -0.81, 4.92 0" stroke="#364fc7" stroke-width="1" fill="none"></path></g><g stroke-linecap="round" transform="translate(178.43955985437742 21.153904850016147) rotate(0 9.834289028899775 44.04812520941229)"><path d="M3.56 1.39 L15.87 0.5 L18.68 4.56 L18.55 84.55 L20.02 87.79 L15.12 86.47 L0.94 88.75 L-1.09 84.92 L-1.09 3.08 L-0.48 -0.03 L5.18 1.63" stroke="none" stroke-width="0" fill="#12b886"></path><path d="M4.92 0 M4.92 0 C6.77 0.1, 8.51 -0.96, 14.75 0 M4.92 0 C8.24 0.31, 11.74 0.13, 14.75 0 M14.75 0 C19.66 -1.82, 18.08 -0.14, 19.67 4.92 M14.75 0 C19.95 -0.56, 19.64 1.46, 19.67 4.92 M19.67 4.92 C20.08 36.47, 20.92 65.91, 19.67 83.18 M19.67 4.92 C19.85 23.1, 19.53 42.04, 19.67 83.18 M19.67 83.18 C19.75 88.44, 17.16 88.23, 14.75 88.1 M19.67 83.18 C20.09 86.86, 15.84 89.99, 14.75 88.1 M14.75 88.1 C12.22 88.55, 9.57 88.87, 4.92 88.1 M14.75 88.1 C12.21 87.91, 9.13 87.63, 4.92 88.1 M4.92 88.1 C-0.11 88.34, 0.42 87.52, 0 83.18 M4.92 88.1 C3.07 86.21, 1.27 88.7, 0 83.18 M0 83.18 C0.38 65.84, 0.22 49.45, 0 4.92 M0 83.18 C0.38 54.92, 0.54 25.57, 0 4.92 M0 4.92 C0.07 3.54, 0.61 0.67, 4.92 0 M0 4.92 C2.13 3.64, 1.12 -0.67, 4.92 0" stroke="#364fc7" stroke-width="1" fill="none"></path></g><g stroke-linecap="round" transform="translate(498.20372684859103 21.153904850016147) rotate(0 9.834289028899548 44.04812520941229)"><path d="M3.52 -0.54 L17.09 -1.53 L19.08 4.29 L18.25 81.71 L18.24 85.03 L15.08 86.51 L2.67 87.56 L0.19 84.78 L0.11 5.75 L0.47 -0.21 L6.08 -1.33" stroke="none" stroke-width="0" fill="#12b886"></path><path d="M4.92 0 M4.92 0 C7.94 -0.61, 12.23 -0.85, 14.75 0 M4.92 0 C8.87 0.01, 12.58 -0.13, 14.75 0 M14.75 0 C17.36 0.11, 21.44 2.33, 19.67 4.92 M14.75 0 C16.28 1.86, 19.67 0.2, 19.67 4.92 M19.67 4.92 C18.12 32.96, 19.06 61.3, 19.67 83.18 M19.67 4.92 C19.12 36.39, 18.94 66.07, 19.67 83.18 M19.67 83.18 C18.39 85.99, 20.02 88.81, 14.75 88.1 M19.67 83.18 C20.9 86.35, 20.15 86.46, 14.75 88.1 M14.75 88.1 C11.21 87.21, 9.63 88.2, 4.92 88.1 M14.75 88.1 C12.38 87.87, 10.1 88.03, 4.92 88.1 M4.92 88.1 C0.09 86.16, 0.85 84.97, 0 83.18 M4.92 88.1 C0.73 88.52, -0.99 86.8, 0 83.18 M0 83.18 C0.32 53.95, 0.11 26.8, 0 4.92 M0 83.18 C-0.59 64.49, 0.35 44.9, 0 4.92 M0 4.92 C1.43 0.49, 0.26 1.34, 4.92 0 M0 4.92 C-1.52 1.85, 0.83 1.03, 4.92 0" stroke="#364fc7" stroke-width="1" fill="none"></path></g><g stroke-linecap="round" transform="translate(218.41008072865407 21.153904850016147) rotate(0 9.834289028899775 44.04812520941229)"><path d="M5 -1.63 L16.02 1.23 L18.67 5.1 L21.29 81.36 L16.85 85.09 L16.42 87.61 L2.74 87.64 L1.56 81.32 L1.68 6.06 L3.18 3.21 L6.72 -1.15" stroke="none" stroke-width="0" fill="#12b886"></path><path d="M4.92 0 M4.92 0 C7.97 -0.78, 11.76 0.09, 14.75 0 M4.92 0 C8.93 0.08, 12.3 0.4, 14.75 0 M14.75 0 C17.41 1.04, 19.1 1.87, 19.67 4.92 M14.75 0 C19.15 0.26, 21.54 1.56, 19.67 4.92 M19.67 4.92 C18.66 34.35, 17.53 60.31, 19.67 83.18 M19.67 4.92 C20.46 28.51, 20.39 54.72, 19.67 83.18 M19.67 83.18 C17.95 87.06, 18.36 88.71, 14.75 88.1 M19.67 83.18 C19.02 86.98, 17.82 89.68, 14.75 88.1 M14.75 88.1 C11.88 89.12, 7.93 88.21, 4.92 88.1 M14.75 88.1 C11.32 88.56, 6.87 87.99, 4.92 88.1 M4.92 88.1 C3.58 87.91, 1.3 85.91, 0 83.18 M4.92 88.1 C1.22 87.97, 0.18 84.57, 0 83.18 M0 83.18 C1.07 63.98, 1.11 48.24, 0 4.92 M0 83.18 C0.81 57.44, -0.38 30.66, 0 4.92 M0 4.92 C-1.39 2.51, 2.84 1.75, 4.92 0 M0 4.92 C-0.92 1.91, 0.63 -0.97, 4.92 0" stroke="#364fc7" stroke-width="1" fill="none"></path></g><g stroke-linecap="round" transform="translate(538.1742477228672 21.153904850016147) rotate(0 9.834289028899548 44.04812520941229)"><path d="M4.37 0.19 L15.06 -0.29 L19.04 3.5 L18.2 82.98 L16.6 87.19 L13.17 88 L2.54 87.98 L1.6 83.29 L0.84 4.15 L-0.21 2.39 L3.59 0.86" stroke="none" stroke-width="0" fill="#12b886"></path><path d="M4.92 0 M4.92 0 C6.5 0.6, 8.46 0.7, 14.75 0 M4.92 0 C8.4 0.36, 11.67 -0.23, 14.75 0 M14.75 0 C18.14 1.77, 20.36 0.12, 19.67 4.92 M14.75 0 C19.89 0, 18.23 3.26, 19.67 4.92 M19.67 4.92 C19.37 21.56, 18.71 39.87, 19.67 83.18 M19.67 4.92 C21.22 22.75, 20.19 40.31, 19.67 83.18 M19.67 83.18 C19.21 88.45, 18.74 89.16, 14.75 88.1 M19.67 83.18 C19.56 88.58, 16.39 87.93, 14.75 88.1 M14.75 88.1 C10.26 88.67, 7.65 87.62, 4.92 88.1 M14.75 88.1 C10.78 88.57, 7.2 87.75, 4.92 88.1 M4.92 88.1 C-0.3 88.94, -1.48 85.66, 0 83.18 M4.92 88.1 C2.06 87.11, 0.34 87.63, 0 83.18 M0 83.18 C-1.51 63.24, -1.19 42.83, 0 4.92 M0 83.18 C0.49 54.59, 0.4 24.8, 0 4.92 M0 4.92 C-1.15 0.26, 2.98 -1.32, 4.92 0 M0 4.92 C0.21 0.83, 2.67 -2.24, 4.92 0" stroke="#364fc7" stroke-width="1" fill="none"></path></g><g stroke-linecap="round" transform="translate(10 10) rotate(0 77.05282402792045 55.20203005942844)"><path d="M-1.51 -0.63 C41.69 0.18, 84.33 2.09, 154.02 0.08 M0.92 0.57 C52.34 -1.22, 102.66 -1.11, 154.64 -0.79 M155.92 0.3 C154.92 42.37, 153.14 85.51, 155.6 108.69 M154.98 0.48 C153.67 29.07, 153.32 56.22, 154.05 110.34 M154.86 112.31 C101.16 110.12, 43.95 109.07, -1.6 109.16 M154.86 109.78 C93.95 110.2, 31.65 109.16, 0.6 110.77 M1.03 109.22 C1.46 79.63, -1.46 46.11, 1.58 -0.38 M0.43 110.17 C-0.01 83.46, -0.02 55.92, -0.94 0.49" stroke="#e67700" stroke-width="1" fill="none"></path></g><g stroke-linecap="round" transform="translate(332.80004882812545 10) rotate(0 77.05282402792068 55.20203005942844)"><path d="M-0.63 -1.42 C46.23 0.26, 93.54 0.78, 152.52 -0.1 M0.05 0.42 C44.1 -1.95, 89.54 -1.9, 154.54 -0.77 M155.25 -1.72 C155.06 34.61, 154.85 68.69, 154.38 112.14 M154.99 0.35 C152.98 32.22, 153.74 62.19, 154.81 109.52 M154.19 108.79 C96.78 108.27, 37.76 109.67, 1.53 110.04 M155.1 110.76 C112.44 110, 70.63 109.34, -0.07 111.08 M1.3 110.66 C-0.08 80.74, 0.58 48.56, -0.9 1.8 M0.42 109.66 C0.46 78.86, 0.42 47.09, 0.51 -0.49" stroke="#e67700" stroke-width="1" fill="none"></path></g><g stroke-linecap="round" transform="translate(172.07792581762988 10) rotate(0 77.05282402792045 55.20203005942844)"><path d="M-1.21 1.03 C50.73 1.4, 105.14 -1.53, 153.99 1.58 M0.6 0.43 C43.04 -0.12, 86.63 -0.13, 153.69 -0.94 M155.78 0.65 C151.86 39.66, 155.19 75.99, 155.69 110.49 M153.68 -0.32 C153.44 32.93, 153.46 67.73, 154.25 110.26 M154.15 111.09 C121.14 110.68, 87.99 110.39, 1.24 110.36 M154.51 110.19 C112.07 109.76, 68.76 109.54, -0.17 109.47 M-1.58 110.62 C1.51 78.29, -0.92 46.93, -1.14 -0.91 M-0.34 109.44 C0.32 73.1, 1.36 36.97, 0.7 -0.14" stroke="#e67700" stroke-width="1" fill="none"></path></g><g stroke-linecap="round" transform="translate(492.4780112668486 10) rotate(0 77.05282402792045 55.20203005942844)"><path d="M-1.42 -1.47 C31.88 -1.35, 64.47 -1.09, 154.01 -0.23 M0.42 -0.38 C46.95 0.5, 94.67 0.35, 153.34 0.05 M152.38 1.36 C154.37 30.29, 154.78 58.58, 155.85 110.09 M154.45 -0.76 C154.98 29.43, 153.54 59.56, 153.22 111.24 M152.49 112.25 C113.11 112.47, 74.9 112, -0.36 109.88 M154.46 110.94 C117.66 112.86, 80.6 111.87, 0.68 110.24 M0.25 109.58 C2.6 84.58, 1.69 58.2, 1.8 -0.25 M-0.74 110.01 C1.25 85.41, 1.22 61.78, -0.49 -0.31" stroke="#e67700" stroke-width="1" fill="none"></path></g><g stroke-linecap="round"><g transform="translate(774.3445837102126 133.4377592890412) rotate(341.3305248972796 -68.20053674825022 -34.35920336171986)"><path d="M0.94 1.09 C-10.05 -2.43, -42.95 -9.76, -65.95 -21.57 C-88.96 -33.39, -125.13 -61.72, -137.07 -69.81 M-0.02 0.61 C-11.08 -2.68, -43.51 -8.62, -66.4 -20.12 C-89.28 -31.62, -125.56 -60.24, -137.34 -68.39" stroke="#087f5b" stroke-width="1" fill="none"></path></g><g transform="translate(774.3445837102126 133.4377592890412) rotate(341.3305248972796 -68.20053674825022 -34.35920336171986)"><path d="M-106.72 -58.42 C-117.31 -60.72, -125.28 -64.05, -137.47 -68.88 M-108.7 -60.9 C-113.79 -61.35, -120.78 -63.49, -137.19 -69.36" stroke="#087f5b" stroke-width="1" fill="none"></path></g><g transform="translate(774.3445837102126 133.4377592890412) rotate(341.3305248972796 -68.20053674825022 -34.35920336171986)"><path d="M-118.83 -41.86 C-125.77 -49.17, -130.14 -57.42, -137.47 -68.88 M-120.81 -44.34 C-123.16 -48.29, -127.5 -54.06, -137.19 -69.36" stroke="#087f5b" stroke-width="1" fill="none"></path></g></g><mask></mask><g stroke-linecap="round"><g transform="translate(798.3740094731456 59.26084792314367) rotate(341.3305248972796 -68.1373459878655 -35.40270275995135)"><path d="M-0.82 0.14 C-10.6 -6.65, -36.47 -29.1, -59.17 -40.94 C-81.86 -52.79, -123.96 -65.91, -136.99 -70.94 M0.95 -0.84 C-8.4 -7.44, -33.84 -28.14, -56.87 -39.69 C-79.89 -51.24, -123.91 -64.97, -137.22 -70.12" stroke="#e67700" stroke-width="1" fill="none"></path></g><g transform="translate(798.3740094731456 59.26084792314367) rotate(341.3305248972796 -68.1373459878655 -35.40270275995135)"><path d="M-107 -71.72 C-115.84 -68.86, -124.2 -69.38, -139.06 -69.21 M-107.87 -70.9 C-114.12 -70.19, -119.78 -70.81, -137.04 -70.15" stroke="#e67700" stroke-width="1" fill="none"></path></g><g transform="translate(798.3740094731456 59.26084792314367) rotate(341.3305248972796 -68.1373459878655 -35.40270275995135)"><path d="M-113.83 -52.36 C-120.87 -54.43, -127.48 -59.92, -139.06 -69.21 M-114.7 -51.55 C-119.32 -55.13, -123.45 -60.1, -137.04 -70.15" stroke="#e67700" stroke-width="1" fill="none"></path></g></g><mask></mask><g stroke-linecap="round"><g transform="translate(653.4027668919343 234.9634902970809) rotate(341.3305248972796 -68.80267980546705 -34.94923033535015)"><path d="M-0.82 0.63 C-11.92 -3.22, -43.28 -10.39, -66.12 -21.96 C-88.96 -33.54, -125.83 -60.98, -137.87 -68.81 M0.96 -0.09 C-10.28 -3.26, -43.4 -8.97, -66.65 -20.71 C-89.9 -32.45, -126.62 -62.16, -138.56 -70.53" stroke="#c92a2a" stroke-width="1" fill="none"></path></g><g transform="translate(653.4027668919343 234.9634902970809) rotate(341.3305248972796 -68.80267980546705 -34.94923033535015)"><path d="M-108.78 -60.57 C-120.68 -64.83, -127.65 -68.63, -136.8 -71.49 M-109.03 -61.66 C-117.12 -63.96, -124.12 -66.19, -138.93 -70.65" stroke="#c92a2a" stroke-width="1" fill="none"></path></g><g transform="translate(653.4027668919343 234.9634902970809) rotate(341.3305248972796 -68.80267980546705 -34.94923033535015)"><path d="M-121.05 -44.12 C-128.89 -53.95, -131.65 -63.38, -136.8 -71.49 M-121.3 -45.21 C-126.16 -51.6, -130.02 -58.04, -138.93 -70.65" stroke="#c92a2a" stroke-width="1" fill="none"></path></g></g><mask></mask><g transform="translate(621.4304709756325 177.5697778497062) rotate(0 40.5 14)"><text x="0" y="21" font-family="Virgil, Segoe UI Emoji" font-size="20px" fill="#c92a2a" text-anchor="start" style="white-space: pre;" direction="ltr">事件回调</text></g><g transform="translate(787.4460051105152 95.89808103666576) rotate(0 20.5 14)"><text x="0" y="21" font-family="Virgil, Segoe UI Emoji" font-size="20px" fill="#c92a2a" text-anchor="start" style="white-space: pre;" direction="ltr">事件</text></g><g transform="translate(807.4882312309473 22.744348164223766) rotate(0 40.5 14)"><text x="0" y="21" font-family="Virgil, Segoe UI Emoji" font-size="20px" fill="#c92a2a" text-anchor="start" style="white-space: pre;" direction="ltr">时间间隔</text></g></svg>