<svg version="1.1" xmlns="http://www.w3.org/2000/svg" viewBox="0 0 1414.1152004155838 1115.8124740751407" width="1414.1152004155838" height="1115.8124740751407">
  <!-- svg-source:excalidraw -->
  
  <defs>
    <style>
      @font-face {
        font-family: "Virgil";
        src: url("https://excalidraw.com/Virgil.woff2");
      }
      @font-face {
        font-family: "Cascadia";
        src: url("https://excalidraw.com/Cascadia.woff2");
      }
    </style>
  </defs>
  <rect x="0" y="0" width="1414.1152004155838" height="1115.8124740751407" fill="#ffffff"></rect><g stroke-linecap="round" transform="translate(44.606038592241475 283.9999694824219) rotate(0 22.033990687016 20.28018489209478)"><path d="M17.55 -0.32 C21.88 -1.71, 27.48 -0.37, 31.53 1.68 C35.57 3.74, 39.81 8.05, 41.84 11.99 C43.87 15.92, 45 21.08, 43.7 25.28 C42.4 29.48, 38.15 34.49, 34.02 37.17 C29.89 39.85, 23.57 41.68, 18.94 41.36 C14.31 41.04, 9.49 38.67, 6.24 35.24 C2.99 31.8, -0.39 25.26, -0.56 20.76 C-0.73 16.27, 1.66 11.84, 5.22 8.26 C8.79 4.69, 17.68 0.72, 20.85 -0.7 C24.02 -2.12, 24.19 -0.61, 24.25 -0.24 M33.37 2.79 C37.19 4.44, 40.45 9.18, 41.96 13.16 C43.47 17.14, 43.55 22.69, 42.41 26.67 C41.26 30.65, 38.81 34.66, 35.09 37.05 C31.36 39.44, 24.94 41.57, 20.05 40.99 C15.16 40.4, 9.09 36.82, 5.75 33.55 C2.42 30.27, 0 25.57, 0.05 21.35 C0.1 17.12, 3.05 11.46, 6.03 8.2 C9.01 4.93, 13.46 2.51, 17.96 1.77 C22.45 1.03, 30.69 3.74, 33.02 3.75 C35.35 3.76, 32.43 1.59, 31.94 1.84" stroke="#000000" stroke-width="2" fill="none"></path></g><g stroke-linecap="round"><g transform="translate(64.47785357981911 324.63259238508965) rotate(0 -1.128997977304266 24.66703967701696)"><path d="M0.56 -0.57 C0.21 7.83, -2.5 41.79, -2.81 49.9 M-0.61 1.75 C-0.49 9.85, -0.26 40.31, -0.44 48.16" stroke="#000000" stroke-width="2" fill="none"></path></g></g><g stroke-linecap="round"><g transform="translate(62.39073186800181 375.095867823637) rotate(0 9.813336244501954 15.0712931080146)"><path d="M-0.57 -0.65 C2.88 4.39, 17.03 25.75, 20.19 30.79 M1.34 1.62 C4.73 6.28, 16.39 24.25, 19.63 29.1" stroke="#000000" stroke-width="2" fill="none"></path></g></g><g stroke-linecap="round"><g transform="translate(59.20690640931991 372.6301666444496) rotate(0 -7.58321472279988 13.922812724143427)"><path d="M-0.65 0.73 C-3.39 5.29, -13.12 22.37, -15.85 26.8 M1.21 0.07 C-1.66 4.79, -13.17 23.06, -16.37 27.78" stroke="#000000" stroke-width="2" fill="none"></path></g></g><g stroke-linecap="round"><g transform="translate(37.211159195042455 352.3004426946754) rotate(0 13.241679517477735 -8.034465904887156)"><path d="M0.73 0.81 C4.94 -1.9, 20.6 -13.91, 24.68 -16.88 M-0.35 0.18 C4.27 -2.29, 22.75 -12.86, 26.83 -15.54" stroke="#000000" stroke-width="2" fill="none"></path></g></g><g stroke-linecap="round"><g transform="translate(62.29474971142247 335.2384009399627) rotate(0 8.894685701752792 10.803973001750109)"><path d="M0.81 -1.06 C3.92 2.39, 15.16 17.61, 18.02 21.41 M-0.23 1 C2.75 4.54, 14.01 19.02, 16.86 22.67" stroke="#000000" stroke-width="2" fill="none"></path></g></g><g stroke-linecap="round" transform="translate(45.006001971147725 10) rotate(0 22.033990687016 20.28018489209478)"><path d="M16.88 0.75 C21.05 -0.09, 26.86 1.43, 31.23 3.23 C35.6 5.02, 40.96 7.72, 43.1 11.5 C45.24 15.28, 45.71 21.74, 44.05 25.91 C42.39 30.08, 37.25 33.95, 33.15 36.5 C29.05 39.05, 24.08 41.55, 19.45 41.2 C14.82 40.85, 8.64 37.81, 5.35 34.4 C2.07 31, -0.1 25.17, -0.28 20.76 C-0.46 16.35, 0.77 11.32, 4.28 7.96 C7.79 4.61, 17.14 1.91, 20.79 0.61 C24.43 -0.68, 26.03 0.03, 26.14 0.19 M17.28 -0.13 C21.31 -1.27, 26.12 -0.58, 30.5 1.58 C34.88 3.73, 41.66 8.68, 43.56 12.81 C45.47 16.93, 43.51 22.21, 41.95 26.32 C40.39 30.42, 37.97 34.89, 34.22 37.43 C30.47 39.97, 24.32 42.35, 19.43 41.55 C14.55 40.76, 8.11 35.85, 4.91 32.67 C1.71 29.49, 0.37 26.57, 0.23 22.48 C0.09 18.38, 1.09 11.89, 4.06 8.1 C7.03 4.31, 15.95 1, 18.05 -0.25 C20.16 -1.49, 16.73 0.21, 16.69 0.62" stroke="#000000" stroke-width="2" fill="none"></path></g><g stroke-linecap="round"><g transform="translate(64.87781695872536 50.63262290266778) rotate(0 -1.3463933718791168 24.2339481543941)"><path d="M0.63 -0.53 C0.18 7.5, -1.76 39.71, -2.3 48.05 M-0.5 1.81 C-1.15 9.96, -2.81 40.8, -3.32 48.99" stroke="#000000" stroke-width="2" fill="none"></path></g></g><g stroke-linecap="round"><g transform="translate(62.79069524690817 101.0958983412151) rotate(0 9.967509364454827 14.802640686201116)"><path d="M-0.53 -0.14 C2.55 4.68, 14.96 24.72, 18.34 29.55 M1.4 -1.26 C4.84 3.67, 17.5 25.73, 20.46 30.86" stroke="#000000" stroke-width="2" fill="none"></path></g></g><g stroke-linecap="round"><g transform="translate(59.60686978822628 98.63019716202774) rotate(0 -9.202259473449374 13.52297243631645)"><path d="M-0.14 -1.13 C-3.09 3.66, -14.15 23.15, -17.09 28.17 M-1.67 0.9 C-4.88 5.35, -15.96 21.82, -18.27 26.21" stroke="#000000" stroke-width="2" fill="none"></path></g></g><g stroke-linecap="round"><g transform="translate(37.611122573948705 78.30047321225351) rotate(0 12.461341979075257 -9.033071311171511)"><path d="M-1.13 -0.43 C3.3 -3.35, 21.38 -15.1, 26.05 -17.63 M0.49 -1.71 C4.83 -4.51, 20.89 -14.06, 25.26 -16.7" stroke="#000000" stroke-width="2" fill="none"></path></g></g><g stroke-linecap="round"><g transform="translate(62.69471309032883 61.2384314575408) rotate(0 9.468395926828293 11.251742336811418)"><path d="M-0.43 0.31 C2.47 4.35, 13.98 19.67, 17.26 23.07 M1.54 -0.57 C4.8 3.26, 16.47 17.88, 19.37 21.55" stroke="#000000" stroke-width="2" fill="none"></path></g></g><g stroke-linecap="round"><g transform="translate(137.20016479492188 354.7370002291902) rotate(0 119.79055244514717 -0.6349590187892318)"><path d="M0.54 -0.28 C40.68 -0.61, 200.43 -0.75, 240.22 -0.88 M-0.64 -1.47 C39.42 -1.17, 198.99 0, 239.38 0.2" stroke="#000000" stroke-width="1" fill="none"></path></g><g transform="translate(137.20016479492188 354.7370002291902) rotate(0 119.79055244514717 -0.6349590187892318)"><path d="M210.67 10.64 C216.6 6.39, 223.31 5.59, 238.15 -0.15 M212.06 10.74 C222.72 7.05, 232.98 3.1, 239.72 1.17" stroke="#000000" stroke-width="1" fill="none"></path></g><g transform="translate(137.20016479492188 354.7370002291902) rotate(0 119.79055244514717 -0.6349590187892318)"><path d="M210.8 -9.88 C216.89 -9.03, 223.57 -4.71, 238.15 -0.15 M212.19 -9.78 C222.89 -5.75, 233.1 -1.97, 239.72 1.17" stroke="#000000" stroke-width="1" fill="none"></path></g></g><g stroke-linecap="round"><g transform="translate(128.80020141601562 87.93701243622147) rotate(0 119.974843213018 0.7767355933226696)"><path d="M-0.01 0.57 C39.88 0.78, 199.06 0.2, 239.16 0.12 M-1.48 -0.17 C38.81 0.35, 201.16 1.45, 241.42 1.73" stroke="#000000" stroke-width="1" fill="none"></path></g><g transform="translate(128.80020141601562 87.93701243622147) rotate(0 119.974843213018 0.7767355933226696)"><path d="M214.12 10.38 C221.49 9.88, 229.48 7.43, 240.3 1.01 M212.88 12.79 C223.27 8.73, 231.49 5.01, 241.2 2.15" stroke="#000000" stroke-width="1" fill="none"></path></g><g transform="translate(128.80020141601562 87.93701243622147) rotate(0 119.974843213018 0.7767355933226696)"><path d="M214.26 -10.14 C221.4 -4.81, 229.35 -1.43, 240.3 1.01 M213.02 -7.73 C223.54 -4.86, 231.71 -1.66, 241.2 2.15" stroke="#000000" stroke-width="1" fill="none"></path></g></g><g transform="translate(162.60025024414062 314.13699412567456) rotate(0 87 36.5)"><text x="87" y="19.333333333333332" font-family="Helvetica, Segoe UI Emoji" font-size="20px" fill="#000000" text-anchor="middle" style="white-space: pre;" direction="ltr">访问</text><text x="87" y="43.666666666666664" font-family="Helvetica, Segoe UI Emoji" font-size="20px" fill="#000000" text-anchor="middle" style="white-space: pre;" direction="ltr"></text><text x="87" y="68" font-family="Helvetica, Segoe UI Emoji" font-size="20px" fill="#000000" text-anchor="middle" style="white-space: pre;" direction="ltr">lambdadriver.space</text></g><g transform="translate(438.1001892089844 339.83703685028394) rotate(0 61.5 11.5)"><text x="61.5" y="19" font-family="Helvetica, Segoe UI Emoji" font-size="20px" fill="#000000" text-anchor="middle" style="white-space: pre;" direction="ltr">Caddy Server</text></g><g transform="translate(924.7001037597656 286.6370551608308) rotate(0 82.5 11.5)"><text x="82.5" y="19" font-family="Helvetica, Segoe UI Emoji" font-size="20px" fill="#000000" text-anchor="middle" style="white-space: pre;" direction="ltr">file_server (builtin)</text></g><g transform="translate(927.6000061035156 328.6371772311433) rotate(0 81.15650143830669 36.59999084472656)"><text x="81.15650143830669" y="29.599990844726555" font-family="Helvetica, Segoe UI Emoji" font-size="31.8260789954144px" fill="#000000" text-anchor="middle" style="white-space: pre;" direction="ltr">docutil</text><text x="81.15650143830669" y="66.19998168945311" font-family="Helvetica, Segoe UI Emoji" font-size="31.8260789954144px" fill="#000000" text-anchor="middle" style="white-space: pre;" direction="ltr">(static files)</text></g><g transform="translate(924.8000793457031 767.8370978854402) rotate(0 75 11.5)"><text x="75" y="19" font-family="Helvetica, Segoe UI Emoji" font-size="20px" fill="#000000" text-anchor="middle" style="white-space: pre;" direction="ltr">MN_Search_API</text></g><g transform="translate(934.0000305175781 628.8370978854402) rotate(0 73 11.5)"><text x="73" y="19" font-family="Helvetica, Segoe UI Emoji" font-size="20px" fill="#000000" text-anchor="middle" style="white-space: pre;" direction="ltr">MN_deploy_API</text></g><g stroke-linecap="round" transform="translate(898.0001525878906 593.9371039889559) rotate(0 109.5999755859375 40.79997253417969)"><path d="M0 0 C0 0, 0 0, 0 0 M0 0 C0 0, 0 0, 0 0 M-0.89 6.03 C1.56 5.61, 2.2 3.44, 4.74 0.7 M-0.01 6.73 C1.52 4.39, 3.03 1.93, 4.81 0.12 M0.17 12.12 C3.28 7.38, 4.78 6.57, 10.57 1.45 M-0.05 11.79 C3.7 7.99, 7.31 3.18, 11.32 -0.49 M0.22 18.25 C7.54 11.3, 10.7 2.18, 14.9 1.2 M-0.85 18.43 C4.2 13.83, 9.48 9.15, 16.42 -0.28 M-1.52 22.57 C3.95 17.04, 10.12 12.86, 21.92 1.63 M-0.19 23.29 C6.32 17.35, 13 10.26, 20.78 -0.75 M1.55 31.88 C5.95 21.59, 17.12 11.98, 24.46 -1.52 M0.69 30.76 C8.89 19.56, 18.1 9.52, 26.64 0.03 M-0.44 38.29 C10.29 23.84, 22.98 12.03, 31.5 -1.26 M0.57 36.73 C10.25 25.29, 20.48 13.97, 31.22 0.7 M-1.44 42.02 C11.91 28.6, 25.43 15.38, 35.26 1.63 M-0.49 41.98 C13.27 28.54, 26.39 12.36, 35.95 0.83 M-0.94 48.26 C8.05 38.83, 18.18 26.46, 42.94 1.09 M-0.82 48.73 C12.06 34.92, 23.21 21.98, 42.97 0.09 M-0.99 54.45 C17.51 36.09, 31.39 19.39, 47.86 -1.59 M0.71 54.51 C14.47 37.67, 29.7 19.56, 48.19 0.46 M1.02 62.87 C17.09 43.37, 31.1 21.67, 53.21 0.74 M-0.25 60.44 C15.41 41.12, 33.12 22.97, 53.79 -0.53 M-0.65 67.9 C23.07 40.85, 46.33 15.2, 59.16 1.72 M0.33 67.19 C15.73 48.83, 30.64 32.26, 57.28 0.41 M-1.56 72.89 C12.76 55.12, 27.16 38.23, 62.62 -0.05 M-0.85 73.43 C21.11 48.06, 44.69 20.44, 64.02 -0.46 M1.33 80.96 C16.2 59.65, 35.45 38.72, 68.39 -0.37 M-1.06 79.3 C16.64 60.46, 33.34 41, 68.22 0.35 M0.01 82.76 C20.47 63.73, 35.09 42.49, 72.85 1.09 M0.61 83.9 C23.51 59.42, 45.01 33.59, 73.54 0.69 M5.3 82.34 C30.7 55.37, 58.21 25.47, 79.15 1.36 M7.95 83.72 C30.27 56.5, 55.52 29.11, 80.07 1.11 M13.32 82.5 C25.4 66.89, 41.37 50.96, 84.9 0.72 M12.01 83.7 C28.48 66.14, 44.15 47.62, 84.86 -0.04 M16.45 83.01 C43.7 56.5, 69.46 27.83, 89.35 -0.72 M18.85 84.09 C45.16 48.79, 75.12 15.22, 90.98 -0.3 M23.23 84.95 C49.74 52.76, 78.1 20.69, 97.11 -0.47 M23.26 82.48 C45.66 56.53, 71 29.75, 96.03 0.07 M29.99 81.3 C58.43 52.5, 85.79 18.39, 101.28 -1.08 M29.35 82.98 C56.27 51.92, 82.33 22.21, 101.17 0.32 M32.13 81.5 C48.87 62.91, 68.12 46.07, 107.19 0.39 M33.52 82.48 C50.02 63.52, 69.56 42.84, 105.69 0.42 M39.74 81.97 C55.02 62.61, 72.46 44.02, 111.56 0.98 M39.03 83.84 C64.59 55, 88.21 27.03, 111.96 -0.69 M44.78 82.72 C60.15 64.94, 82.16 42.12, 117.52 -0.92 M45.03 84.12 C67.17 57.62, 90.01 32.06, 115.4 0.83 M48.85 81.89 C74.84 52.92, 100.15 22.7, 121.13 -0.71 M49.06 83.8 C67.89 61.86, 88.45 40.82, 122.73 0.2 M54.26 84.32 C79.58 58.77, 100.25 32.39, 127.79 -0.76 M54.11 82.99 C76.32 58.12, 95.8 33.89, 127.29 -0.47 M59.83 84.11 C77.39 65.05, 94.99 41.27, 133.31 -1.14 M61.16 82.65 C79.18 60.02, 99.58 39.1, 131.93 0.7 M63.99 85.19 C88.76 55.79, 112.87 26.56, 137.08 -1.03 M66.16 82.84 C83.74 61.36, 101.43 40.54, 137.05 0.68 M72.54 83.85 C92.52 58.85, 112.01 36.47, 143.75 1.84 M70.64 83.88 C96.54 52.81, 123.13 22.68, 144.11 -0.33 M77.76 81.35 C105.11 50.61, 130.83 19.23, 148.44 1.75 M76.66 82.62 C96.54 59.23, 117.11 34.69, 147.66 0.37 M82.16 82.45 C100.07 62.26, 118.5 41.27, 154.43 1.55 M81.4 83.63 C103.13 56.49, 124.37 31.14, 152.88 0.15 M85.67 84 C101.49 64.34, 116.72 46.91, 158.3 -0.78 M86.17 83.43 C102 66.05, 116.34 49.38, 159.63 0.34 M93.25 81.44 C111.62 61.5, 128.69 40.39, 163.69 0.45 M92.92 83.7 C113.82 55.65, 137.52 30.09, 163.94 0.37 M98.18 81.47 C120.05 57.45, 142.07 33.58, 170.41 1.19 M97.31 83.54 C114.63 64.65, 129.43 46.06, 170.08 1.03 M101.02 85.24 C119.07 64.8, 136.42 47.32, 176.21 0.18 M102.56 83.36 C117.24 66.66, 132.95 49.23, 176.06 0.7 M108.11 81.27 C125.72 65.29, 138.23 47.28, 181.88 1.59 M107.79 83.4 C129.77 58.29, 152.63 32.56, 179.7 0.53 M112.01 84.18 C139.33 54.6, 167.38 23.64, 185.01 -0.49 M113.29 83.23 C128.67 63.51, 146.52 44.02, 186.1 0.7 M116.59 84.05 C134.76 61.11, 155.56 42.08, 189.15 0.55 M119.42 82.64 C146.78 49.95, 174.94 17.54, 189.75 -0.39 M122.14 84.98 C146.82 59.2, 167.17 32.75, 197.47 0.38 M122.64 82.92 C140.71 64.48, 156.01 46.23, 195.98 0.11 M131.13 81.63 C156.18 51.23, 181.45 20.49, 202 -1.68 M129.04 83.05 C155.62 51.86, 183.48 20.26, 201.07 0.72 M133.32 81.79 C161.14 52.66, 186.96 23.79, 205.28 -2.12 M134.39 82.93 C155.55 59.74, 175.55 37.88, 207.72 -0.17 M139.55 82.97 C163.79 57.79, 187.63 27.95, 213.57 1.33 M139.62 83.59 C164.04 53.97, 188.35 26.17, 211.1 0.95 M142.81 82.92 C167.16 55.77, 189.06 33.17, 218.51 -1.73 M144.9 84.43 C163.25 61.61, 183.69 39.17, 218.39 -1.08 M152.03 84.21 C170.86 59.08, 187.01 39.5, 221.02 1.68 M151.17 83.4 C171.33 57.88, 192.32 34.21, 221.51 0.62 M157.21 84.8 C176.71 55.69, 202.13 31.12, 220.34 9.25 M156.12 84.26 C177.28 58.48, 198.97 33.18, 221.95 7.95 M159.1 82.61 C184.19 59.78, 205.06 34.28, 222.31 13.14 M161.79 82.78 C179.58 62.39, 195.76 41.77, 222.01 14.23 M166.45 82.06 C187.83 57.5, 208.85 33.79, 219.43 20.87 M166.55 83.96 C185.74 60.88, 204.31 39.43, 220.58 20.79 M173.63 82.63 C190.31 60.55, 209.26 40.07, 221.12 26.81 M172.67 82.22 C185.12 68.91, 198.43 53.81, 220.29 27.1 M177.85 81.46 C193.24 64.68, 209.32 47.51, 220.17 33.05 M176.3 82.7 C191.36 68.17, 203.68 50.88, 221.87 31.27 M180.83 81.86 C193.5 68.97, 206.39 56.09, 221.27 40.21 M183.06 83.38 C196.69 67.78, 210.15 51.33, 221.4 37.52 M186.01 83.92 C195.55 73.61, 207.3 61.64, 221.98 44.69 M188.03 82.36 C198.9 70.15, 210.77 56.27, 221.23 43.14 M192.24 81.04 C203.88 72.78, 214.36 59.17, 221.96 49.31 M193.3 82.06 C201.11 73.06, 209.2 63.84, 221.98 49.72 M198.93 82.52 C206.24 76.03, 212.56 66.48, 219.97 56.56 M197.99 82.46 C203.52 77.23, 209.44 71.21, 221.47 56.1 M203.77 82.08 C207.87 77.17, 211.83 69.64, 222.38 63.46 M203.8 83.27 C209.3 76.29, 214.01 70.57, 221.94 61.84 M207.94 84.43 C213.25 77.5, 217.53 74.74, 221.55 70.28 M208.99 83.22 C213.91 77.96, 218.76 73.34, 220.49 69.69 M213.9 82.41 C216.9 81.07, 219.81 78.08, 222.32 75.45 M214.12 82.48 C216.38 80.75, 218.57 77.86, 221.04 74.08" stroke="#82c91e" stroke-width="0.5" fill="none"></path><path d="M-0.06 0.72 C57.52 2.96, 116.84 3.11, 219.95 -0.58 M-0.31 -0.71 C70.87 1.43, 140.43 1.34, 219.83 -0.22 M218.65 0.44 C221.12 33.37, 220.39 65.22, 218.77 79.65 M219.49 0.22 C218.4 30.37, 218.43 60.11, 219.66 82.29 M219.53 80.61 C157.48 82.67, 93.8 82.09, 1.12 80.91 M218.61 81.56 C141.04 80.4, 60.91 79.25, 0.17 81.02 M0.7 81.34 C0.66 63.22, -0.57 42.51, 0.66 -1.33 M-0.26 82.3 C0.53 52.29, 0.86 23.06, -0.01 0.76" stroke="#5c940d" stroke-width="1" fill="none"></path></g><g stroke-linecap="round" transform="translate(900.8002014160156 734.3371589205965) rotate(0 109.5999755859375 40.79997253417969)"><path d="M0 0 C0 0, 0 0, 0 0 M0 0 C0 0, 0 0, 0 0 M-1.02 6.08 C1.7 4.52, 3.65 3.27, 5.19 0.56 M-0.06 6.15 C1.22 5.09, 2.44 3.45, 5.38 0.65 M0.24 10.91 C2 7.55, 7.51 3.9, 9.97 0.82 M0.52 12.71 C3.17 9.94, 4.44 5.9, 10.99 0.3 M-1.79 19.19 C2.78 15.34, 8.34 10.63, 16.02 -1.34 M-0.08 19.14 C3.92 13.33, 7.36 9.25, 16 0.95 M0.76 25.28 C8.13 13.39, 14.13 6.9, 22.96 -0.37 M-0.36 24.48 C7.6 15.53, 15.42 6.63, 21.68 0.18 M-0.4 32.05 C7.76 21.34, 13.89 13.33, 25.16 -1.1 M-0.02 30.53 C10.53 18.24, 20.93 7.82, 26.78 -0.32 M0.22 36.97 C8.83 27.2, 15.43 21.77, 30.66 -1.04 M0.67 36.64 C7.4 27.25, 15.77 18.57, 32.1 -0.45 M0.48 42.54 C8.34 32.15, 20.55 20.35, 38.31 2.25 M0.26 42.4 C9.55 33.02, 17.35 23.17, 37.59 -0.31 M-0.78 48.98 C10.75 37.24, 18.31 25.48, 43.62 1.61 M0.33 49.21 C13.84 32.82, 29.47 15.32, 42.79 0.05 M1.44 53.38 C14.42 35.34, 33.76 16.38, 48.03 0.72 M-0.7 55.26 C13.12 40.64, 26.11 25.99, 47.82 -0.04 M-0.44 62.2 C14.82 44.66, 31.14 25.8, 52.75 0.51 M-0.57 60.86 C19.72 38, 38.38 16.21, 53.87 0.35 M-1.4 66.38 C10.7 52.09, 25.03 39.92, 60.05 -0.35 M0.62 67.44 C10.4 54.64, 22.65 40.43, 58.09 1.07 M0.81 74.09 C22.81 45.67, 46.44 17.59, 63.09 0.93 M0.63 73.09 C13.39 57.42, 26.6 42.36, 64.14 -0.84 M0.2 77.41 C15.1 59.86, 32 43.8, 67.24 -0.26 M0.39 79.1 C12.97 62.69, 28.37 48.06, 69.14 0.14 M3.06 83.97 C17.54 66.85, 32.77 50.71, 75.85 -1.51 M2.07 84.47 C28.86 53.29, 56.26 20.47, 74.09 0.28 M7.88 82.68 C34.86 54.15, 59.88 23.18, 79.62 -0.96 M7.73 83.44 C27.45 59.4, 47.63 36.82, 78.91 -0.1 M14.07 84.96 C30.77 63.38, 44.9 46.82, 86.38 1.15 M11.62 83.6 C39.43 51.78, 69.06 18.24, 84.85 -0.39 M18.93 82.81 C41.12 58.42, 63.11 31.04, 90.4 -1.08 M17.88 83.81 C43.92 55.73, 68.32 27.86, 89.5 -0.35 M23.72 85.11 C49.43 51.97, 77.09 21.32, 94.2 -0.79 M22.25 83.29 C51.42 51.33, 79.36 17.79, 95.24 0.11 M27.47 83.98 C47.43 65.23, 63.63 43.93, 101.9 -1.9 M28.46 83.87 C51.11 57.81, 73.93 32.48, 100.19 0.26 M32.24 83.28 C57.23 56.37, 83.06 29.13, 104.99 -0.68 M33.3 83.33 C53.83 59.27, 74.5 33.73, 106.74 -1.2 M41.03 84.98 C63.55 57.23, 86.28 28.57, 111.64 -1.33 M39.02 83.61 C67.3 49.27, 95.55 18.16, 110.44 -0.82 M43 81.67 C61.19 61.94, 80.64 40.82, 115.91 -0.77 M44.3 84.14 C60.99 65.72, 76.94 45.91, 115.87 0.57 M51.33 82.93 C70.5 60.28, 88.11 36.31, 122.27 0.02 M48.77 82.08 C66.2 63.21, 83.48 42.56, 122.86 -0.55 M56.53 83.82 C72.02 61.39, 92.48 37.49, 128.26 -1.24 M53.92 83.66 C83.2 51.68, 110.22 21.29, 127.76 0.11 M60.23 83.28 C74.46 63.25, 91.65 43.53, 131.61 0.93 M59.61 82.41 C87.42 51.07, 115.93 19.79, 132.24 0.67 M64.52 84.6 C91.61 52.11, 121.22 21.65, 137.54 -1.65 M65.01 82.46 C83.55 63.12, 102.29 41.22, 137.26 -0.57 M69.74 81.83 C99.19 50.63, 129.28 17.83, 142.61 1.49 M71.1 82.81 C97.15 52.13, 124.56 21.66, 142.55 0.04 M75.81 84.25 C98.89 56.75, 124.92 29.18, 150.02 2.01 M75.61 82.65 C94.98 59.29, 115.55 36.4, 148.56 -0.11 M80.03 82.74 C98.05 61.53, 116.67 39.12, 153.41 1.14 M81.5 83.57 C99.61 62.09, 118.24 39.78, 153.93 -0.69 M86.4 82.33 C112.6 53.28, 138.19 25.46, 160.18 0.13 M85.92 82.94 C112.49 53.19, 139.04 23.47, 159.49 -0.08 M91.43 84.5 C118.43 54.58, 143.93 23.36, 163.3 0.68 M92.69 82.07 C114.51 57.74, 136.82 31.05, 163.68 -0.16 M97.46 83.75 C115.5 64.65, 131.4 41.81, 168.62 -0.6 M97.29 83.61 C121.24 56.91, 146.23 27.48, 168.57 0.04 M101.78 82.7 C124.77 58.69, 149.75 30.87, 174.7 0.23 M102.62 84.5 C122.97 58.97, 144.72 35.65, 175.28 -0.45 M109.29 84.79 C127.13 61.14, 144.44 39.07, 180.1 0.89 M107.28 83.52 C131.85 55.87, 158.33 26.6, 180 -0.19 M111.02 85 C126.88 65.52, 142.56 51.87, 187.21 1.28 M112.84 83.87 C141.86 49.58, 169.53 17.87, 185.39 -0.08 M119.36 83.02 C134.08 64.57, 152.01 42.59, 189.55 1.98 M118.61 83.11 C134.66 64.63, 150.11 48.04, 190.64 0.92 M123.3 81.69 C153.32 50.8, 180.44 18.19, 195.58 0.64 M123.63 83.54 C144.2 59.65, 166.3 36.3, 196.83 -0.94 M128.29 83.41 C149.3 59.57, 165.46 39.29, 200.04 -1.57 M128.15 83.4 C153.56 56.48, 176.64 28.95, 201.02 0.1 M135.56 84.63 C153.49 60.75, 177.45 35.79, 207.73 0.47 M133.58 83.19 C154.3 58.87, 175.93 35.95, 207.6 0.6 M137.88 84.24 C155.22 66.82, 167.78 48.52, 212.82 -1.69 M139.97 82.97 C162 58.48, 183.47 31.35, 212.35 0.17 M142.93 82.03 C172.66 50.69, 199.92 19.1, 218.7 -1.71 M143.97 82.59 C172.21 52.4, 198.26 21.26, 217.86 -1.22 M149.06 83.13 C178.54 51.23, 206.49 20.64, 219.95 1.56 M150.29 83 C175.47 53.78, 202.46 23.11, 222.2 0.55 M156.66 84.45 C169.74 68.33, 181.78 52, 221.51 9.24 M155.72 82.56 C180.44 55.18, 205.41 27.19, 221.74 7.73 M159.92 83.08 C180.93 58.8, 201.18 39.25, 221.12 12.03 M160.53 82.24 C182.37 57.89, 204.01 34.9, 222.25 14.25 M166.17 82.78 C189.98 58.44, 210.45 32.17, 219.46 19 M166.47 84.01 C188.62 57.38, 211.28 33.32, 220.68 19.3 M171.71 82.39 C191.75 61.58, 208.61 42.58, 220.56 25 M172.24 82.03 C184.35 68.3, 197.27 52.97, 220.24 26.54 M177.06 82.27 C188.86 72.33, 198.92 61.7, 220.38 31.32 M177.48 82.96 C193.7 64.37, 209.06 44.34, 220.65 31.68 M182.84 84.73 C190.21 73.19, 201.08 62.91, 221.43 36.43 M182.19 83.25 C196.58 66.09, 210.76 50.22, 221.38 39.02 M189.04 84.49 C196.56 73.56, 204.61 61.95, 219.94 45.09 M186.72 83.45 C198.46 70.94, 209.85 57.41, 220.5 43.43 M194.87 81.11 C204.65 70.63, 212.53 58.97, 221.11 50.88 M193.28 83.41 C202.53 73.5, 209.77 62.77, 220.59 50.68 M198.02 81.39 C203.5 76.27, 213.24 67.3, 222.33 57.3 M197.82 82.64 C205.89 75.32, 212.03 66.36, 221.61 57.43 M202.52 83.87 C209.18 77.91, 214.39 73.46, 219.75 60.5 M203.6 83.56 C210.61 75.16, 216.69 68.83, 222.1 61.79 M209.96 85.14 C212.82 80.84, 216.99 75.02, 220.88 69.94 M209.06 83.74 C211.81 78.46, 214.99 75.75, 221.46 68.86 M215 83.88 C216.76 80.63, 216.51 80.12, 221.57 75.22 M213.77 83.12 C216.92 79.52, 219.13 77.03, 221.63 74.09" stroke="#fab005" stroke-width="0.5" fill="none"></path><path d="M1.05 0.61 C60.49 -1.74, 117.76 -0.16, 219.06 0.76 M0.21 -0.61 C71.9 1.79, 144.67 1.24, 219.97 -0.19 M220.9 -1.85 C219.77 27.31, 217.94 53.24, 217.86 79.85 M219.74 -0.4 C218.37 19.12, 218.49 37.22, 219.62 82.45 M219.96 81.4 C145.25 83.12, 71.15 83.64, -0.36 81.06 M219.45 82.2 C159.62 82.28, 99.55 81.46, 0.4 82.08 M0.61 82.49 C0.62 61.04, 1.18 39.31, -1.05 1.8 M-0.83 82.38 C-0.42 57.92, -0.74 33.76, 0.31 0.89" stroke="#e67700" stroke-width="1" fill="none"></path></g><g stroke-linecap="round" transform="translate(902.0002746582031 997.1372077487215) rotate(0 109.5999755859375 40.79997253417969)"><path d="M0 0 C0 0, 0 0, 0 0 M0 0 C0 0, 0 0, 0 0 M-0.75 7.2 C1.47 5.08, 3.25 1.6, 4.86 0.51 M-0.59 6.34 C1.15 4.53, 3.41 2.09, 4.83 0.75 M-0.4 13.54 C2.96 9.22, 7.04 3.89, 9.65 -0.57 M0.61 11.39 C3.84 8.48, 6.93 4.6, 10.15 -0.01 M-1.88 20.21 C5.72 10.3, 10.27 5.24, 17.37 1.87 M-0.65 18.85 C4.17 12.48, 9.38 8.44, 15.97 -0.09 M1.07 23.19 C9.07 16.52, 13.87 5.16, 20.44 -2.02 M-0.24 24.24 C8.59 15.71, 15.87 6.01, 21.2 -0.73 M0.79 30.37 C9.71 22.17, 15.71 11.88, 24.28 -0.23 M0.87 30.73 C9.89 17.76, 21.11 6.26, 26.91 0.43 M-1.3 36.16 C8.16 28.11, 13.4 17.36, 30.09 -1.4 M-0.68 37.77 C9.3 25.74, 16.47 17.31, 32.2 0.11 M-0.4 42.62 C13.43 27.41, 26.62 12.52, 35.79 -0.41 M-0.18 43.49 C13.42 28.19, 26.72 12.17, 36.19 0.66 M0.17 50.36 C9.24 35.97, 22.2 21.93, 41.67 -1.83 M0.45 48.1 C14.74 32.62, 27.66 15.99, 43.48 0.21 M1.98 55.81 C9.93 42.52, 21.43 29.95, 47.62 -1.34 M-0.42 54.9 C12.76 40.79, 24.72 25.62, 48.21 -0.01 M0.68 61.77 C9.78 46.79, 24.43 34.1, 54.8 -1.16 M-0.18 61.46 C17.1 39.72, 35.55 19.27, 53.58 0.44 M-0.96 66.74 C9.88 53.68, 21.79 39.91, 58.84 0.47 M-1.03 66.64 C11.64 51.69, 25.13 38.74, 57.91 0.51 M-0.58 71.73 C19.17 50.91, 41.92 28.51, 63.5 -2.08 M-0.7 74 C15.78 55.7, 30.77 38.02, 64.12 -0.16 M-1.78 81.08 C18.48 59.69, 36.85 35.64, 69.88 0.66 M-0.13 80.31 C14.52 61.93, 27.99 45.66, 67.82 -0.02 M2.24 84.25 C17.62 64.52, 31.71 45.52, 74.09 -2.12 M1.69 84.01 C23.06 59.66, 44.19 33.57, 74.79 0.62 M8.53 83.64 C25.42 60.06, 45.61 38.87, 80.47 1.03 M7.46 82.64 C27.46 58.57, 48.55 34.85, 79.05 0.82 M12.91 81.95 C31.73 60.05, 51.2 38.23, 83.25 0.36 M12.9 82.93 C33.21 59.37, 55.35 35.54, 84.36 -0.82 M18.85 82.43 C45.53 54.05, 72.88 23.41, 91.74 -0.47 M17.52 82.61 C44.85 52.31, 72.98 20.58, 90.29 -0.88 M23.45 83.23 C43.75 63.23, 61.48 37.35, 96.01 0.12 M23.38 83.49 C43.11 60.59, 63.8 34.85, 95.7 -0.94 M27.04 81.9 C50.32 59.13, 69.85 36.36, 100.11 0.26 M28.57 83.61 C47.33 63.16, 63.82 42.33, 100.81 -0.34 M34.44 82.06 C52.68 62.83, 69.7 41.45, 107.73 -0.88 M33.32 82.51 C56.37 56.34, 78.7 31.5, 106.72 0.01 M40.59 81.85 C64.68 50.19, 92.67 19.6, 111.39 -0.5 M39.46 83.43 C64.52 52.09, 93.16 20.3, 111.45 0.89 M43.79 84.59 C68.34 53.95, 94.46 25.69, 117.47 1.19 M44.5 82.51 C64.43 60.29, 84.7 37.96, 116.78 -0.32 M51.34 83.26 C77.75 51.6, 104.38 20.8, 122.7 -0.32 M49.14 83.04 C67.83 62.29, 85.47 42.99, 121.63 -0.1 M52.76 83.12 C78.42 59.7, 97.36 32.28, 128.59 -0.93 M55.3 82.66 C70.33 63.03, 88.25 43.5, 126.28 -0.37 M61.47 82.24 C80.72 62.18, 97.74 39.71, 132.51 -0.65 M59.64 83.57 C80.51 58.85, 100.71 35.16, 132.35 -0.51 M63.96 82.1 C91.31 54.92, 117.89 24.51, 138.84 0.94 M65.64 83.8 C89.64 56, 114.08 29.86, 137.73 0.86 M69.49 84.09 C96.24 51.54, 123.71 20.14, 142.65 -0.73 M71.06 83.34 C94.15 56.71, 118.64 30.31, 143.19 -0.89 M75.31 84.14 C101.94 51.15, 130.93 21.79, 148.95 1.36 M76.04 83.45 C95.12 62.47, 112.56 42.83, 147.37 -0.21 M80.29 81.23 C105.84 58.46, 127.63 31.68, 152.29 0.32 M82.58 82.82 C102.74 57.72, 123.39 33.62, 153.31 -0.11 M86.13 84.01 C108.92 56.26, 135.79 29.9, 160.01 0.03 M86.6 82.82 C113.99 53.1, 140.19 20.68, 159.52 0.02 M91.06 83.27 C107.25 64.23, 124.27 47.14, 163.92 1.56 M91.46 83.67 C118.04 52.63, 144.01 21.62, 164.45 -0.37 M99.03 82.62 C125.85 52.9, 150.85 19.14, 167.46 -0.16 M97.98 83.75 C113.9 62.72, 131.28 43.51, 169.57 -0.71 M100.71 83.71 C124.06 55.94, 151.64 27.05, 173.41 -1.83 M101.37 84.46 C119.38 65.43, 135.95 46.53, 175.9 -0.19 M105.99 85.06 C122.73 63.67, 136.27 47.59, 179.06 0.82 M108.45 83.78 C123.1 64.41, 140.83 44.15, 181.01 0.55 M114.44 82.94 C126.69 66.51, 144.54 46.97, 183.93 -0.47 M112.04 82.68 C140.44 53.59, 167.11 23.09, 185.58 0.57 M118.34 82.57 C138.51 57.2, 160.53 31.35, 188.93 -1.84 M118.82 83.12 C140.77 54.77, 165.02 27.4, 190.4 0.9 M121.85 82.78 C143.58 59.81, 167.59 36.09, 196.05 -0.85 M124.32 84.26 C139.45 66.51, 153.37 50.28, 196.93 -0.28 M128.73 82.52 C149.97 61.84, 166.53 39.28, 199.54 0.2 M129.5 83.65 C155.86 50.74, 181.75 19.93, 200.35 0.62 M133.51 85.46 C160.16 54.85, 184.53 23.7, 205.62 0.71 M133.76 83.53 C160.8 52.83, 186.67 23.17, 206.02 -0.24 M141.17 82.48 C160.15 58.03, 180.27 32.88, 211.67 -1.56 M139.47 83.92 C164.56 51.9, 191.69 23.65, 212.59 0.15 M146.36 84.34 C162.57 61.36, 180.98 43.96, 217.89 0.02 M145.02 83 C159.73 66.14, 175.87 47.7, 218.47 -1.16 M149.02 84.14 C173.09 56.6, 192.31 31.74, 221.18 3.05 M151.31 82.16 C176.12 53.53, 200.47 23.68, 221.59 0.63 M153.66 81.96 C178.9 58.08, 203.58 31.33, 222.2 7.38 M154.83 84.36 C174.38 60.12, 194.72 38.93, 221.26 8.09 M160.97 83.37 C172.49 70.16, 185.44 52.71, 219.68 14.89 M160.15 83.25 C175.05 67.19, 188.91 52.03, 222.35 12.91 M167.05 84.01 C185.8 60.96, 206.15 34.36, 220.41 20.4 M166.99 83.46 C183.04 62.75, 201.34 43.23, 222.11 19.5 M171.06 84.17 C184.42 67.71, 198.02 52.18, 219.54 25.14 M170.71 83.76 C183.45 69.77, 194.83 55.34, 220.33 26.13 M178.47 85.34 C191.38 67.67, 203.53 53.48, 221.05 31.61 M177.38 83.33 C192.19 65.35, 209.12 46.78, 220.66 32.46 M180.67 84.73 C192.93 70.44, 200.21 61.01, 220.24 40.39 M182.28 82.93 C193.41 69.75, 204.8 57.92, 220.89 37.94 M186.22 83.93 C194.57 74.05, 202.79 65.87, 222.73 45.45 M186.96 83.17 C195.43 73.3, 205.49 63.06, 220.85 43.82 M192.52 83.37 C203.64 69.87, 211.96 57.88, 219.66 50.69 M193.75 83.67 C200.75 72.64, 209.55 63.71, 221.46 51.38 M196.97 82.96 C206.03 74.18, 215.98 65.6, 222.72 57.29 M198.78 83.35 C203.84 76.4, 208.19 70.56, 220.54 55.86 M204.69 84.58 C210.37 75.53, 213.62 69.21, 222.65 64.48 M202.56 83.57 C207.49 77.72, 211.58 74.43, 221.21 62.94 M207.74 84.65 C213.01 78.26, 214.07 75.45, 221.61 68.42 M208.93 82.45 C211.11 80.22, 215.85 75.23, 221.13 68.28 M213.31 81.82 C215.97 81.05, 216.79 78.55, 221.97 74.99 M213.95 82.31 C216.91 79.93, 219.5 77.33, 221.42 74.39" stroke="#fa5252" stroke-width="0.5" fill="none"></path><path d="M0.06 1.51 C87.06 -1.44, 169.61 -1.83, 218.63 0.16 M0.29 0.74 C48.61 0.37, 97.73 0.34, 219.39 -0.85 M219.54 -1.58 C219.38 20.89, 216.62 39.9, 218.61 81.96 M219.17 -0.84 C218.41 23.9, 219.09 47.41, 218.68 80.68 M218.43 82.34 C150.61 81.63, 80.4 79.94, -1.48 82.91 M218.6 81.29 C168.52 81.15, 117.99 81.41, 0.26 80.85 M1.6 79.62 C-0.75 64.78, -2.46 42.53, 0.81 0.93 M-0.27 81.8 C-1.44 54.37, 0.1 26.85, 0.19 -0.71" stroke="#a61e4d" stroke-width="1" fill="none"></path></g><g stroke-linecap="round" transform="translate(405.2002868652344 311.53714061004956) rotate(0 109.5999755859375 40.79997253417969)"><path d="M0 0 C0 0, 0 0, 0 0 M0 0 C0 0, 0 0, 0 0 M-0.91 5.93 C1.12 5.39, 3.1 3.26, 4.19 0.7 M-0.57 6.49 C0.68 4.93, 1.86 4.22, 5.28 0.67 M-0.23 11.74 C2.33 7.97, 4.85 6.78, 9.12 -0.19 M0.19 11.6 C3.31 8.05, 6.53 4.43, 10 -0.34 M-0.46 16.88 C6.92 11.9, 9.8 4.97, 13.66 1.06 M-0.67 17.57 C5.03 14.04, 8.79 8.53, 14.65 -0.07 M1.08 23.83 C5.9 19.41, 10.68 12.23, 22.7 1.09 M0.94 24.75 C6.72 16.48, 11 11.56, 21.81 -0.57 M1.6 30.33 C6.46 22.5, 11.25 16.66, 25.84 0.7 M0.22 30.3 C9.26 20.3, 17.7 9.09, 25.54 0.24 M1.53 36.2 C9.14 26.51, 21.82 13.81, 33.86 1.88 M-1.24 37.83 C6.02 30.24, 12.66 21.91, 32.08 0.64 M0.99 43.96 C9 32.47, 18.77 20.13, 37.7 -1.71 M0.75 42.88 C8.46 33.93, 15.51 23.52, 37.63 -0.63 M-1.6 49.54 C15.37 30.6, 31.87 9.34, 44.23 -0.31 M0.29 49.44 C15.21 31.3, 29.27 15.44, 41.85 -1.1 M1.61 55.45 C11.55 41.46, 22.31 28.79, 47.59 -1.67 M0.16 53.95 C11.28 41.71, 20.27 30.87, 47.81 -0.31 M-0.77 61.23 C14.53 46.57, 25.44 30.33, 52.97 1.44 M-0.17 61.64 C18.58 38.48, 38.9 16.05, 53.49 -0.51 M-0.19 68.6 C10 53.06, 23.85 37.39, 59.98 1.64 M0.24 66.49 C20.57 44.23, 39.57 19.48, 57.68 -0.37 M-1.62 72.21 C14.75 55.65, 29.97 38.13, 62.39 1.39 M1.05 73.81 C13.5 57.39, 26.15 42.18, 63.54 0.27 M1.1 80.29 C25.3 48.03, 53.9 17.01, 67.51 -0.59 M-1.1 79.78 C25.09 50.42, 52.08 21.44, 68.49 0.73 M-0.31 84.29 C22.79 56.33, 48.28 28.77, 75.96 -0.86 M2.55 82.91 C22.16 61.63, 41.38 39.07, 73.72 0.69 M5.39 82.68 C28.17 56.49, 50.78 32.91, 80.99 -0.84 M6.48 82.65 C28.94 59.47, 48.95 36.66, 80.16 0.58 M11.69 84.06 C41.88 52.88, 67.34 18.08, 84.3 1.63 M12.21 84.43 C27.08 67.96, 41.85 49.2, 85.92 -1.24 M17.25 83.38 C45.26 53.97, 68.6 26.66, 91.36 -1.25 M16.99 82.59 C38.13 59.35, 57.66 36.73, 90.29 -0.14 M22.02 84.08 C47.23 57.19, 70.06 32.78, 95.2 1.15 M22.5 82.53 C46.66 56.34, 69.99 30.14, 95.19 0.06 M27.03 82.57 C49.46 56.61, 71.39 35.36, 99.73 0.39 M28.28 83.9 C55.98 50.81, 83.25 19.3, 101.15 -0.66 M33.68 82.68 C58.66 56, 83.91 27.35, 107.59 1.34 M33.75 82.93 C49.55 66.49, 64.67 48.94, 106.76 -1.22 M39.57 84.02 C67.48 49.85, 92.38 21.09, 111.38 0.65 M39.63 83.69 C65.98 52.52, 90.78 22.9, 110.68 0.85 M45.81 84.53 C64.91 57.72, 84.24 35.21, 116.91 -0.08 M43.96 84.39 C64.22 60.08, 81.73 38.65, 116.38 -0.59 M48.83 84.82 C79.73 50.74, 106.3 18.49, 121.73 0.41 M49.51 82.64 C70.7 58.94, 91.45 33.99, 121.49 0.3 M55.7 82.67 C75.89 56.06, 98.19 32.9, 127.73 -0.28 M53.81 83.76 C71.68 64.73, 86.21 47.06, 125.94 0.79 M59.93 81.42 C77.54 65.92, 94.62 47.18, 134.34 -1.07 M60.56 82.03 C85.35 53.43, 111.03 24.3, 131.87 0.68 M64.8 84.46 C91.97 51.51, 116.5 24.69, 135.79 -0.87 M65.65 82.98 C92.33 53.43, 118.57 22.8, 138.52 -0.44 M71.16 83.61 C90.8 60.36, 113.31 35.07, 142.96 -0.22 M70.59 82.69 C87.13 65.59, 102.63 46.32, 142.77 -0.93 M76.73 81.61 C99.61 53.91, 125.23 23.81, 148.67 -0.82 M76.5 84.05 C102.75 53.63, 128.13 23.73, 148.05 0.22 M79.95 84.52 C105.89 56.18, 128.96 29.01, 153.48 0.89 M81.57 82.05 C104.55 58.3, 125.86 34.4, 152.83 -0.39 M87.25 84.18 C111.62 52.8, 139.49 22.18, 159.07 2.21 M87.04 84.06 C101.2 65.24, 117.82 47.85, 159.61 0.82 M92.9 82.62 C120.65 51.86, 149.1 18.77, 165.95 0.54 M92.66 83.11 C111.99 61.08, 133.15 36.65, 165.34 0.54 M98.29 82.55 C113.91 66.77, 126.05 49.23, 170.87 1.91 M96.64 84.17 C117.79 60.37, 139.15 35.26, 168.46 0 M103.11 84.49 C130.37 49.67, 160.4 17.59, 176.57 -0.65 M102.52 84.2 C130.64 52.9, 158.73 19.54, 175.28 -0.85 M107.92 81.49 C133.26 56.61, 156.11 26.36, 181.11 1.34 M108.34 82.63 C131.81 58.57, 154.54 32.22, 181.04 0 M114.78 83.79 C134.31 58.75, 153.26 34.33, 187.69 -1.74 M112.97 82.97 C136.16 57.41, 157.91 29.65, 186.29 -1.17 M120.38 82.06 C140.59 59.4, 160.3 33.55, 189.97 -1.14 M117.85 83.75 C143.77 53.6, 170.36 23.09, 189.95 -0.41 M125.34 83.78 C141.44 66.39, 155.06 45.69, 197.84 0.6 M124.01 83.9 C145.02 56.85, 168.4 30.31, 195.69 0.05 M128.05 83.7 C147.71 62.41, 165.65 38.73, 202.8 -1.8 M128.53 82.94 C150.48 58.02, 173.93 32.53, 200.97 -0.84 M133.99 84.3 C157.34 53.81, 182.12 26.35, 207.69 -2 M133.49 84.32 C155.69 58.8, 177.35 32.54, 207.46 -0.67 M141.49 82.18 C160.27 57.7, 182.12 34.49, 212.09 -1.56 M140.45 83.67 C161.04 56.9, 183.55 31.63, 212.05 -0.33 M143.11 84.55 C164.57 62.74, 183.94 41.13, 218.07 0.47 M145.41 84.11 C168.06 56.71, 193.31 29.55, 217.27 0.3 M151.41 83.62 C176.3 56.66, 197.34 25.45, 222.2 1.5 M151.31 82.5 C176.37 53.81, 201.51 23.98, 221 1.15 M156.25 85.07 C179.02 56.49, 199.77 32, 220.74 6.62 M154.97 82.74 C175.48 59.34, 198.11 33.96, 220.23 6.95 M162.65 82.48 C182.42 57.11, 208.17 29.22, 222.06 12.19 M161.53 82.05 C181.92 59, 202.41 35.39, 221.23 13.76 M164.07 81.75 C179.78 66.59, 191.33 53.05, 222.78 20.63 M165.5 84.26 C186.23 59.98, 207.25 35.98, 220.28 19.54 M172.23 83.56 C187.67 65.46, 200.72 49.77, 222.17 25.8 M171.16 82.05 C188.68 64.13, 206.89 43.54, 221.75 26.39 M178.43 83.81 C194.11 63.79, 207.42 47.45, 220.77 31.72 M177.55 84.29 C185.24 72.13, 194.9 60.85, 221.37 31.13 M183.34 84.01 C190.81 73.98, 198.97 62.22, 220.97 37.27 M182.95 82.28 C198.42 65.82, 213.05 47.93, 220.49 38.79 M186.33 83.81 C198.97 69.98, 214.47 52.11, 220.17 43.29 M187.81 83.04 C198.18 70.24, 210.18 57.11, 221.86 43.66 M191.29 83.33 C203.25 74.65, 211.68 62.28, 220.08 49.13 M193.29 83.6 C200.88 72.47, 209.08 64.59, 220.62 50.57 M195.93 83.68 C207.25 73.7, 211.89 66.18, 219.92 55.78 M198.16 82.29 C205.4 75.42, 212.1 67.33, 220.1 55.89 M201.58 81.34 C207.3 77.19, 213.95 70.33, 220.95 62.53 M203.28 82.97 C208.98 75.32, 215.96 68.31, 222.1 63.13 M210.43 84.6 C212.52 76.72, 218.33 71.48, 221.1 69.69 M208.62 82.43 C212.2 79.87, 213.82 77.92, 220.15 69.38 M215.09 83.61 C215.92 82.02, 218.07 80.08, 221.82 75.31 M213.91 82.6 C216.57 79.75, 218.6 77.49, 221.79 75.06" stroke="#228be6" stroke-width="0.5" fill="none"></path><path d="M1.63 -1.4 C59.16 0.9, 114.87 -0.9, 218.11 -0.93 M-0.14 -0.81 C60.94 -0.28, 121.05 0.15, 218.85 -0.28 M217.73 0.42 C220.56 20.36, 220.77 43.54, 217.8 81.23 M220.08 0.45 C219.53 29.97, 220.01 58.72, 218.57 81.55 M219.84 81.91 C130.97 81.86, 46.84 83.18, 0.76 81.51 M218.57 82.19 C158.38 82.2, 97.38 82.32, 0.44 82.43 M-1.87 81.66 C0.44 53.07, 0.05 24.77, -0.51 -1.03 M-0.39 82.24 C0.44 63.94, 1.11 44.21, -0.2 0.27" stroke="#364fc7" stroke-width="1" fill="none"></path></g><g stroke-linecap="round" transform="translate(404.0002746582031 53.53706431610425) rotate(0 109.5999755859375 40.79997253417969)"><path d="M0 0 C0 0, 0 0, 0 0 M0 0 C0 0, 0 0, 0 0 M-0.97 6.24 C1.14 4.12, 1.69 2.55, 5.32 0.31 M-0.21 6.01 C1.29 4.09, 3.54 2.37, 4.62 0.68 M0.45 13.1 C1.23 8.58, 3.75 5.71, 12.2 -1.1 M0.83 12.25 C2.98 8.84, 4.83 5.79, 9.88 -0.08 M-1.5 16.97 C3.56 15.21, 8.21 9.53, 17.35 -1.61 M0.32 18.71 C5.11 12.47, 11.01 6.76, 14.66 0.78 M-1.67 23.35 C6.25 15.41, 13.55 9.03, 21.72 -1.46 M0.75 24.63 C7.64 15.05, 16.15 4.11, 21.69 -0.05 M-0.51 31.8 C6.18 22.85, 11.21 16.29, 25.38 -1.16 M-0.25 30.97 C10.13 18.09, 20.46 7.7, 27 0.96 M1.62 35.6 C8.32 26.47, 18.44 13.79, 31.91 -1.82 M0.17 37.53 C5.87 28.29, 12.59 21.18, 32.81 -0.94 M-0.88 40.64 C16 28.54, 29.5 11.99, 38.06 -0.95 M-0.59 41.52 C7.86 33.12, 16.83 23.42, 36.24 0.47 M1.72 50.18 C13.34 35.24, 24.98 18.39, 43.61 -2.07 M-0.23 49.19 C14.38 31.22, 29.15 13.8, 41.89 0.66 M-0.3 55.98 C15.52 35.21, 34.71 17.94, 48.66 1.8 M0.2 54.73 C11.31 43.81, 20.9 31.97, 46.69 -0.34 M1.12 62.77 C9.72 46.56, 22.82 36.95, 51.44 -1.5 M-0.72 61.65 C16.72 41.62, 33.68 21, 52.45 0.27 M1.06 67.42 C14.96 48.3, 31.44 30.59, 57.62 1.22 M-0.95 67.78 C11.88 51.9, 25.3 37.29, 58.81 -0.56 M2.14 71.62 C24.3 46.55, 48.13 21.02, 62.15 -1.07 M-0.77 72.78 C24.03 44.61, 47.27 19.38, 63.69 0.46 M1.16 80.62 C20.39 54.76, 41.68 29.38, 70.54 0.79 M0.52 78.71 C22.62 51.52, 47.25 25.59, 68.27 0.32 M1.56 82.82 C25.08 55.57, 46.26 31.46, 72.68 -1.38 M0.66 84.5 C18.25 66.14, 32.9 47.76, 73.46 -0.1 M5.36 83.55 C31.81 55.8, 54.83 29.18, 80.16 -0.67 M7.1 83.55 C34.72 52.73, 60.52 23.9, 78.89 -0.63 M13.87 82.26 C28.97 63.46, 45.95 42.78, 84.1 -0.68 M11.32 83.77 C38.22 52.81, 64.27 24.34, 85.31 0.34 M16.67 82.63 C31.62 64.61, 51.16 48.11, 88.4 1 M18.46 83.53 C35.16 60.51, 54.53 39.96, 89.66 -0.75 M21.68 84.8 C45.19 56.5, 70.04 31.09, 95.64 -0.88 M23.08 82.75 C44.31 59.01, 67.75 33.21, 95.44 -0.41 M28.93 83.82 C45.99 64.27, 60.93 48.5, 100.31 1.31 M27.57 83.16 C54.63 53.85, 78.56 25.86, 99.75 -0.79 M31.91 82.07 C63.61 51.37, 89.52 19.57, 106.69 -1.56 M33.17 83.61 C60.42 51.61, 87.48 20.9, 105.72 0.56 M39.39 83.68 C61.55 56.47, 83.62 32.63, 110.12 1.11 M38.39 82.29 C62.12 54.98, 86.81 26.88, 111.5 0.04 M44.68 83.03 C57.79 64.43, 75.54 46.99, 118.16 -1.19 M44 84.1 C67.2 58.88, 87.23 34.44, 116.06 0.97 M51.49 83.11 C66.98 60.75, 87.4 41.12, 123.2 0.6 M49.52 82.84 C68.17 62.06, 85.76 42.18, 121.43 -0.86 M55.22 84.02 C75.05 61.76, 96.94 34.52, 125.04 1.83 M54.14 82.55 C68.61 67.85, 83.26 50.42, 125.98 -0.63 M60.79 81.36 C76.44 65.19, 90.98 45.5, 134.07 1.31 M61.25 83.79 C82.56 59.44, 102.61 33.36, 133.21 -0.52 M63.94 82.7 C83.38 64.6, 97.38 45.54, 138.55 -0.27 M65.34 82.87 C83.14 63.57, 100.27 43.02, 137.73 0.64 M69.04 82 C90.94 59.47, 112.96 34.75, 144.44 0.12 M70.53 82.21 C86.21 64.04, 102.69 44.94, 142.71 0.61 M74.41 84.07 C101.96 54.01, 127.08 24.56, 146.71 -1.7 M75.51 83.55 C101.98 53.63, 126.91 24.31, 147.87 0.01 M82.13 82.97 C105.65 57.05, 131.92 25.82, 153.15 -0.73 M82.01 82.25 C108.44 52.1, 134.1 21.82, 152.94 -0.36 M87.34 82.49 C110.2 56.36, 129.82 34.96, 159.68 -0.3 M85.75 82.63 C109.51 57.04, 131.29 31.07, 159.63 0.76 M92.1 82.54 C117.7 49.47, 147.83 21.03, 166.19 0.32 M92.96 82.15 C119.97 51.05, 146.88 21.02, 165.11 0.3 M98.62 83.65 C114.32 64.51, 128.93 48.8, 167.79 0.41 M97.31 82.77 C115.88 63.27, 135.57 40.32, 169.94 -0.75 M102.5 82.08 C122.2 60.32, 140.66 38.69, 174.71 -1.81 M101.72 83.96 C125.73 56.94, 147.4 29.62, 175.59 -0.15 M109.27 82.58 C122.45 65.04, 138.24 47.59, 179.54 1.28 M108.63 82.19 C135.52 49.67, 162.91 17.69, 180.37 -0.07 M113 85.05 C137.61 55.56, 161.54 30.12, 185.05 -0.88 M113.24 83.55 C138.12 53.74, 163.21 25.85, 184.92 0.15 M119.47 81.68 C135.86 62.28, 150.2 42.63, 191.55 1.47 M118.31 83.68 C138.11 61.45, 155.84 39.47, 190.17 0.33 M125.47 83.49 C145.41 55.65, 169.96 30.07, 196.66 -1.26 M124.17 84.13 C141.64 63.27, 158.64 43.29, 196.81 0.65 M130.59 84.66 C145.73 61.17, 163.75 41.53, 202.63 0.52 M130.14 83.61 C151.38 58.4, 173.35 32.8, 201.27 0.04 M132.57 85.06 C161.12 56.67, 185.33 27.6, 208.16 -0.03 M134.51 84.26 C154.54 59.87, 172.99 37.26, 207.16 -0.64 M139.1 82.6 C155.52 66.33, 169.97 47.04, 211.73 0.29 M140.05 82.95 C159.65 62.12, 179.18 39.49, 211.27 -0.25 M143.13 83.75 C162.93 60.89, 183.39 38.31, 219.35 -0.89 M143.92 83.55 C169.71 56.17, 194.16 27.75, 217.02 -0.12 M150.68 83.91 C173.55 57.48, 199.43 28.56, 222.65 0.5 M151.18 82.21 C178.18 51.51, 207.06 18.67, 221.12 1.73 M156.15 81.9 C177.8 55.48, 200.23 31.98, 221.94 8.09 M154.73 83.68 C170.7 66.94, 184.83 49.97, 220.4 8.67 M162.14 84.35 C172.98 67.57, 187.15 51.15, 220.78 14.76 M160.81 82.52 C176.51 64.23, 192.08 46.26, 220.9 12.86 M166.75 84.19 C185.7 58.47, 207.3 34.67, 219.97 19.36 M166.94 83.44 C186.47 60.56, 204.25 38.93, 221.65 20.96 M171.43 81.02 C188.36 63.98, 200.97 46.27, 222.07 26.15 M171.4 82.56 C188.44 64.59, 203.83 47.07, 221.74 27.26 M176.25 83.63 C194.36 65.04, 206.03 49.64, 219.95 33.47 M177.22 83.68 C185.66 71.49, 195.71 61.77, 220.61 31.3 M183.7 82.36 C192.31 73.36, 202.72 59.89, 219.41 36.42 M181.6 83.59 C197.15 65.81, 211.94 48.98, 221.25 38.39 M186.08 83.6 C200.58 68.05, 214.53 52.93, 222.31 44.07 M187.93 82.32 C198.72 70.19, 210.6 57.23, 221.03 43.61 M193.22 82.16 C200.04 73.05, 209.25 63.76, 221.89 49.9 M193.22 82.46 C201.49 73.44, 209.71 62.84, 221.71 50.1 M199.86 83.8 C206.92 71.5, 213.75 64.76, 221.95 56.94 M198.08 83.38 C205.44 73.65, 215.07 63.7, 220.18 57.11 M205.43 81.56 C209.33 78.1, 215.27 70.45, 219.4 60.51 M204.22 82.59 C208.49 76.6, 213.44 70.34, 221.77 62.52 M209.32 82.34 C212.11 80, 213.8 76.13, 220.9 68.91 M208.38 83.91 C212.55 79.39, 216.41 74.6, 220.48 68.4 M214.59 82.94 C216.21 79.8, 220.59 76.16, 220.62 74.54 M213.96 82.92 C215.63 81.35, 218.09 79.22, 221.03 74.18" stroke="#fa5252" stroke-width="0.5" fill="none"></path><path d="M-0.34 -0.78 C63.08 0.18, 124.63 0.56, 218 0.64 M0.54 -0.03 C64.15 1.76, 129.36 1.21, 219.42 -0.05 M218.06 0.49 C221.24 25.28, 219.81 50.59, 221.09 80.97 M219.06 -0.21 C218.64 21.77, 220.16 44.27, 218.95 81.64 M220.31 80.26 C142.62 80.21, 64.88 82.71, 0.95 80.07 M218.95 81.8 C166.35 83.43, 112.64 83.16, -0.32 81.28 M-1.75 80.35 C-0.82 51.73, -1 21.84, -0.5 1.9 M0.23 81.19 C-0.03 53.32, -0.05 27.28, -0.09 -0.46" stroke="#a61e4d" stroke-width="1" fill="none"></path></g><g stroke-linecap="round" transform="translate(894.8002014160156 269.1371467135652) rotate(0 109.5999755859375 75.99996948242188)"><path d="M0 0 C0 0, 0 0, 0 0 M0 0 C0 0, 0 0, 0 0 M-0.34 6.78 C2.31 4.91, 4.13 1.65, 4.34 0.72 M-0.42 6.07 C1.73 4.27, 3.51 2.65, 4.94 0.44 M0.23 12.12 C3.58 9.34, 3.97 5.81, 10.72 0.57 M-0.65 12.24 C4.32 7.63, 6.94 2.49, 10.97 0.65 M0.2 17.19 C5.02 12.55, 9.49 7.55, 16.41 1.17 M-0.23 18.24 C5.79 12.61, 9.92 5.98, 15.8 -0.22 M0.4 24.02 C5.01 19.42, 8.4 14.58, 22.18 1 M-0.09 24.32 C5.52 19.31, 9.68 13.29, 21.83 -0.69 M-0.48 32.34 C6.36 22.65, 11.62 16.49, 24.56 0.71 M-0.45 30.65 C7.1 21.83, 14.25 15.17, 26.04 1.01 M1.01 37.13 C12.61 23.91, 26.6 7.83, 32.55 1.31 M0.7 36.55 C7.83 28.27, 15.79 18, 32.01 0.45 M-0.29 43.42 C14.77 24.72, 29.78 10.28, 36.98 0.79 M0.65 43.1 C11.07 27.74, 23.41 15.64, 36.94 0.52 M-1.57 46.97 C15.24 32.44, 28.99 16.57, 44.32 0.5 M0.26 48.69 C12.29 35.4, 23.87 22.66, 42.16 -0.34 M1.12 53.4 C15.53 37.67, 29.81 18.78, 45.99 1.65 M-0.29 53.99 C16.88 34.64, 33.42 16.4, 48.06 1.18 M-1.81 62.69 C15.29 42.49, 30.11 26.85, 52.15 -0.27 M-0.46 61.29 C20.74 36.59, 40.63 12.84, 52.55 -0.52 M-0.38 68.34 C21.39 43.59, 40.96 19.87, 57.05 0.91 M0.4 67.52 C13.09 51.54, 27.11 36.49, 58.09 -0.58 M-0.37 74.02 C18.06 51.21, 34.7 33.71, 64.83 0.53 M-0.68 73.73 C20.09 51.78, 38.77 30.11, 64.1 0.51 M-0.8 80.37 C17.48 61.6, 33.23 43.49, 66.8 -0.49 M-1 79.72 C23.51 52.59, 47.96 24.35, 67.95 0.27 M1.26 86.03 C19.3 64.35, 36.56 43.4, 75.3 -1.22 M0.56 85.97 C22.25 62.22, 41.84 37.17, 75.41 0.43 M-1.98 90.23 C28.79 54.8, 59.93 22.11, 81 -0.27 M-0.47 91.97 C22.64 64.88, 46.46 37.97, 79.67 0.3 M-1.92 97.88 C21.37 76.19, 41.27 52.03, 86.69 -1.33 M0.7 98.27 C21.73 72.66, 43.12 47.65, 85.74 -1.01 M1.07 102.27 C23.7 75.86, 49.88 47.06, 88.61 -0.79 M-0.68 102.97 C32.03 69.67, 62.74 34.02, 89.49 0.71 M-1.78 109.82 C20.86 88.24, 37.43 67.66, 94.26 -1.24 M-0.63 109.26 C30.22 74.63, 61.17 40.13, 96.04 -0.97 M1.5 115.17 C28.61 81.67, 58.57 47.92, 99.71 0.93 M-0.63 116.48 C22.44 91.08, 43.66 65.58, 100.81 0.23 M0.97 121.71 C24.77 93.69, 46.6 65.18, 107.43 -2.04 M-0.64 121.36 C22.74 95.14, 46.24 69.18, 105.92 -0.53 M-2.07 128.7 C29.18 98.12, 56.37 65.65, 111.56 -0.8 M0.7 129.11 C35.71 87.34, 71.88 45.13, 111.21 0.19 M1.48 131.99 C34.24 92.06, 71.94 52.03, 115.11 2.26 M0.32 134.85 C29.43 99.35, 58.25 66.78, 116.01 1.05 M-0.86 138.72 C26.35 111.67, 51.46 80.25, 122.55 1.69 M-0.03 140.28 C34.76 99.48, 68.13 60.9, 121.43 -0.49 M0.02 144.45 C42.24 94.24, 86.61 45.61, 126.37 -0.27 M1.05 145.57 C47.01 90.86, 93.84 37.81, 127.58 0.34 M-1.71 151.76 C25.74 120.46, 55.73 89.25, 134.09 -0.54 M0.49 151.83 C26.44 120.93, 55.17 89.53, 132.41 -0.31 M5.32 152.17 C54.5 93.76, 103.77 38.02, 136.55 -0.82 M5.76 151.92 C46.99 104.45, 88.08 58.12, 137.59 1.14 M10.99 151.67 C61.13 91.85, 111.92 33.95, 141.6 0.61 M10.61 151.64 C45.94 111.36, 80.48 71.64, 142.28 -0.26 M17.69 151.71 C66.05 96.28, 114.22 41.75, 147.44 0.49 M16.62 151.87 C47.36 115.93, 79.58 79.13, 148.34 0.89 M19.59 151.05 C58.88 106.89, 97.61 62.43, 153.86 1.11 M21.95 151.95 C56.99 112.62, 92.29 71.92, 153.14 -0.63 M28.11 152.69 C70.52 100.62, 118.19 49.34, 157.48 -1.13 M26.79 152.02 C67.56 106.21, 107.39 60.1, 157.95 -0.13 M31.32 152.35 C66.64 112.65, 102.18 74.87, 162.85 -1.69 M32.75 152.09 C68.91 109.83, 107.67 67.7, 164.46 -0.32 M37.37 152.57 C81.69 102.49, 121.76 54.84, 170.58 0.59 M37.6 152.53 C74.96 110.43, 110.03 68.36, 168.79 0.22 M41.02 151.18 C87.11 99.75, 131.75 51.86, 174.1 -0.3 M41.84 151.43 C79.57 111.2, 113.28 71.26, 175.9 0.49 M49.14 151.81 C97.03 95.87, 144.25 37.69, 180.04 -0.38 M48.77 152.24 C90.6 102.96, 132.7 55.71, 179.34 -0.34 M54.42 152.39 C106.29 93.61, 157.74 33.95, 187.04 -0.32 M53.15 152.13 C101.2 95.44, 152.51 36.84, 186.36 -0.56 M57.31 152.06 C104.49 98.83, 149.49 48.38, 191.83 1.04 M59.24 151.45 C90.05 118.02, 119.71 81.73, 190.49 -0.44 M64.84 150.4 C92.63 120.75, 122.17 87.09, 196.72 -0.79 M64.04 152.83 C104.25 105.75, 144.24 61.32, 196.69 0.08 M68.77 151.56 C113.34 100.24, 157.16 50.39, 201.31 1.25 M69.28 151.7 C122.23 93.8, 173.71 33.55, 201.05 0.49 M72.9 152.5 C102.16 119.38, 131.92 84.96, 206.43 0.43 M75.16 151.33 C113.88 104.37, 155.59 56.77, 207 0.2 M79 151.08 C107.45 117.59, 140.03 80.05, 212.97 0.55 M78.57 151.91 C106.23 119.93, 133.91 87.83, 212.2 -0.52 M84.76 151.92 C123.91 104.08, 165.62 59.28, 218.69 1.35 M85.96 152.69 C113.44 122.16, 139.96 91, 217.55 -0.1 M91.58 153.07 C135.42 98.13, 185.98 43.68, 222.92 2.86 M90.35 151.98 C126.42 111.12, 162.27 69.36, 221.75 1.42 M95.98 151.06 C121.24 120.23, 149.52 88.91, 222.86 9.64 M95.59 152.16 C140 100.32, 186.43 46.66, 220.61 7.1 M100.98 153.33 C130.87 118.69, 158.72 85.11, 222.8 12.67 M100.6 152.47 C127.55 122.31, 155.29 89.69, 221.52 13.42 M107.66 153.2 C131.41 120.93, 161.05 90.26, 221.56 18.71 M105.56 152.25 C143.06 111.84, 180.02 70.07, 221.76 19.53 M111.66 154.06 C138.63 119.54, 169.23 83.33, 220.15 25.14 M110.83 152.68 C142.18 117.96, 170.76 85.26, 221.28 26.59 M117.1 151.79 C137.61 127.7, 157.57 103.03, 222.49 32.77 M117.4 152.9 C155.58 109.64, 193.02 65.87, 221.08 31.29 M121.94 151.25 C156.65 111.84, 192.9 71.58, 222.07 36.62 M121.93 153.35 C143.96 126.58, 167.9 98.55, 220.41 38.4 M127.77 152.68 C158.63 119.41, 188.95 81.9, 221.07 42.96 M127.18 152.03 C156.73 116.79, 188.42 83.36, 221.57 44.79 M133.13 152.16 C159.61 120.46, 190.73 85.03, 221.67 51.92 M132.96 151.82 C165.01 115.91, 196.42 79.77, 221.93 49.7 M139.32 152.04 C155.68 134.74, 169.76 115.57, 221.24 58.51 M138.65 152.69 C158.38 130.94, 177.13 109.58, 220.71 56.79 M143.7 153.38 C172.09 120.09, 197.4 87.4, 222.89 63.44 M144.12 153.05 C167.96 127.29, 189.86 99, 222.22 62.65 M149.54 150.39 C175.7 123.34, 198.92 92.58, 220.08 69.73 M148.24 151.97 C164.44 132.7, 179.65 115.86, 220.14 68.36 M155.29 150.86 C173.01 128.03, 194.92 104.52, 221.79 73.92 M153.81 152.54 C174.55 130.88, 192.99 109.37, 221.31 74.49 M160.4 150.6 C178.87 126.3, 200.18 101.78, 221.82 82.52 M160.05 152.06 C174.01 136.13, 188 119.41, 220.7 80.41 M162.66 153.89 C184.63 130.94, 206.83 105.25, 219.95 87.2 M163.58 151.39 C176.54 140.11, 187.8 126.4, 221.25 87.29 M172 151.88 C182.31 140.53, 191.22 128.04, 222.54 93.42 M170.85 151.2 C187.88 131.75, 204.44 112.13, 222.06 93.67 M175.76 151.09 C185.53 141.84, 195.06 127.77, 221.09 99.2 M175.16 151.27 C187.7 135.73, 202.6 121.39, 221.73 99.96 M180.6 151.79 C190.8 141.13, 202.67 128.08, 219.45 104.25 M181.08 152.74 C196.05 133.69, 210.89 118.56, 221.06 104.46 M185.69 152.46 C197.04 139.39, 207.34 126.78, 221.09 112.45 M185.45 151.43 C196.41 140.28, 204.82 129.41, 221.14 111.71 M191.97 152.98 C196.11 143.88, 205.02 134.42, 220.27 116.98 M191.19 152.84 C199.28 142.65, 209.71 130.81, 220.05 118.43 M194.69 151.3 C200.71 146.36, 204.78 142.25, 220.64 123.06 M195.53 151.69 C206.81 141.65, 216.75 129.76, 222.21 124.1 M202.01 154.17 C208.71 142.71, 215.35 135.28, 219.84 128.63 M201.28 152.49 C208.58 144.47, 213.4 137.39, 220.53 130.53 M206.17 150.28 C212.65 145.33, 216.43 143.41, 222.63 135.5 M207.64 151.48 C211.86 146.77, 217.32 139.81, 222.33 134.78 M211.14 152.64 C214.6 148.81, 214.88 146.53, 221.89 141.86 M212.1 152.85 C214.46 149.65, 218.13 145.03, 220.49 142.36 M217.88 151.9 C218.4 150.79, 219.29 150.45, 221.02 148.55 M217.76 152.24 C218.36 151.13, 219.13 150.09, 220.65 148.52" stroke="#228be6" stroke-width="0.5" fill="none"></path><path d="M1.61 0.93 C45.83 -1.27, 93.39 -1.07, 218.09 0.72 M0.43 0.38 C84.25 0, 168.98 -0.33, 219.74 -0.18 M219.93 0.58 C220.2 42.21, 218.78 83.3, 217.28 152.91 M219.69 0.31 C219.12 54.58, 219.23 108.93, 219.73 151.48 M218.44 150.56 C135.06 151.99, 47.79 151.45, -1.65 152.53 M220.03 152.54 C134.19 150.66, 48.22 151.5, 0.31 151.4 M-0.1 152.21 C-2.27 97.37, -1.81 45.52, -0.9 0.99 M0.33 151.06 C-0.43 96.91, -0.07 41.82, 0.67 0.25" stroke="#364fc7" stroke-width="1" fill="none"></path></g><g stroke-linecap="round"><g transform="translate(662.0001525878906 350.7370307467683) rotate(0 90.3142048101779 0.3335495408624354)"><path d="M0.29 1.11 C30.71 1.17, 151.58 -0.34, 181.65 -0.44 M-1.02 0.65 C29.4 0.94, 150.99 1.24, 181.14 0.86" stroke="#000000" stroke-width="1" fill="none"></path></g><g transform="translate(662.0001525878906 350.7370307467683) rotate(0 90.3142048101779 0.3335495408624354)"><path d="M154.84 12.64 C158.69 8.64, 166.58 6.78, 180.95 0.67 M153.65 10.99 C161.34 8.91, 170.37 5.64, 181.37 0.69" stroke="#000000" stroke-width="1" fill="none"></path></g><g transform="translate(662.0001525878906 350.7370307467683) rotate(0 90.3142048101779 0.3335495408624354)"><path d="M154.76 -7.88 C158.49 -7.24, 166.4 -4.46, 180.95 0.67 M153.57 -9.53 C161.28 -5.48, 170.33 -2.6, 181.37 0.69" stroke="#000000" stroke-width="1" fill="none"></path></g></g><g stroke-linecap="round"><g transform="translate(595.6002502441406 427.5370490573152) rotate(0 137.34354114419773 105.46407041961328)"><path d="M-0.09 0.9 C7.36 32.14, -0.61 152.36, 45.45 187.11 C91.51 221.86, 237.68 205.81, 276.28 209.39 M-1.59 0.33 C5.68 31.25, -1.36 150.32, 44.85 185.36 C91.05 220.4, 236.83 206.62, 275.66 210.6" stroke="#000000" stroke-width="1" fill="none"></path></g><g transform="translate(595.6002502441406 427.5370490573152) rotate(0 137.34354114419773 105.46407041961328)"><path d="M248.87 221.66 C258.92 217.41, 267.74 214.97, 274 211.59 M248.14 220.54 C255.85 217.52, 264.07 215.62, 275.57 211.46" stroke="#000000" stroke-width="1" fill="none"></path></g><g transform="translate(595.6002502441406 427.5370490573152) rotate(0 137.34354114419773 105.46407041961328)"><path d="M249.08 201.14 C259.01 204.39, 267.75 209.47, 274 211.59 M248.35 200.02 C256.15 202.89, 264.31 206.88, 275.57 211.46" stroke="#000000" stroke-width="1" fill="none"></path></g></g><g stroke-linecap="round"><g transform="translate(567.6001281738281 420.3370978854402) rotate(0 151.2447319064197 182.60197432824413)"><path d="M0.4 0.03 C8.66 55.06, -2.05 271.08, 48.44 331.09 C98.93 391.11, 260.73 355.03, 303.34 360.12 M-0.85 -1 C7.86 53.6, -0.05 268.99, 50.54 329.33 C101.12 389.68, 260.27 356.04, 302.65 361.08" stroke="#000000" stroke-width="1" fill="none"></path></g><g transform="translate(567.6001281738281 420.3370978854402) rotate(0 151.2447319064197 182.60197432824413)"><path d="M274.91 370.43 C281.6 370.21, 284.99 369.18, 304.11 361.96 M275.42 371.8 C282.41 368.07, 291.96 365.09, 303.03 360.92" stroke="#000000" stroke-width="1" fill="none"></path></g><g transform="translate(567.6001281738281 420.3370978854402) rotate(0 151.2447319064197 182.60197432824413)"><path d="M274.16 349.92 C281.16 353.89, 284.7 357.04, 304.11 361.96 M274.67 351.3 C281.92 353.8, 291.7 357.07, 303.03 360.92" stroke="#000000" stroke-width="1" fill="none"></path></g></g><g transform="translate(763.3002624511719 597.4369819186434) rotate(0 27.5 11.5)"><text x="27.5" y="19" font-family="Helvetica, Segoe UI Emoji" font-size="20px" fill="#000000" text-anchor="middle" style="white-space: pre;" direction="ltr">POST</text></g><g transform="translate(743.0002136230469 747.4370429537996) rotate(0 51 11.5)"><text x="51" y="19" font-family="Helvetica, Segoe UI Emoji" font-size="20px" fill="#000000" text-anchor="middle" style="white-space: pre;" direction="ltr">GET/POST</text></g><g transform="translate(10 154.23706126434644) rotate(0 53 11.5)"><text x="53" y="19" font-family="Helvetica, Segoe UI Emoji" font-size="20px" fill="#000000" text-anchor="middle" style="white-space: pre;" direction="ltr">DEV/Author</text></g><g transform="translate(409.0002746582031 83.33703685028394) rotate(0 104.5 11)"><text x="104.5" y="19" font-family="Helvetica, Segoe UI Emoji" font-size="20px" fill="#000000" text-anchor="middle" style="white-space: pre;" direction="ltr">GITHUB</text></g><g stroke-linecap="round"><g transform="translate(511.6001892089844 164.5370795748933) rotate(0 -0.040088224746284595 63.49528250848877)"><path d="M0.03 -0.61 C0.04 20.28, -0.86 105.24, -0.9 126.46 M-1.42 1.68 C-0.94 23.23, 1.28 106.6, 1.34 127.6" stroke="#000000" stroke-width="1" fill="none"></path></g><g transform="translate(511.6001892089844 164.5370795748933) rotate(0 -0.040088224746284595 63.49528250848877)"><path d="M-10.41 98.09 C-8.04 105.34, -5.37 113.39, 0.11 126.89 M-9.86 99.39 C-6.01 106.92, -2.62 114.4, 1.61 127.41" stroke="#000000" stroke-width="1" fill="none"></path></g><g transform="translate(511.6001892089844 164.5370795748933) rotate(0 -0.040088224746284595 63.49528250848877)"><path d="M10.11 97.75 C8.03 105.08, 6.26 113.2, 0.11 126.89 M10.66 99.05 C8.78 106.56, 6.44 114.13, 1.61 127.41" stroke="#000000" stroke-width="1" fill="none"></path></g></g><g transform="translate(532.3002014160156 192.6370551608308) rotate(0 46.5 23)"><text x="46.5" y="19" font-family="Helvetica, Segoe UI Emoji" font-size="20px" fill="#000000" text-anchor="middle" style="white-space: pre;" direction="ltr">Web Hook</text><text x="46.5" y="42" font-family="Helvetica, Segoe UI Emoji" font-size="20px" fill="#000000" text-anchor="middle" style="white-space: pre;" direction="ltr">Callback</text></g><g transform="translate(213.50015258789062 33.43701243622144) rotate(0 42.5 11.5)"><text x="42.5" y="19" font-family="Helvetica, Segoe UI Emoji" font-size="20px" fill="#000000" text-anchor="middle" style="white-space: pre;" direction="ltr">GIT Push</text></g><g transform="translate(718.8000793457031 316.2370002291902) rotate(0 21 11.5)"><text x="21" y="19" font-family="Helvetica, Segoe UI Emoji" font-size="20px" fill="#000000" text-anchor="middle" style="white-space: pre;" direction="ltr">GET</text></g><g stroke-linecap="round"><g transform="translate(649.2001037597656 140.73709178192456) rotate(0 372.27069946208894 250.89132881416714)"><path d="M-1.2 0.47 C14.23 10.81, -16.67 51.73, 93.58 62.91 C203.83 74.1, 554.73 2.55, 660.29 67.58 C765.84 132.61, 754.41 381.03, 726.91 453.1 C699.42 525.17, 533.81 492.17, 495.33 500.01 M0.38 -0.33 C16.1 10.11, -13.95 53.34, 95.86 64.3 C205.68 75.26, 554.06 0.42, 659.25 65.43 C764.44 130.44, 754.02 381.79, 727.01 454.36 C700 526.92, 535.42 493.29, 497.17 500.82" stroke="#000000" stroke-width="1" fill="none"></path></g><g transform="translate(649.2001037597656 140.73709178192456) rotate(0 372.27069946208894 250.89132881416714)"><path d="M526.2 489.36 C514.19 493.46, 504.46 497.71, 497.67 499.71 M525.73 490.58 C515.5 495.38, 504.35 498.03, 497.63 500.44" stroke="#000000" stroke-width="1" fill="none"></path></g><g transform="translate(649.2001037597656 140.73709178192456) rotate(0 372.27069946208894 250.89132881416714)"><path d="M526.08 509.88 C513.96 506.11, 504.28 502.49, 497.67 499.71 M525.61 511.1 C515.41 508.37, 504.31 503.48, 497.63 500.44" stroke="#000000" stroke-width="1" fill="none"></path></g></g><g stroke-linecap="round"><g transform="translate(648.8000793457031 146.7370917819245) rotate(0 377.4204374659595 316.9511697546486)"><path d="M-0.47 -1.14 C16 8.59, -13.45 46.67, 99.9 58.97 C213.25 71.27, 574.85 -11.71, 679.65 72.67 C784.44 157.04, 759.69 471.62, 728.65 565.22 C697.6 658.83, 532.7 622.71, 493.37 634.29 M1.48 0.88 C17.77 10.19, -13.62 45.52, 99.32 57.15 C212.26 68.78, 574.13 -14.22, 679.11 70.68 C784.1 155.58, 760.46 472.49, 729.23 566.55 C698.01 660.61, 531.06 623.76, 491.78 635.04" stroke="#000000" stroke-width="1" fill="none"></path></g><g transform="translate(648.8000793457031 146.7370917819245) rotate(0 377.4204374659595 316.9511697546486)"><path d="M517.74 625.06 C509.9 628.82, 499.31 633.46, 492.49 634.66 M519.88 624.28 C509.62 628.84, 499.08 632.72, 492.08 634.22" stroke="#000000" stroke-width="1" fill="none"></path></g><g transform="translate(648.8000793457031 146.7370917819245) rotate(0 377.4204374659595 316.9511697546486)"><path d="M518.39 645.57 C510.19 641.42, 499.35 638.14, 492.49 634.66 M520.53 644.79 C510.2 642.03, 499.42 638.59, 492.08 634.22" stroke="#000000" stroke-width="1" fill="none"></path></g></g><g transform="translate(1199.7000427246094 598.2369697116121) rotate(0 36.5 11.5)"><text x="36.5" y="19" font-family="Helvetica, Segoe UI Emoji" font-size="20px" fill="#000000" text-anchor="middle" style="white-space: pre;" direction="ltr">GIT Pull</text></g><g transform="translate(1201.7001037597656 743.4369819186434) rotate(0 36.5 11.5)"><text x="36.5" y="19" font-family="Helvetica, Segoe UI Emoji" font-size="20px" fill="#000000" text-anchor="middle" style="white-space: pre;" direction="ltr">GIT Pull</text></g><g stroke-linecap="round"><g transform="translate(1007.6001281738281 851.936890365909) rotate(0 -2.072323812628156 56.29648012780592)"><path d="M-0.19 -0.92 C-0.63 17.76, -2.48 93.48, -2.8 112.26 M-1.75 1.21 C-2.36 20.03, -3.8 94.96, -3.95 113.51" stroke="#000000" stroke-width="1" fill="none"></path></g><g transform="translate(1007.6001281738281 851.936890365909) rotate(0 -2.072323812628156 56.29648012780592)"><path d="M-15.33 84.51 C-11.85 93.8, -9.91 101.53, -5.5 114.14 M-14.01 84.98 C-11.68 93.3, -7.69 101.61, -3.45 112.92" stroke="#000000" stroke-width="1" fill="none"></path></g><g transform="translate(1007.6001281738281 851.936890365909) rotate(0 -2.072323812628156 56.29648012780592)"><path d="M5.19 84.82 C2.83 93.98, -1.07 101.63, -5.5 114.14 M6.51 85.28 C3.19 93.43, 1.52 101.65, -3.45 112.92" stroke="#000000" stroke-width="1" fill="none"></path></g></g><g transform="translate(924.1001281738281 1032.0368049166902) rotate(0 87.5 11.5)"><text x="87.5" y="19" font-family="Helvetica, Segoe UI Emoji" font-size="20px" fill="#000000" text-anchor="middle" style="white-space: pre;" direction="ltr">Meili Search Server</text></g><g transform="translate(1018.5000915527344 883.0368049166902) rotate(0 52.5 23)"><text x="52.5" y="19" font-family="Helvetica, Segoe UI Emoji" font-size="20px" fill="#000000" text-anchor="middle" style="white-space: pre;" direction="ltr">MeiliSearch</text><text x="52.5" y="42" font-family="Helvetica, Segoe UI Emoji" font-size="20px" fill="#000000" text-anchor="middle" style="white-space: pre;" direction="ltr">Client</text></g><g transform="translate(30.800262451171875 427.83679270965894) rotate(0 28 11.5)"><text x="28" y="19" font-family="Helvetica, Segoe UI Emoji" font-size="20px" fill="#000000" text-anchor="middle" style="white-space: pre;" direction="ltr">Visitor</text></g><g stroke-linecap="round"><g transform="translate(1003.1150051843733 567.516357025112) rotate(0 -0.546436636037356 -56.75862737922)"><path d="M1.06 0.98 C0.97 -17.92, -0.81 -93.67, -1.45 -112.58 M0.15 0.45 C0.03 -18.9, -2.07 -95.32, -2.15 -114.5" stroke="#000000" stroke-width="1" fill="none"></path></g><g transform="translate(1003.1150051843733 567.516357025112) rotate(0 -0.546436636037356 -56.75862737922)"><path d="M10.22 -85.71 C6.66 -94.06, 4.37 -99.95, -0.62 -113.51 M9.21 -87.41 C4.7 -95.55, 1.82 -102.8, -1.4 -114.19" stroke="#000000" stroke-width="1" fill="none"></path></g><g transform="translate(1003.1150051843733 567.516357025112) rotate(0 -0.546436636037356 -56.75862737922)"><path d="M-10.29 -85.36 C-9.28 -93.96, -6.97 -99.94, -0.62 -113.51 M-11.31 -87.06 C-9.65 -95.42, -6.37 -102.78, -1.4 -114.19" stroke="#000000" stroke-width="1" fill="none"></path></g></g><g transform="translate(1018.0004577636719 503.2367866061433) rotate(0 64 11.5)"><text x="64" y="19" font-family="Helvetica, Segoe UI Emoji" font-size="20px" fill="#000000" text-anchor="middle" style="white-space: pre;" direction="ltr">Remove/Copy</text></g><g stroke-linecap="round" transform="translate(357.31561037093957 238.38375441833256) rotate(0 430.2857317243303 433.71435982840404)"><path d="M-0.67 -0.37 C211.41 0.72, 422.04 0.84, 859.8 0.51 M859.88 0 C858.02 310.68, 857.64 620.4, 860.53 866.85 M860.97 867.31 C581.8 870.58, 303.38 870.02, -0.48 866.64 M-0.47 867.26 C0.16 672.24, -0.17 476.66, 0.75 -0.33" stroke="#862e9c" stroke-width="1.5" fill="none" stroke-dasharray="8 9"></path></g></svg>