<svg version="1.1" xmlns="http://www.w3.org/2000/svg" viewBox="0 0 910.4215372523822 288.7437716323458" width="910.4215372523822" height="288.7437716323458">
  <!-- svg-source:excalidraw -->
  
  <defs>
    <style class="style-fonts">
      @font-face {
        font-family: "Virgil";
        src: url("https://excalidraw.com/Virgil.woff2");
      }
      @font-face {
        font-family: "Cascadia";
        src: url("https://excalidraw.com/Cascadia.woff2");
      }
    </style>
  </defs>
  <g stroke-linecap="round"><g transform="translate(9.90137871056777 268.238303740457) rotate(0 417.69922916252017 0.9609599331233767)"><path d="M0.74 0.74 C170.01 1.52, 340.54 0.47, 834.4 0.29 M0.36 0.26 C214.43 2.1, 429 2.12, 835.04 0.34" stroke="#000000" stroke-width="1" fill="none"></path></g><g transform="translate(9.90137871056777 268.238303740457) rotate(0 417.69922916252017 0.9609599331233767)"><path d="M834.67 -0.19 L821.43 7.82 L822.29 -5.1 L836.09 -0.4" stroke="none" stroke-width="0" fill="#000000" fill-rule="evenodd"></path><path d="M836.43 1.73 C832.36 2.9, 830.67 2.22, 820.29 7.26 M835.72 0.83 C831.17 1.64, 827.55 3.33, 821.48 7.35 M822.48 6.75 C821.76 1.7, 822.4 -1.7, 822.61 -4.72 M820.95 6.17 C821.45 3.46, 820.98 0.48, 821.46 -6.05 M819.95 -4.8 C824.74 -3.66, 828.16 -3.27, 833.69 -0.74 M822.06 -6.49 C825.37 -4.21, 828.84 -2.28, 835.21 0.98 M835.04 0.34 C835.04 0.34, 835.04 0.34, 835.04 0.34 M835.04 0.34 C835.04 0.34, 835.04 0.34, 835.04 0.34" stroke="#000000" stroke-width="1" fill="none"></path></g></g><mask></mask><g transform="translate(855.4215372523822 253.7437716323458) rotate(0 22.5 12.5)"><text x="0" y="18" font-family="Virgil, Segoe UI Emoji" font-size="20px" fill="#000000" text-anchor="start" style="white-space: pre;" direction="ltr">Time</text></g><g stroke-linecap="round" transform="translate(39.94406571276704 134.27927945449832) rotate(0 9.834289028899775 44.04812520941229)"><path d="M6.65 1.55 L16 -1.25 L20.38 4.06 L19.15 81.85 L20.26 88.19 L13.78 87.43 L1.46 87.27 L0.06 84.86 L1.34 6.59 L0.43 2.83 L4.96 0.66" stroke="none" stroke-width="0" fill="#fa5252"></path><path d="M4.92 0 M4.92 0 C8.5 0.89, 9.88 0.09, 14.75 0 M4.92 0 C7.62 0.14, 9.95 0.42, 14.75 0 M14.75 0 C18.17 -0.3, 18.5 3.56, 19.67 4.92 M14.75 0 C18.52 -2.26, 21.44 1.59, 19.67 4.92 M19.67 4.92 C17.92 31.16, 19.29 60.31, 19.67 83.18 M19.67 4.92 C20.55 20.64, 20.13 36.77, 19.67 83.18 M19.67 83.18 C20.14 88.19, 19.65 87.9, 14.75 88.1 M19.67 83.18 C17.66 88.52, 19.82 90.36, 14.75 88.1 M14.75 88.1 C12.52 87.61, 10.27 87.95, 4.92 88.1 M14.75 88.1 C12.25 88.33, 10.69 88.47, 4.92 88.1 M4.92 88.1 C3.35 89.85, -0.36 85.93, 0 83.18 M4.92 88.1 C1.6 89.36, 1.01 87.44, 0 83.18 M0 83.18 C2.06 56.45, 1.66 26.86, 0 4.92 M0 83.18 C-0.29 55.39, -0.87 27.46, 0 4.92 M0 4.92 C1.11 2.6, 2.39 0.96, 4.92 0 M0 4.92 C0.23 2.4, 2.78 -0.12, 4.92 0" stroke="#364fc7" stroke-width="1" fill="none"></path></g><g stroke-linecap="round" transform="translate(201.03381083081604 134.27927945449832) rotate(0 9.834289028899775 44.04812520941229)"><path d="M6.47 -0.9 L15.34 1.02 L18.81 4.4 L18.33 84.99 L19.76 85.89 L14.09 86.8 L2.24 87.84 L1.68 84.52 L1.67 4.12 L2.83 1.27 L5.57 -0.59" stroke="none" stroke-width="0" fill="#fa5252"></path><path d="M4.92 0 M4.92 0 C9.66 -0.45, 12.65 -0.36, 14.75 0 M4.92 0 C7.14 -0.34, 9.58 0.03, 14.75 0 M14.75 0 C17.73 -1.17, 21.59 2.06, 19.67 4.92 M14.75 0 C15.77 1.77, 19.62 2.87, 19.67 4.92 M19.67 4.92 C18.07 28.49, 19.54 51, 19.67 83.18 M19.67 4.92 C18.93 34.86, 19.17 65.45, 19.67 83.18 M19.67 83.18 C21.4 88.08, 17.83 86.35, 14.75 88.1 M19.67 83.18 C21.73 88.25, 20.29 85.97, 14.75 88.1 M14.75 88.1 C11.25 87.68, 8.64 87.3, 4.92 88.1 M14.75 88.1 C11.29 88.31, 7.78 88.45, 4.92 88.1 M4.92 88.1 C3.39 87.73, -0.52 86.43, 0 83.18 M4.92 88.1 C2.9 89.1, 0.98 87.67, 0 83.18 M0 83.18 C1.24 63.96, -0.73 43.21, 0 4.92 M0 83.18 C-0.07 59.85, 0.2 39.04, 0 4.92 M0 4.92 C0.96 2.39, 2.6 0.2, 4.92 0 M0 4.92 C0.76 2.78, 1.52 -1.98, 4.92 0" stroke="#364fc7" stroke-width="1" fill="none"></path></g><g stroke-linecap="round" transform="translate(367.0338108308183 134.27927945449832) rotate(0 9.834289028899775 44.04812520941229)"><path d="M4.01 -1.56 L17.62 -0.55 L19.15 3.58 L21.48 84.5 L17.47 86.2 L13.45 87.57 L2.82 89.47 L1.34 84.85 L-0.8 6.52 L1.27 1.88 L4.33 1.7" stroke="none" stroke-width="0" fill="#fa5252"></path><path d="M4.92 0 M4.92 0 C8.19 0.06, 11.93 -0.89, 14.75 0 M4.92 0 C6.68 0.32, 9.15 -0.09, 14.75 0 M14.75 0 C16.86 1.92, 20.09 -0.33, 19.67 4.92 M14.75 0 C19.8 -0.05, 20.9 1.8, 19.67 4.92 M19.67 4.92 C18.53 26.73, 17.03 50.16, 19.67 83.18 M19.67 4.92 C19.63 22.88, 20.07 41.59, 19.67 83.18 M19.67 83.18 C21.29 86.26, 16.28 89.89, 14.75 88.1 M19.67 83.18 C21.46 88.72, 15.9 88.09, 14.75 88.1 M14.75 88.1 C10.7 87.83, 6.68 88.74, 4.92 88.1 M14.75 88.1 C11.64 88.47, 8.39 88.56, 4.92 88.1 M4.92 88.1 C1.28 87.57, -0.03 87.56, 0 83.18 M4.92 88.1 C2.65 89.08, 1.22 85.61, 0 83.18 M0 83.18 C0.67 62.1, 0.51 42.88, 0 4.92 M0 83.18 C-0.66 55.55, 0.87 27.03, 0 4.92 M0 4.92 C0.75 2.6, 1.84 0.66, 4.92 0 M0 4.92 C1.14 1.52, -0.34 1.9, 4.92 0" stroke="#364fc7" stroke-width="1" fill="none"></path></g><g stroke-linecap="round" transform="translate(18.557476357270843 21.153904850016147) rotate(0 9.834289028899775 44.04812520941229)"><path d="M3.36 0.71 L16.04 -0.21 L18.33 6.73 L20.99 82.21 L17.78 85.57 L14.23 88.15 L4.44 89.13 L1.67 82.38 L1.6 4.96 L1.88 0.64 L6.62 1.4" stroke="none" stroke-width="0" fill="#12b886"></path><path d="M4.92 0 M4.92 0 C8.95 -0.23, 11.87 -0.82, 14.75 0 M4.92 0 C8.23 0.1, 10.8 -0.22, 14.75 0 M14.75 0 C19.95 0.42, 17.7 3.18, 19.67 4.92 M14.75 0 C17.98 1.23, 19.83 1.14, 19.67 4.92 M19.67 4.92 C19.15 19.42, 20.81 36.36, 19.67 83.18 M19.67 4.92 C19.59 30.29, 20.39 56, 19.67 83.18 M19.67 83.18 C19.47 84.71, 19.82 89.65, 14.75 88.1 M19.67 83.18 C21.93 84.33, 18.02 89.73, 14.75 88.1 M14.75 88.1 C11.78 87.28, 9.94 88.5, 4.92 88.1 M14.75 88.1 C12.79 88.57, 10.59 88.06, 4.92 88.1 M4.92 88.1 C1.12 88.06, 1.1 87.33, 0 83.18 M4.92 88.1 C2.62 89.31, -0.85 85.44, 0 83.18 M0 83.18 C-1.43 53.98, -0.64 23.59, 0 4.92 M0 83.18 C0.36 63.44, 0.16 42.95, 0 4.92 M0 4.92 C0.96 1.84, 2.3 0.99, 4.92 0 M0 4.92 C-0.12 -0.34, 3.54 0.29, 4.92 0" stroke="#364fc7" stroke-width="1" fill="none"></path></g><g stroke-linecap="round" transform="translate(338.32164335148445 21.153904850016147) rotate(0 9.834289028899775 44.04812520941229)"><path d="M5.63 -0.86 L16.38 -1.03 L21.48 6.24 L18.7 82.52 L17.14 86.34 L14.81 89.77 L4.11 89.46 L-0.8 84.78 L0.04 5.57 L0.64 2.93 L6.31 1.88" stroke="none" stroke-width="0" fill="#12b886"></path><path d="M4.92 0 M4.92 0 C8.57 -0.81, 11.89 0.01, 14.75 0 M4.92 0 C8.02 -0.14, 10.76 0.4, 14.75 0 M14.75 0 C18.45 -1.96, 21.21 1.59, 19.67 4.92 M14.75 0 C19.26 0.16, 19.17 -0.43, 19.67 4.92 M19.67 4.92 C17.56 24.5, 18.07 41.1, 19.67 83.18 M19.67 4.92 C19.74 27.87, 20.32 49, 19.67 83.18 M19.67 83.18 C17.92 88.25, 19.58 90.06, 14.75 88.1 M19.67 83.18 C17.54 86.45, 19.66 87.64, 14.75 88.1 M14.75 88.1 C11.57 88.78, 10.4 87.42, 4.92 88.1 M14.75 88.1 C11.84 88.59, 8 88.03, 4.92 88.1 M4.92 88.1 C1.61 89.2, 0.88 87.31, 0 83.18 M4.92 88.1 C2.86 87.25, -1.02 88.49, 0 83.18 M0 83.18 C0.67 55.9, 0.7 28.39, 0 4.92 M0 83.18 C1.32 56.97, 1.14 30.28, 0 4.92 M0 4.92 C0.2 2.3, 2.63 -0.11, 4.92 0 M0 4.92 C-1.98 3.54, 1.93 -1.46, 4.92 0" stroke="#364fc7" stroke-width="1" fill="none"></path></g><g stroke-linecap="round" transform="translate(258.3806016029307 21.153904850016147) rotate(0 9.834289028899775 44.04812520941229)"><path d="M4.06 -0.52 L15.57 2.12 L20.99 3.94 L19.01 81.88 L17.92 86.92 L16.43 89.44 L4.44 86.99 L1.6 83.22 L0.66 4.33 L2.93 2.63 L6.79 1.95" stroke="none" stroke-width="0" fill="#12b886"></path><path d="M4.92 0 M4.92 0 C6.72 -0.83, 10.12 0.14, 14.75 0 M4.92 0 C7.11 -0.29, 9.93 0.1, 14.75 0 M14.75 0 C16.07 1.54, 19.62 2.71, 19.67 4.92 M14.75 0 C18.19 -0.5, 17.6 -0.01, 19.67 4.92 M19.67 4.92 C21.39 25.27, 20.11 48.11, 19.67 83.18 M19.67 4.92 C20.58 27.58, 19.61 47.75, 19.67 83.18 M19.67 83.18 C21.46 88.01, 19.99 86.25, 14.75 88.1 M19.67 83.18 C19.66 88.09, 17.58 86.8, 14.75 88.1 M14.75 88.1 C12.91 88.46, 9 88.4, 4.92 88.1 M14.75 88.1 C11.67 88.09, 7.6 88.17, 4.92 88.1 M4.92 88.1 C2.74 88.97, 0.85 87.52, 0 83.18 M4.92 88.1 C0.79 87.07, 2.04 87.49, 0 83.18 M0 83.18 C0.13 55.58, -0.39 26.34, 0 4.92 M0 83.18 C-0.06 67.73, -0.05 51.64, 0 4.92 M0 4.92 C0.66 2.63, 1.53 -1.72, 4.92 0 M0 4.92 C1.9 1.93, 0.18 -0.59, 4.92 0" stroke="#364fc7" stroke-width="1" fill="none"></path></g><g stroke-linecap="round" transform="translate(578.1447685971434 21.153904850016147) rotate(0 9.834289028900002 44.04812520941229)"><path d="M4.4 -1.33 L18.72 1.63 L18.7 4.25 L18.37 82.66 L18.49 88.54 L16.09 89.77 L1.97 89.39 L0.04 83.83 L-0.59 6.62 L2.63 3.11 L6.87 -0.74" stroke="none" stroke-width="0" fill="#12b886"></path><path d="M4.92 0 M4.92 0 C7.18 0.11, 11.26 -0.6, 14.75 0 M4.92 0 C8.25 0.49, 12.27 -0.47, 14.75 0 M14.75 0 C19.57 -0.04, 20.74 1.78, 19.67 4.92 M14.75 0 C17.53 -2.07, 18.02 1.14, 19.67 4.92 M19.67 4.92 C17.49 28.99, 18.56 51.79, 19.67 83.18 M19.67 4.92 C20.66 28.73, 18.98 53.64, 19.67 83.18 M19.67 83.18 C21.22 88.42, 16.18 88.09, 14.75 88.1 M19.67 83.18 C21.3 86, 16.74 87.16, 14.75 88.1 M14.75 88.1 C12.46 87.51, 9.66 88.73, 4.92 88.1 M14.75 88.1 C11.04 88.05, 7.51 88.45, 4.92 88.1 M4.92 88.1 C2.51 88.95, 1.06 85.72, 0 83.18 M4.92 88.1 C0.62 90.13, 1.03 88.03, 0 83.18 M0 83.18 C0.76 63.11, 0.35 42.71, 0 4.92 M0 83.18 C-0.06 54.82, -0.33 25.83, 0 4.92 M0 4.92 C0.99 1.53, -0.08 1.65, 4.92 0 M0 4.92 C0.29 0.18, 1.05 0.39, 4.92 0" stroke="#364fc7" stroke-width="1" fill="none"></path></g><g stroke-linecap="round" transform="translate(58.52799723154749 21.153904850016147) rotate(0 9.834289028899775 44.04812520941229)"><path d="M3.58 1.82 L18.23 -0.67 L19.01 3.62 L19.15 83.23 L20.12 88.21 L16.42 87.3 L4.36 87.83 L0.66 82.59 L1.7 6.31 L3.11 3.18 L4.18 0.33" stroke="none" stroke-width="0" fill="#12b886"></path><path d="M4.92 0 M4.92 0 C7.63 0.2, 9.61 0.76, 14.75 0 M4.92 0 C8.41 0.16, 10.47 0.44, 14.75 0 M14.75 0 C17.99 1.07, 19.8 1.2, 19.67 4.92 M14.75 0 C15.96 -1.65, 19.17 1.69, 19.67 4.92 M19.67 4.92 C20.76 20.46, 19.92 36.83, 19.67 83.18 M19.67 4.92 C20.25 29.35, 21.24 56.32, 19.67 83.18 M19.67 83.18 C21.63 84.61, 18.02 89.51, 14.75 88.1 M19.67 83.18 C19.21 85.16, 17.09 87.6, 14.75 88.1 M14.75 88.1 C11.93 88.52, 10.97 88.81, 4.92 88.1 M14.75 88.1 C10.83 88.07, 7.44 88.29, 4.92 88.1 M4.92 88.1 C2.49 89.16, -0.74 85.57, 0 83.18 M4.92 88.1 C3.68 89.13, 1.57 85.22, 0 83.18 M0 83.18 C-0.7 55.8, -1.84 28.15, 0 4.92 M0 83.18 C0.11 55.45, -0.04 28.02, 0 4.92 M0 4.92 C-0.11 -0.08, 3.29 0.25, 4.92 0 M0 4.92 C-1.46 1.05, 2.03 0.38, 4.92 0" stroke="#364fc7" stroke-width="1" fill="none"></path></g><g stroke-linecap="round" transform="translate(378.29216422576064 21.153904850016147) rotate(0 9.834289028900002 44.04812520941229)"><path d="M6.73 1.32 L15.93 -0.36 L18.37 4.39 L19.72 84.86 L19.78 88.54 L13.95 89.69 L2.81 88.44 L-0.59 84.88 L1.4 6.79 L3.18 0.49 L5.24 -0.53" stroke="none" stroke-width="0" fill="#12b886"></path><path d="M4.92 0 M4.92 0 C7.19 -0.68, 9.91 0.07, 14.75 0 M4.92 0 C7.82 -0.58, 10.9 -0.11, 14.75 0 M14.75 0 C19.1 0.14, 19.23 -0.16, 19.67 4.92 M14.75 0 C16.38 -0.5, 19.72 -0.59, 19.67 4.92 M19.67 4.92 C18.76 34.65, 19.22 65.69, 19.67 83.18 M19.67 4.92 C19.43 36.06, 21.08 66.4, 19.67 83.18 M19.67 83.18 C17.82 86.45, 19.45 87.7, 14.75 88.1 M19.67 83.18 C18.38 85.52, 17.53 86.27, 14.75 88.1 M14.75 88.1 C11.48 88.59, 8.11 88.87, 4.92 88.1 M14.75 88.1 C10.93 88.34, 7.34 88.28, 4.92 88.1 M4.92 88.1 C2.7 87.36, -0.89 88.23, 0 83.18 M4.92 88.1 C2.67 89.67, -1.24 87.85, 0 83.18 M0 83.18 C0.34 58.88, 0.89 39.6, 0 4.92 M0 83.18 C-0.19 56.27, 0.2 28.65, 0 4.92 M0 4.92 C-1.72 3.29, 1.89 -1.27, 4.92 0 M0 4.92 C-0.59 2.03, 2.02 -1.46, 4.92 0" stroke="#364fc7" stroke-width="1" fill="none"></path></g><g stroke-linecap="round" transform="translate(298.35112247720735 21.153904850016147) rotate(0 9.834289028899775 44.04812520941229)"><path d="M6.24 -0.97 L16.24 -0.99 L19.15 4.97 L21.35 84.52 L20.11 86.07 L16.35 88.14 L3.42 87.2 L1.7 84.58 L1.88 6.87 L0.49 1.56 L4.38 -1.61" stroke="none" stroke-width="0" fill="#12b886"></path><path d="M4.92 0 M4.92 0 C6.34 0.66, 9.18 -0.16, 14.75 0 M4.92 0 C6.81 0.36, 9.66 0.24, 14.75 0 M14.75 0 C18.17 -0.44, 17.87 0.21, 19.67 4.92 M14.75 0 C17.53 0.05, 17.44 3.6, 19.67 4.92 M19.67 4.92 C19.42 22.93, 20.3 42.45, 19.67 83.18 M19.67 4.92 C20.49 35.53, 20.57 63.67, 19.67 83.18 M19.67 83.18 C19.66 87.88, 17.64 86.97, 14.75 88.1 M19.67 83.18 C18.73 85.96, 16.21 89.74, 14.75 88.1 M14.75 88.1 C11.92 88.8, 8.81 89, 4.92 88.1 M14.75 88.1 C12.25 88.31, 9.42 88.36, 4.92 88.1 M4.92 88.1 C0.9 87.21, 1.77 87.35, 0 83.18 M4.92 88.1 C3.21 86.85, 1.39 86.12, 0 83.18 M0 83.18 C-1.64 56.23, 1.43 27.51, 0 4.92 M0 83.18 C-0.05 57.27, -0.43 29.52, 0 4.92 M0 4.92 C1.65 1.89, 0.37 -0.51, 4.92 0 M0 4.92 C0.39 2.02, 0.18 -1.99, 4.92 0" stroke="#364fc7" stroke-width="1" fill="none"></path></g><g stroke-linecap="round" transform="translate(618.1152894714196 21.153904850016147) rotate(0 9.834289028900002 44.04812520941229)"><path d="M3.94 -0.66 L15.6 -0.22 L19.72 6.59 L21.01 84.85 L17.64 88.47 L14.79 88.75 L2.18 89.49 L1.4 85.06 L1.95 4.18 L1.56 0.69 L3.31 -1.73" stroke="none" stroke-width="0" fill="#12b886"></path><path d="M4.92 0 M4.92 0 C8.57 0.14, 10.73 -0.51, 14.75 0 M4.92 0 C9.19 0.09, 12.97 0.13, 14.75 0 M14.75 0 C17.59 -1.8, 18.24 1.2, 19.67 4.92 M14.75 0 C18.08 -2.23, 21.63 0, 19.67 4.92 M19.67 4.92 C19.64 30.52, 21.26 56.82, 19.67 83.18 M19.67 4.92 C19.76 28.6, 18.06 50.32, 19.67 83.18 M19.67 83.18 C21.09 86.06, 16.91 87.28, 14.75 88.1 M19.67 83.18 C19.17 84.64, 19.67 89.13, 14.75 88.1 M14.75 88.1 C13.12 88.99, 11.02 87.97, 4.92 88.1 M14.75 88.1 C12.27 88.36, 9.63 87.97, 4.92 88.1 M4.92 88.1 C0.75 89.87, 0.9 87.83, 0 83.18 M4.92 88.1 C0.4 89.48, -0.33 87.88, 0 83.18 M0 83.18 C1.05 63.99, 0.64 43.33, 0 4.92 M0 83.18 C0.42 55.88, -0.94 29.52, 0 4.92 M0 4.92 C0.25 0.37, 1.13 0.34, 4.92 0 M0 4.92 C0.38 0.18, -0.35 -0.21, 4.92 0" stroke="#364fc7" stroke-width="1" fill="none"></path></g><g stroke-linecap="round" transform="translate(98.49851810582413 21.153904850016147) rotate(0 9.834289028899775 44.04812520941229)"><path d="M4.25 -1.3 L16.38 0.36 L21.35 6.26 L21.34 82.38 L20.04 86.91 L15.41 87.51 L4.46 89.19 L1.88 85.13 L-0.74 5.24 L0.69 -0.38 L3.18 0.06" stroke="none" stroke-width="0" fill="#12b886"></path><path d="M4.92 0 M4.92 0 C8.05 -0.22, 10.48 0.88, 14.75 0 M4.92 0 C8.06 0.19, 11.27 -0.18, 14.75 0 M14.75 0 C16.23 -1.43, 19.23 1.68, 19.67 4.92 M14.75 0 C15.8 1.96, 18.03 2.13, 19.67 4.92 M19.67 4.92 C19.97 28.74, 21.13 48.9, 19.67 83.18 M19.67 4.92 C21.35 20.62, 20.37 38.88, 19.67 83.18 M19.67 83.18 C19.27 85.33, 17.21 87.66, 14.75 88.1 M19.67 83.18 C17.85 88.1, 19.06 86.57, 14.75 88.1 M14.75 88.1 C12.26 89.02, 7.91 87.91, 4.92 88.1 M14.75 88.1 C12.03 88.4, 8.7 87.92, 4.92 88.1 M4.92 88.1 C3.41 88.99, 1.37 85.38, 0 83.18 M4.92 88.1 C3.03 87.76, 1.42 85.52, 0 83.18 M0 83.18 C1.88 57.45, 1.51 30.76, 0 4.92 M0 83.18 C-0.31 58.05, 0.57 34.78, 0 4.92 M0 4.92 C-1.27 1.13, 1.98 0.33, 4.92 0 M0 4.92 C-1.46 -0.35, 1.43 -0.78, 4.92 0" stroke="#364fc7" stroke-width="1" fill="none"></path></g><g stroke-linecap="round" transform="translate(418.26268510003774 21.153904850016147) rotate(0 9.834289028899548 44.04812520941229)"><path d="M3.62 -0.52 L16.96 1.98 L21.01 6.59 L18.87 84.78 L18.48 87.52 L14.17 89.79 L4.16 89.67 L1.95 82.44 L0.33 4.38 L-0.38 -0.51 L4.98 0.24" stroke="none" stroke-width="0" fill="#12b886"></path><path d="M4.92 0 M4.92 0 C7.04 -0.58, 10.41 0.2, 14.75 0 M4.92 0 C7.17 0.04, 8.78 -0.44, 14.75 0 M14.75 0 C16.6 -0.44, 19.71 -0.3, 19.67 4.92 M14.75 0 C19.99 -1.64, 20.16 1.23, 19.67 4.92 M19.67 4.92 C21.44 28.4, 19.51 46.87, 19.67 83.18 M19.67 4.92 C19.35 35.41, 20.99 65.71, 19.67 83.18 M19.67 83.18 C18.54 85.64, 17.6 86.51, 14.75 88.1 M19.67 83.18 C21.31 87.49, 16.5 88.99, 14.75 88.1 M14.75 88.1 C12.1 88, 7.47 88.16, 4.92 88.1 M14.75 88.1 C11.52 87.96, 7.55 88.57, 4.92 88.1 M4.92 88.1 C2.54 89.46, -1.08 87.66, 0 83.18 M4.92 88.1 C1.31 89.52, -0.93 87.4, 0 83.18 M0 83.18 C0.42 68.11, 0.43 51.74, 0 4.92 M0 83.18 C-1.25 57.93, -0.26 30.4, 0 4.92 M0 4.92 C-0.51 1.98, 1.97 -1.27, 4.92 0 M0 4.92 C-1.99 1.43, 0.86 2.1, 4.92 0" stroke="#364fc7" stroke-width="1" fill="none"></path></g><g stroke-linecap="round" transform="translate(138.46903898010078 21.153904850016147) rotate(0 9.834289028899775 44.04812520941229)"><path d="M4.39 0.06 L18.58 1.65 L21.34 4.12 L21.27 83.22 L19.09 86.28 L16.45 89.49 L4.64 89.74 L-0.74 83.51 L-0.53 3.31 L-0.51 1.29 L5.15 -1.38" stroke="none" stroke-width="0" fill="#12b886"></path><path d="M4.92 0 M4.92 0 C7.97 0.96, 12.37 -0.95, 14.75 0 M4.92 0 C8.66 -0.16, 11.89 -0.4, 14.75 0 M14.75 0 C17.59 0.04, 17.73 3.34, 19.67 4.92 M14.75 0 C16.39 0.49, 19.26 1.16, 19.67 4.92 M19.67 4.92 C21.48 28.63, 18.1 54.54, 19.67 83.18 M19.67 4.92 C20.44 35.19, 20.24 63.48, 19.67 83.18 M19.67 83.18 C18.85 86.02, 16.45 89.53, 14.75 88.1 M19.67 83.18 C20.7 84.93, 18.92 89.41, 14.75 88.1 M14.75 88.1 C10.96 87.93, 7.5 88.72, 4.92 88.1 M14.75 88.1 C11.19 87.93, 8.43 88.37, 4.92 88.1 M4.92 88.1 C3.01 87.02, 1.21 86.17, 0 83.18 M4.92 88.1 C3.06 87.16, 0.94 84.21, 0 83.18 M0 83.18 C0.31 55.3, -0.23 26.17, 0 4.92 M0 83.18 C0.87 55.95, -0.59 28.21, 0 4.92 M0 4.92 C0.34 1.97, 0.37 -1.73, 4.92 0 M0 4.92 C-0.21 0.86, 3.74 -0.71, 4.92 0" stroke="#364fc7" stroke-width="1" fill="none"></path></g><g stroke-linecap="round" transform="translate(458.23320597431484 21.153904850016147) rotate(0 9.834289028900002 44.04812520941229)"><path d="M4.97 1.68 L18.25 1.98 L18.87 6.52 L19.71 83.83 L17.85 88.56 L16.15 89.97 L4.72 87.05 L0.33 82.64 L-1.61 3.18 L1.29 1.47 L3.54 1.37" stroke="none" stroke-width="0" fill="#12b886"></path><path d="M4.92 0 M4.92 0 C8.88 0.27, 9.99 0.81, 14.75 0 M4.92 0 C7.74 -0.45, 10.42 -0.11, 14.75 0 M14.75 0 C18.07 -1.94, 21.37 0.21, 19.67 4.92 M14.75 0 C18.52 -0.41, 19.19 1.77, 19.67 4.92 M19.67 4.92 C20.15 28.48, 22.14 57.09, 19.67 83.18 M19.67 4.92 C19.65 35.89, 18.38 66.85, 19.67 83.18 M19.67 83.18 C19.24 84.87, 19.46 88.99, 14.75 88.1 M19.67 83.18 C18.14 87.35, 19.34 89.66, 14.75 88.1 M14.75 88.1 C10.7 88.06, 7.71 88.51, 4.92 88.1 M14.75 88.1 C11.16 88.5, 8.23 88.4, 4.92 88.1 M4.92 88.1 C0.56 89.3, -0.29 87.69, 0 83.18 M4.92 88.1 C0.7 89.04, -2.25 88.03, 0 83.18 M0 83.18 C0.59 55.56, 0.29 28.52, 0 4.92 M0 83.18 C0.8 59.48, 0.42 37.22, 0 4.92 M0 4.92 C0.33 0.37, -0.09 -0.18, 4.92 0 M0 4.92 C-0.78 3.74, 0.93 2.17, 4.92 0" stroke="#364fc7" stroke-width="1" fill="none"></path></g><g stroke-linecap="round" transform="translate(178.43955985437742 21.153904850016147) rotate(0 9.834289028899775 44.04812520941229)"><path d="M6.59 1.34 L18.57 -0.49 L21.27 4.96 L20.32 82.59 L20.14 88.26 L16.63 90.05 L2.03 88.12 L-0.53 81.57 L-1.73 4.98 L1.47 -0.15 L6.29 0.14" stroke="none" stroke-width="0" fill="#12b886"></path><path d="M4.92 0 M4.92 0 C7.93 -1.06, 11.28 -0.12, 14.75 0 M4.92 0 C7.95 -0.33, 11.77 0.03, 14.75 0 M14.75 0 C16.09 1.71, 18.24 2.06, 19.67 4.92 M14.75 0 C17.62 -0.48, 19.8 2.18, 19.67 4.92 M19.67 4.92 C18.55 36.96, 21.86 67.38, 19.67 83.18 M19.67 4.92 C19.47 20.6, 19.26 37.2, 19.67 83.18 M19.67 83.18 C18.08 87.89, 18.93 86.77, 14.75 88.1 M19.67 83.18 C20.56 87.77, 19.59 90.06, 14.75 88.1 M14.75 88.1 C10.92 88.61, 7.56 88.49, 4.92 88.1 M14.75 88.1 C11.72 88.27, 8.15 87.79, 4.92 88.1 M4.92 88.1 C2.85 87.81, 1.24 85.64, 0 83.18 M4.92 88.1 C2.58 85.85, 1.58 87.73, 0 83.18 M0 83.18 C-0.09 56.61, 0.7 28.6, 0 4.92 M0 83.18 C-1.28 66.17, -0.48 49.83, 0 4.92 M0 4.92 C-1.27 -0.09, 1.46 -0.68, 4.92 0 M0 4.92 C2.1 0.93, 3.81 -0.41, 4.92 0" stroke="#364fc7" stroke-width="1" fill="none"></path></g><g stroke-linecap="round" transform="translate(498.20372684859103 21.153904850016147) rotate(0 9.834289028900002 44.04812520941229)"><path d="M6.26 1.67 L16.1 1.91 L19.71 5.57 L19.08 84.88 L19.84 88.74 L16.71 87.36 L3.09 87.25 L-1.61 81.44 L0.06 5.15 L-0.15 2.6 L5.06 -0.3" stroke="none" stroke-width="0" fill="#12b886"></path><path d="M4.92 0 M4.92 0 C6.33 0.74, 9.65 0.51, 14.75 0 M4.92 0 C7.58 -0.02, 10.96 -0.39, 14.75 0 M14.75 0 C19.73 -1.42, 20.09 1.28, 19.67 4.92 M14.75 0 C17.55 0.13, 20.21 3.63, 19.67 4.92 M19.67 4.92 C21.38 36.31, 21.56 62.74, 19.67 83.18 M19.67 4.92 C19.66 27.97, 20.01 51.05, 19.67 83.18 M19.67 83.18 C21.1 87.36, 16.7 88.87, 14.75 88.1 M19.67 83.18 C20.98 88.02, 19.99 90.11, 14.75 88.1 M14.75 88.1 C12.52 88.53, 9.63 88.62, 4.92 88.1 M14.75 88.1 C12.38 88.52, 9.31 88.48, 4.92 88.1 M4.92 88.1 C1.35 89.33, -0.81 87.28, 0 83.18 M4.92 88.1 C-0.61 89.67, 1.28 87.56, 0 83.18 M0 83.18 C0.29 57.77, -0.48 28.66, 0 4.92 M0 83.18 C-0.36 53.4, 0.06 22.66, 0 4.92 M0 4.92 C-1.73 1.46, 0.96 1.83, 4.92 0 M0 4.92 C-0.71 3.81, 1.23 -1.54, 4.92 0" stroke="#364fc7" stroke-width="1" fill="none"></path></g><g stroke-linecap="round" transform="translate(218.41008072865407 21.153904850016147) rotate(0 9.834289028899775 44.04812520941229)"><path d="M6.59 -0.8 L18.5 0.35 L20.32 4.33 L21.37 84.58 L20.32 88.82 L14.01 88.42 L2.23 86.18 L-1.73 83.24 L0.24 3.54 L2.6 1.37 L4.61 -1.17" stroke="none" stroke-width="0" fill="#12b886"></path><path d="M4.92 0 M4.92 0 C9.57 0.07, 13.23 0.16, 14.75 0 M4.92 0 C7.55 0.08, 9.91 0.49, 14.75 0 M14.75 0 C16.6 0.42, 19.31 1.22, 19.67 4.92 M14.75 0 C18.16 0.54, 21.66 3.51, 19.67 4.92 M19.67 4.92 C20.54 29.59, 17.14 50.32, 19.67 83.18 M19.67 4.92 C19.11 33.73, 18.72 63.69, 19.67 83.18 M19.67 83.18 C20.57 85.13, 18.8 89.24, 14.75 88.1 M19.67 83.18 C21.23 88.42, 20.04 87.68, 14.75 88.1 M14.75 88.1 C12.49 88.57, 9.89 87.79, 4.92 88.1 M14.75 88.1 C12.57 87.87, 10.02 88.07, 4.92 88.1 M4.92 88.1 C2.87 87.28, 0.82 84.5, 0 83.18 M4.92 88.1 C3.21 89.37, 1.1 87.32, 0 83.18 M0 83.18 C0.91 55.83, -1.8 30.34, 0 4.92 M0 83.18 C0.67 58.87, -0.14 33.36, 0 4.92 M0 4.92 C-0.18 0.96, 3.47 -0.61, 4.92 0 M0 4.92 C2.17 1.23, 0.1 2.2, 4.92 0" stroke="#364fc7" stroke-width="1" fill="none"></path></g><g stroke-linecap="round" transform="translate(538.1742477228672 21.153904850016147) rotate(0 9.834289028900002 44.04812520941229)"><path d="M4.12 1.6 L16.94 0.96 L19.08 6.62 L21.06 85.06 L20.39 86.13 L15.08 87.56 L1.16 86.05 L0.06 83.42 L-1.38 6.29 L1.37 0.93 L3.75 1.92" stroke="none" stroke-width="0" fill="#12b886"></path><path d="M4.92 0 M4.92 0 C8.05 0.45, 11.3 -0.29, 14.75 0 M4.92 0 C6.99 -0.45, 9.47 -0.33, 14.75 0 M14.75 0 C18.45 -0.36, 19.25 1.75, 19.67 4.92 M14.75 0 C18.57 1.99, 21.54 1.41, 19.67 4.92 M19.67 4.92 C22.34 19.7, 20.37 39.59, 19.67 83.18 M19.67 4.92 C19.01 26.06, 19.94 49.24, 19.67 83.18 M19.67 83.18 C18.34 87.23, 19.17 89.45, 14.75 88.1 M19.67 83.18 C21.63 88.47, 17.61 87.49, 14.75 88.1 M14.75 88.1 C12.24 88.66, 8.52 87.7, 4.92 88.1 M14.75 88.1 C10.66 88.46, 7.04 88.47, 4.92 88.1 M4.92 88.1 C0.83 88.92, -1.96 87.83, 0 83.18 M4.92 88.1 C2.92 89.2, 0.86 87.56, 0 83.18 M0 83.18 C-0.37 57.2, 1.39 34.9, 0 4.92 M0 83.18 C0.36 64.03, -0.67 46.07, 0 4.92 M0 4.92 C-0.68 3.47, 1.02 1.89, 4.92 0 M0 4.92 C-0.41 0.1, 3.84 -1.14, 4.92 0" stroke="#364fc7" stroke-width="1" fill="none"></path></g><g stroke-linecap="round" transform="translate(10 10) rotate(0 77.05282402792045 55.20203005942844)"><path d="M-0.59 1.7 C59.94 1.37, 119.05 -1.24, 154.43 -0.53 M0.12 -0.69 C34.55 0.02, 67.58 -0.63, 155.07 0.21 M155.18 0.14 C154.52 20.48, 153.52 44.12, 154.15 108.47 M153.93 -0.21 C153.37 42.77, 154.18 85.88, 154.01 109.53 M152.26 110.4 C95.47 111.52, 32.88 111.1, -0.43 108.82 M154.49 110.97 C97.53 110.23, 40.48 109.2, -0.26 110.39 M1.06 109.67 C-1.37 72.98, 0.41 33.39, -1.08 1.21 M0.41 109.43 C0 79.44, -0.2 47.73, 0.48 0.1" stroke="#e67700" stroke-width="1" fill="none"></path></g><g stroke-linecap="round" transform="translate(332.800048828125 10) rotate(0 77.05282402792045 55.20203005942844)"><path d="M1.7 1.4 C48.42 2.41, 92.36 0.78, 153.57 -1.61 M-0.69 0.68 C32.94 -0.33, 65.15 0.78, 154.32 -0.98 M154.24 -0.44 C152.28 40.19, 153.65 83.27, 152.17 112.11 M153.9 0.06 C154.57 26.12, 155.15 50.41, 153.23 111.3 M154.1 111.82 C95.5 107.86, 36.86 108.55, -1.58 111.83 M154.68 111.08 C101.81 111.88, 47.62 110.74, -0.02 110.95 M-0.74 109.52 C1.3 73.35, 0.9 33.42, 1.21 -0.29 M-0.98 111.09 C1 70.94, 0.82 31, 0.1 0.33" stroke="#e67700" stroke-width="1" fill="none"></path></g><g stroke-linecap="round" transform="translate(172.07792581762988 10) rotate(0 77.05282402792045 55.20203005942844)"><path d="M1.4 1.88 C53.23 -2.05, 102.89 -1.84, 152.5 -1.73 M0.68 0.07 C46.55 0.48, 94.37 1.27, 153.12 0.77 M153.67 -1.8 C153.27 32.44, 154.74 63.82, 155.81 108.98 M154.16 0.23 C154.77 36.27, 153.81 70.05, 155 111.18 M155.52 110.01 C91.61 109.59, 30.93 108.82, 1.43 111.3 M154.78 111.26 C119 111.1, 81.87 111.27, 0.55 110.84 M-0.89 112.18 C0.31 73.94, -1.66 35.96, -0.29 1.24 M0.68 110.96 C0.03 82.14, 0.03 53.23, 0.33 0.5" stroke="#e67700" stroke-width="1" fill="none"></path></g><g stroke-linecap="round" transform="translate(492.4780112668486 10) rotate(0 77.05282402792045 55.20203005942844)"><path d="M1.88 1.95 C40.98 -0.75, 82.91 -2.68, 152.37 0.06 M0.07 -0.15 C47.47 -0.09, 96.32 -2.04, 154.88 -0.02 M152.31 -1.43 C153.75 39.09, 152.24 79.79, 152.68 110.83 M154.34 0.87 C154.69 31.06, 153 63.22, 154.88 111.39 M153.71 109.28 C121.3 111.06, 88.54 112.93, 0.9 109.07 M154.96 111.28 C101.72 111.19, 49.68 112, 0.44 110.83 M1.77 111.3 C1.78 70.36, 1.61 32.18, 1.24 -0.81 M0.56 110.88 C1.45 73.24, 1.18 35.44, 0.5 -0.05" stroke="#e67700" stroke-width="1" fill="none"></path></g><g stroke-linecap="round"><g transform="translate(774.3445837102126 134.10581990112033) rotate(341.3305248972796 -69.06432121171156 -34.89515737369658)"><path d="M1.13 1.17 C-10.27 -2.5, -44.12 -9.2, -67.36 -21.22 C-90.6 -33.25, -126.37 -62.84, -138.32 -70.96 M0.26 0.74 C-11.42 -3.4, -45.29 -11.43, -68.54 -23.24 C-91.79 -35.06, -127.45 -62.55, -139.26 -70.15" stroke="#087f5b" stroke-width="1" fill="none"></path></g><g transform="translate(774.3445837102126 134.10581990112033) rotate(341.3305248972796 -69.06432121171156 -34.89515737369658)"><path d="M-108.32 -63.14 C-121.16 -65.65, -134.24 -69.83, -139.19 -69.91 M-110.43 -62.98 C-116.06 -63.96, -124.7 -65.19, -139.28 -69.61" stroke="#087f5b" stroke-width="1" fill="none"></path></g><g transform="translate(774.3445837102126 134.10581990112033) rotate(341.3305248972796 -69.06432121171156 -34.89515737369658)"><path d="M-120.08 -46.32 C-128.51 -55.41, -137.07 -66.07, -139.19 -69.91 M-122.19 -46.17 C-125.22 -51.04, -131.14 -56.16, -139.28 -69.61" stroke="#087f5b" stroke-width="1" fill="none"></path></g></g><mask></mask><g stroke-linecap="round"><g transform="translate(798.3740094731456 59.928908535222774) rotate(341.3305248972796 -68.89515737369675 -35.74158570691943)"><path d="M1.17 -0.44 C-8.67 -7.42, -34.84 -28.95, -58.19 -40.72 C-81.55 -52.49, -125.67 -66.18, -138.96 -71.04 M0.33 -1.72 C-9.72 -8.01, -36.22 -27.93, -59.04 -39.35 C-81.85 -50.78, -123.46 -65.38, -136.57 -70.27" stroke="#e67700" stroke-width="1" fill="none"></path></g><g transform="translate(798.3740094731456 59.928908535222774) rotate(341.3305248972796 -68.89515737369675 -35.74158570691943)"><path d="M-107.31 -69.88 C-118.2 -71.54, -130.5 -69.9, -136.34 -71.65 M-107.16 -69.24 C-117.42 -71.26, -127.91 -70.32, -136.04 -70.2" stroke="#e67700" stroke-width="1" fill="none"></path></g><g transform="translate(798.3740094731456 59.928908535222774) rotate(341.3305248972796 -68.89515737369675 -35.74158570691943)"><path d="M-114.37 -50.61 C-122.83 -59.47, -132.52 -64.95, -136.34 -71.65 M-114.22 -49.98 C-121.89 -59.08, -129.78 -65.24, -136.04 -70.2" stroke="#e67700" stroke-width="1" fill="none"></path></g></g><mask></mask><g stroke-linecap="round"><g transform="translate(534.486194000353 233.62736907292296) rotate(341.3305248972796 -68.75732375575672 -34.88365870788692)"><path d="M-0.44 0.2 C-11.84 -3.73, -44.14 -10.69, -67.24 -22.38 C-90.34 -34.08, -127.27 -61.89, -139.04 -69.96 M1.53 -0.75 C-10.15 -4.05, -45.32 -10.04, -68.35 -21.35 C-91.39 -32.66, -125.16 -60.49, -136.69 -68.63" stroke="#c92a2a" stroke-width="1" fill="none"></path></g><g transform="translate(534.486194000353 233.62736907292296) rotate(341.3305248972796 -68.75732375575672 -34.88365870788692)"><path d="M-107.67 -60.41 C-120.99 -65.16, -130.63 -66.64, -138.07 -67.26 M-107.04 -59.66 C-117.78 -61.96, -125.63 -64.88, -136.62 -68.84" stroke="#c92a2a" stroke-width="1" fill="none"></path></g><g transform="translate(534.486194000353 233.62736907292296) rotate(341.3305248972796 -68.75732375575672 -34.88365870788692)"><path d="M-120.01 -44.01 C-128.63 -55.18, -133.41 -63.11, -138.07 -67.26 M-119.38 -43.26 C-126.31 -50.53, -130.37 -58.48, -136.62 -68.84" stroke="#c92a2a" stroke-width="1" fill="none"></path></g></g><mask></mask><g transform="translate(502.5138980840502 175.56559601346916) rotate(0 40.5 14)"><text x="0" y="21" font-family="Virgil, Segoe UI Emoji" font-size="20px" fill="#c92a2a" text-anchor="start" style="white-space: pre;" direction="ltr">事件回调</text></g><g transform="translate(787.4460051105152 95.89808103666576) rotate(0 20.5 14)"><text x="0" y="21" font-family="Virgil, Segoe UI Emoji" font-size="20px" fill="#c92a2a" text-anchor="start" style="white-space: pre;" direction="ltr">事件</text></g><g transform="translate(807.4882312309473 22.744348164223766) rotate(0 40.5 14)"><text x="0" y="21" font-family="Virgil, Segoe UI Emoji" font-size="20px" fill="#c92a2a" text-anchor="start" style="white-space: pre;" direction="ltr">时间间隔</text></g></svg>