<svg version="1.1" xmlns="http://www.w3.org/2000/svg" viewBox="0 0 849.9168092408869 591.8333587646484" width="849.9168092408869" height="591.8333587646484">
  <!-- svg-source:excalidraw -->
  
  <defs>
    <style>
      @font-face {
        font-family: "Virgil";
        src: url("https://excalidraw.com/Virgil.woff2");
      }
      @font-face {
        font-family: "Cascadia";
        src: url("https://excalidraw.com/Cascadia.woff2");
      }
    </style>
  </defs>
  <rect x="0" y="0" width="849.9168092408869" height="591.8333587646484" fill="#ffffff"></rect><g stroke-linecap="round"><g transform="translate(10.120948861697684 454.3333282470703) rotate(0 414.8374557587458 -1.5884956292808283)"><path d="M0.88 0.28 C139.06 -0.11, 691.76 -2.71, 829.8 -3.45 M-0.12 -0.62 C137.88 -0.71, 691.04 -1.53, 829.09 -1.98" stroke="#000000" stroke-width="1" fill="none"></path></g><g transform="translate(10.120948861697684 454.3333282470703) rotate(0 414.8374557587458 -1.5884956292808283)"><path d="M801.39 9.11 C810.95 4, 819.85 0.77, 828.91 -3.44 M800.67 8.18 C810.67 5.88, 820.67 0.99, 828.41 -2" stroke="#000000" stroke-width="1" fill="none"></path></g><g transform="translate(10.120948861697684 454.3333282470703) rotate(0 414.8374557587458 -1.5884956292808283)"><path d="M801.34 -11.41 C810.73 -9.14, 819.64 -4.99, 828.91 -3.44 M800.63 -12.34 C810.82 -7.67, 820.84 -5.59, 828.41 -2" stroke="#000000" stroke-width="1" fill="none"></path></g></g><g stroke-linecap="round"><g transform="translate(91.45432288513518 517.0000152587891) rotate(0 -0.7624863511929192 -246.86429472537247)"><path d="M0.67 -0.42 C0.57 -82.48, -1.17 -409.47, -1.74 -491.46 M-0.43 -1.69 C-0.51 -84.18, -1.68 -411.72, -2.2 -493.31" stroke="#000000" stroke-width="1" fill="none"></path></g><g transform="translate(91.45432288513518 517.0000152587891) rotate(0 -0.7624863511929192 -246.86429472537247)"><path d="M7.49 -463.62 C6.75 -470.96, 3.13 -477.32, -2.15 -494.26 M7.99 -464.72 C4.05 -473.46, 2.19 -484.59, -1.39 -493.59" stroke="#000000" stroke-width="1" fill="none"></path></g><g transform="translate(91.45432288513518 517.0000152587891) rotate(0 -0.7624863511929192 -246.86429472537247)"><path d="M-13.03 -463.52 C-9.57 -471, -9 -477.37, -2.15 -494.26 M-12.53 -464.62 C-9.73 -473.35, -4.84 -484.52, -1.39 -493.59" stroke="#000000" stroke-width="1" fill="none"></path></g></g><g stroke-linecap="round"><g transform="translate(90.78763587341643 452.3333282470703) rotate(0 336.91437700598965 -198.6158442161186)"><path d="M0.4 1.09 C19.32 -54.32, 66 -310.89, 112.69 -331.45 C159.38 -352.01, 218.96 -116.25, 280.54 -122.26 C342.12 -128.26, 416.46 -321.94, 482.15 -367.5 C547.84 -413.06, 642.71 -390.7, 674.69 -395.61 M-0.86 0.62 C18.05 -54.74, 64.79 -309.55, 112.11 -330.33 C159.42 -351.1, 221.35 -118.01, 283.02 -124.03 C344.69 -130.06, 417.09 -320.77, 482.12 -366.49 C547.16 -412.2, 641.07 -393.05, 673.22 -398.32" stroke="#a61e4d" stroke-width="2" fill="none"></path></g></g><g transform="translate(172.78763587341643 84) rotate(0 40 14.5)"><text x="0" y="22" font-family="Virgil, Segoe UI Emoji" font-size="20px" fill="#000000" text-anchor="start" style="white-space: pre;" direction="ltr">愚昧山峰</text></g><g transform="translate(333.4543228851352 333.66664123535156) rotate(0 40 14.5)"><text x="0" y="22" font-family="Virgil, Segoe UI Emoji" font-size="20px" fill="#000000" text-anchor="start" style="white-space: pre;" direction="ltr">绝望之谷</text></g><g transform="translate(702.1209488616977 10) rotate(0 60 14.5)"><text x="0" y="22" font-family="Virgil, Segoe UI Emoji" font-size="20px" fill="#000000" text-anchor="start" style="white-space: pre;" direction="ltr">持续平稳高原</text></g><g transform="translate(418.12088782654143 186.3333282470703) rotate(300.1789861160523 40 14.5)"><text x="0" y="22" font-family="Virgil, Segoe UI Emoji" font-size="20px" fill="#000000" text-anchor="start" style="white-space: pre;" direction="ltr">开悟之路</text></g><g transform="translate(50.20424659118987 416.3333282470703) rotate(0 10 14.5)"><text x="0" y="22" font-family="Virgil, Segoe UI Emoji" font-size="20px" fill="#000000" text-anchor="start" style="white-space: pre;" direction="ltr">低</text></g><g transform="translate(50.20424659118987 16.666656494140625) rotate(0 10 14.5)"><text x="0" y="22" font-family="Virgil, Segoe UI Emoji" font-size="20px" fill="#000000" text-anchor="start" style="white-space: pre;" direction="ltr">高</text></g><g transform="translate(20.20424659118987 229.6666717529297) rotate(270 40 14.5)"><text x="0" y="22" font-family="Virgil, Segoe UI Emoji" font-size="20px" fill="#000000" text-anchor="start" style="white-space: pre;" direction="ltr">自信程序</text></g><g transform="translate(758.7876969085727 454.83335876464844) rotate(0 20 14.5)"><text x="0" y="22" font-family="Virgil, Segoe UI Emoji" font-size="20px" fill="#000000" text-anchor="start" style="white-space: pre;" direction="ltr">大师</text></g><g transform="translate(95.12094886169768 454.83335876464844) rotate(0 20 14.5)"><text x="0" y="22" font-family="Virgil, Segoe UI Emoji" font-size="20px" fill="#000000" text-anchor="start" style="white-space: pre;" direction="ltr">菜鸟</text></g><g transform="translate(376.4543228851352 454.83335876464844) rotate(0 86.5 14.5)"><text x="0" y="22" font-family="Virgil, Segoe UI Emoji" font-size="20px" fill="#000000" text-anchor="start" style="white-space: pre;" direction="ltr">智慧（知识+经验）</text></g><g transform="translate(269.7876969085727 201.33332824707037) rotate(62.115548662598705 40 14.5)"><text x="0" y="22" font-family="Virgil, Segoe UI Emoji" font-size="20px" fill="#000000" text-anchor="start" style="white-space: pre;" direction="ltr">自信崩溃</text></g><g stroke-linecap="round"><g transform="translate(90.78769690857268 525.3277343548956) rotate(0 77.56126715276402 0.4792789832549147)"><path d="M0.07 1.16 C26.29 1.24, 130.44 -0.02, 156.47 -0.23 M-1.35 0.73 C24.8 1.04, 129.51 1.11, 155.66 1.19" stroke="#495057" stroke-width="1" fill="none"></path></g><g transform="translate(90.78769690857268 525.3277343548956) rotate(0 77.56126715276402 0.4792789832549147)"><path d="M1.4 -13.51 C-0.4 -10.29, -0.16 -7.46, -0.36 2.66 M0.31 -13.5 C0.34 -8.78, 0.11 -3.33, 0.24 1.25" stroke="#495057" stroke-width="1" fill="none"></path></g><g transform="translate(90.78769690857268 525.3277343548956) rotate(0 77.56126715276402 0.4792789832549147)"><path d="M1.65 16.49 C-0.03 12.77, 0.14 8.66, -0.36 2.66 M0.57 16.5 C0.38 10.39, 0.06 5.03, 0.24 1.25" stroke="#495057" stroke-width="1" fill="none"></path></g><g transform="translate(90.78769690857268 525.3277343548956) rotate(0 77.56126715276402 0.4792789832549147)"><path d="M157.09 16.52 C155.44 12.8, 155.65 8.69, 155.23 2.69 M156 16.53 C155.87 10.42, 155.61 5.05, 155.83 1.28" stroke="#495057" stroke-width="1" fill="none"></path></g><g transform="translate(90.78769690857268 525.3277343548956) rotate(0 77.56126715276402 0.4792789832549147)"><path d="M157.15 -13.48 C155.31 -10.27, 155.51 -7.44, 155.23 2.69 M156.06 -13.47 C156.03 -8.76, 155.75 -3.31, 155.83 1.28" stroke="#495057" stroke-width="1" fill="none"></path></g></g><g stroke-linecap="round"><g transform="translate(247.02877715654 525.9580891158397) rotate(0 77.64222776074439 -0.15951435927104285)"><path d="M-0.55 -0.02 C25.55 0.18, 129.7 0.68, 155.84 0.78 M1.36 -1.08 C27.33 -1.18, 128.99 -0.87, 154.69 -0.94" stroke="#495057" stroke-width="1" fill="none"></path></g><g transform="translate(247.02877715654 525.9580891158397) rotate(0 77.64222776074439 -0.15951435927104285)"><path d="M-0.5 -15.49 C0.43 -11.36, 0.17 -7.06, -0.76 1.35 M-0.53 -14.33 C0.16 -11.89, -0.46 -7.32, -1.27 0.68" stroke="#495057" stroke-width="1" fill="none"></path></g><g transform="translate(247.02877715654 525.9580891158397) rotate(0 77.64222776074439 -0.15951435927104285)"><path d="M-0.66 14.51 C0.41 11.55, 0.19 8.78, -0.76 1.35 M-0.69 15.67 C-0.18 10.66, -0.76 7.78, -1.27 0.68" stroke="#495057" stroke-width="1" fill="none"></path></g><g transform="translate(247.02877715654 525.9580891158397) rotate(0 77.64222776074439 -0.15951435927104285)"><path d="M154.66 13.6 C155.71 10.64, 155.47 7.86, 154.49 0.43 M154.63 14.75 C155.12 9.75, 154.52 6.87, 153.98 -0.24" stroke="#495057" stroke-width="1" fill="none"></path></g><g transform="translate(247.02877715654 525.9580891158397) rotate(0 77.64222776074439 -0.15951435927104285)"><path d="M154.68 -16.4 C155.62 -12.28, 155.38 -7.97, 154.49 0.43 M154.65 -15.25 C155.36 -12.8, 154.75 -8.24, 153.98 -0.24" stroke="#495057" stroke-width="1" fill="none"></path></g></g><g stroke-linecap="round"><g transform="translate(665.9075135261522 526.4157276903445) rotate(0 78.83714493445598 -0.619598581816831)"><path d="M0.78 0.3 C26.53 0.51, 129.55 0.24, 155.57 0.33 M-0.28 -0.58 C25.78 -0.67, 131.82 -1.54, 157.95 -1.62" stroke="#495057" stroke-width="1" fill="none"></path></g><g transform="translate(665.9075135261522 526.4157276903445) rotate(0 78.83714493445598 -0.619598581816831)"><path d="M1.16 -15.5 C1.07 -8.04, 1.7 -3.34, 0.19 1.22 M1.12 -14.28 C1.55 -9.67, 0.37 -5.21, 1.28 0.67" stroke="#495057" stroke-width="1" fill="none"></path></g><g transform="translate(665.9075135261522 526.4157276903445) rotate(0 78.83714493445598 -0.619598581816831)"><path d="M1.15 14.5 C1.3 10.34, 1.93 3.42, 0.19 1.22 M1.11 15.72 C1.37 11.32, 0.2 6.76, 1.28 0.67" stroke="#495057" stroke-width="1" fill="none"></path></g><g transform="translate(665.9075135261522 526.4157276903445) rotate(0 78.83714493445598 -0.619598581816831)"><path d="M158.42 12.58 C158.53 8.41, 159.13 1.49, 157.37 -0.71 M158.38 13.79 C158.61 9.39, 157.41 4.83, 158.46 -1.26" stroke="#495057" stroke-width="1" fill="none"></path></g><g transform="translate(665.9075135261522 526.4157276903445) rotate(0 78.83714493445598 -0.619598581816831)"><path d="M158.24 -17.42 C158.19 -9.97, 158.85 -5.26, 157.37 -0.71 M158.2 -16.2 C158.66 -11.6, 157.51 -7.14, 158.46 -1.26" stroke="#495057" stroke-width="1" fill="none"></path></g></g><g stroke-linecap="round"><g transform="translate(402.5087869041548 526.1780134430387) rotate(0 132.44034984125932 -0.3960282804770259)"><path d="M-0.13 0.99 C44.44 0.97, 222.06 0.26, 266.53 0.22 M-1.65 0.47 C42.89 0.03, 221.21 -1.51, 265.87 -1.78" stroke="#495057" stroke-width="1" fill="none"></path></g><g transform="translate(402.5087869041548 526.1780134430387) rotate(0 132.44034984125932 -0.3960282804770259)"><path d="M1.07 -13.32 C0.16 -9.74, 0.85 -8.18, -1.33 0.25 M-0.31 -14.35 C-0.85 -9.22, 0.24 -3.74, -0.32 0.56" stroke="#495057" stroke-width="1" fill="none"></path></g><g transform="translate(402.5087869041548 526.1780134430387) rotate(0 132.44034984125932 -0.3960282804770259)"><path d="M1.16 16.68 C0.14 13.49, 0.81 8.28, -1.33 0.25 M-0.22 15.65 C-0.64 10.55, 0.43 5.8, -0.32 0.56" stroke="#495057" stroke-width="1" fill="none"></path></g><g transform="translate(402.5087869041548 526.1780134430387) rotate(0 132.44034984125932 -0.3960282804770259)"><path d="M267.23 13.9 C266.2 10.71, 266.85 5.5, 264.67 -2.53 M265.85 12.88 C265.41 7.77, 266.45 3.02, 265.68 -2.22" stroke="#495057" stroke-width="1" fill="none"></path></g><g transform="translate(402.5087869041548 526.1780134430387) rotate(0 132.44034984125932 -0.3960282804770259)"><path d="M267 -16.1 C266.1 -12.52, 266.81 -10.96, 264.67 -2.53 M265.62 -17.12 C265.1 -11.99, 266.22 -6.52, 265.68 -2.22" stroke="#495057" stroke-width="1" fill="none"></path></g></g><g transform="translate(120.1210098968539 536.8333587646484) rotate(0 40.000000000000014 22.5)"><text x="40" y="17.5" font-family="Virgil, Segoe UI Emoji" font-size="16px" fill="#495057" text-anchor="middle" style="white-space: pre;" direction="ltr">不知道</text><text x="40" y="40" font-family="Virgil, Segoe UI Emoji" font-size="16px" fill="#495057" text-anchor="middle" style="white-space: pre;" direction="ltr">自己不知道</text></g><g transform="translate(289.4543228851352 536.8333587646484) rotate(0 40 22.5)"><text x="40" y="17.5" font-family="Virgil, Segoe UI Emoji" font-size="16px" fill="#495057" text-anchor="middle" style="white-space: pre;" direction="ltr">知道</text><text x="40" y="40" font-family="Virgil, Segoe UI Emoji" font-size="16px" fill="#495057" text-anchor="middle" style="white-space: pre;" direction="ltr">自己不知道</text></g><g transform="translate(510.7875748382602 536.8333587646484) rotate(0 32 22.5)"><text x="32" y="17.5" font-family="Virgil, Segoe UI Emoji" font-size="16px" fill="#495057" text-anchor="middle" style="white-space: pre;" direction="ltr">知道</text><text x="32" y="40" font-family="Virgil, Segoe UI Emoji" font-size="16px" fill="#495057" text-anchor="middle" style="white-space: pre;" direction="ltr">自己知道</text></g><g transform="translate(723.4544449554477 536.8333587646484) rotate(0 32 22.5)"><text x="32" y="17.5" font-family="Virgil, Segoe UI Emoji" font-size="16px" fill="#495057" text-anchor="middle" style="white-space: pre;" direction="ltr">不知道</text><text x="32" y="40" font-family="Virgil, Segoe UI Emoji" font-size="16px" fill="#495057" text-anchor="middle" style="white-space: pre;" direction="ltr">自己知道</text></g></svg>